Basic-Regular.glyphspackage
{
glyphname = exclam;
layers = (
{
layerId = m001;
shapes = (
{
closed = 1;
nodes = (
(98,61,o),
(164,-1,o),
(246,-1,cs),
(328,-1,o),
(394,61,o),
(394,138,cs),
(394,214,o),
(328,275,o),
(246,275,cs),
(164,275,o),
(98,214,o),
(98,138,cs)
);
},
{
closed = 1;
nodes = (
(195,403,o),
(227,397,o),
(249,397,cs),
(293,397,o),
(311,405,o),
(319,409,c),
(319,409,o),
(363,962,o),
(363,1388,cs),
(363,1388,o),
(304,1397,o),
(243,1397,cs),
(186,1397,o),
(128,1388,o),
(128,1388,c),
(128,992,o),
(177,410,o),
(177,410,c)
);
}
);
width = 492;
},
{
layerId = m002;
shapes = (
{
closed = 1;
nodes = (
(98,61,o),
(164,-1,o),
(246,-1,cs),
(328,-1,o),
(394,61,o),
(394,138,cs),
(394,214,o),
(328,275,o),
(246,275,cs),
(164,275,o),
(98,214,o),
(98,138,cs)
);
},
{
closed = 1;
nodes = (
(195,403,o),
(227,397,o),
(249,397,cs),
(293,397,o),
(311,405,o),
(319,409,c),
(319,409,o),
(363,962,o),
(363,1388,cs),
(363,1388,o),
(304,1397,o),
(243,1397,cs),
(186,1397,o),
(128,1388,o),
(128,1388,c),
(128,992,o),
(177,410,o),
(177,410,c)
);
}
);
width = 492;
},
{
layerId = m003;
shapes = (
{
closed = 1;
nodes = (
(98,61,o),
(164,-1,o),
(246,-1,cs),
(328,-1,o),
(394,61,o),
(394,138,cs),
(394,214,o),
(328,275,o),
(246,275,cs),
(164,275,o),
(98,214,o),
(98,138,cs)
);
},
{
closed = 1;
nodes = (
(195,403,o),
(227,397,o),
(249,397,cs),
(293,397,o),
(311,405,o),
(319,409,c),
(319,409,o),
(363,962,o),
(363,1388,cs),
(363,1388,o),
(304,1397,o),
(243,1397,cs),
(186,1397,o),
(128,1388,o),
(128,1388,c),
(128,992,o),
(177,410,o),
(177,410,c)
);
}
);
width = 492;
}
);
unicode = 33;
}
{
glyphname = numbersign;
layers = (
{
layerId = m001;
shapes = (
{
closed = 1;
nodes = (
(763,-9,o),
(796,-14,o),
(821,-14,cs),
(860,-14,o),
(901,0,o),
(901,0,c),
(932,350,l),
(1159,350,l),
(1172,378,o),
(1178,392,o),
(1178,412,cs),
(1178,451,o),
(1163,494,o),
(1163,494,c),
(946,494,l),
(975,850,l),
(1210,850,l),
(1223,878,o),
(1228,898,o),
(1228,919,cs),
(1228,958,o),
(1214,1001,o),
(1214,1001,c),
(989,1001,l),
(1020,1346,l),
(989,1365,o),
(956,1370,o),
(930,1370,cs),
(889,1370,o),
(842,1355,o),
(842,1355,c),
(811,1001,l),
(575,1001,l),
(608,1346,l),
(577,1365,o),
(545,1370,o),
(518,1370,cs),
(478,1370,o),
(431,1355,o),
(431,1355,c),
(397,1001,l),
(182,1001,l),
(172,966,o),
(168,939,o),
(168,920,cs),
(168,883,o),
(180,851,o),
(180,851,c),
(382,851,l),
(350,494,l),
(131,494,l),
(122,460,o),
(118,433,o),
(118,413,cs),
(118,376,o),
(129,351,o),
(129,351,c),
(335,351,l),
(302,8,l),
(342,-9,o),
(375,-14,o),
(399,-14,cs),
(439,-14,o),
(479,0,o),
(479,0,c),
(512,351,l),
(753,350,l),
(723,8,l)
);
},
{
closed = 1;
nodes = (
(797,850,l),
(767,494,l),
(527,494,l),
(560,851,l)
);
}
);
width = 1364;
},
{
layerId = m002;
shapes = (
{
closed = 1;
nodes = (
(763,-9,o),
(796,-14,o),
(821,-14,cs),
(860,-14,o),
(901,0,o),
(901,0,c),
(932,350,l),
(1159,350,l),
(1172,378,o),
(1178,392,o),
(1178,412,cs),
(1178,451,o),
(1163,494,o),
(1163,494,c),
(946,494,l),
(975,850,l),
(1210,850,l),
(1223,878,o),
(1228,898,o),
(1228,919,cs),
(1228,958,o),
(1214,1001,o),
(1214,1001,c),
(989,1001,l),
(1020,1346,l),
(989,1365,o),
(956,1370,o),
(930,1370,cs),
(889,1370,o),
(842,1355,o),
(842,1355,c),
(811,1001,l),
(575,1001,l),
(608,1346,l),
(577,1365,o),
(545,1370,o),
(518,1370,cs),
(478,1370,o),
(431,1355,o),
(431,1355,c),
(397,1001,l),
(182,1001,l),
(172,966,o),
(168,939,o),
(168,920,cs),
(168,883,o),
(180,851,o),
(180,851,c),
(382,851,l),
(350,494,l),
(131,494,l),
(122,460,o),
(118,433,o),
(118,413,cs),
(118,376,o),
(129,351,o),
(129,351,c),
(335,351,l),
(302,8,l),
(342,-9,o),
(375,-14,o),
(399,-14,cs),
(439,-14,o),
(479,0,o),
(479,0,c),
(512,351,l),
(753,350,l),
(723,8,l)
);
},
{
closed = 1;
nodes = (
(797,850,l),
(767,494,l),
(527,494,l),
(560,851,l)
);
}
);
width = 1364;
},
{
layerId = m003;
shapes = (
{
closed = 1;
nodes = (
(763,-9,o),
(796,-14,o),
(821,-14,cs),
(860,-14,o),
(901,0,o),
(901,0,c),
(932,350,l),
(1159,350,l),
(1172,378,o),
(1178,392,o),
(1178,412,cs),
(1178,451,o),
(1163,494,o),
(1163,494,c),
(946,494,l),
(975,850,l),
(1210,850,l),
(1223,878,o),
(1228,898,o),
(1228,919,cs),
(1228,958,o),
(1214,1001,o),
(1214,1001,c),
(989,1001,l),
(1020,1346,l),
(989,1365,o),
(956,1370,o),
(930,1370,cs),
(889,1370,o),
(842,1355,o),
(842,1355,c),
(811,1001,l),
(575,1001,l),
(608,1346,l),
(577,1365,o),
(545,1370,o),
(518,1370,cs),
(478,1370,o),
(431,1355,o),
(431,1355,c),
(397,1001,l),
(182,1001,l),
(172,966,o),
(168,939,o),
(168,920,cs),
(168,883,o),
(180,851,o),
(180,851,c),
(382,851,l),
(350,494,l),
(131,494,l),
(122,460,o),
(118,433,o),
(118,413,cs),
(118,376,o),
(129,351,o),
(129,351,c),
(335,351,l),
(302,8,l),
(342,-9,o),
(375,-14,o),
(399,-14,cs),
(439,-14,o),
(479,0,o),
(479,0,c),
(512,351,l),
(753,350,l),
(723,8,l)
);
},
{
closed = 1;
nodes = (
(797,850,l),
(767,494,l),
(527,494,l),
(560,851,l)
);
}
);
width = 1364;
}
);
unicode = 35;
}
{
glyphname = dollar;
layers = (
{
layerId = m001;
shapes = (
{
closed = 1;
nodes = (
(133,49,o),
(266,-22,o),
(475,-26,c),
(475,-202,l),
(514,-216,o),
(547,-219,o),
(573,-219,cs),
(614,-219,o),
(659,-206,o),
(659,-206,c),
(659,-14,l),
(894,25,o),
(980,158,o),
(980,389,cs),
(980,595,o),
(885,695,o),
(591,773,cs),
(390,826,o),
(327,864,o),
(327,1010,cs),
(327,1141,o),
(419,1204,o),
(589,1204,cs),
(774,1204,o),
(848,1131,o),
(848,1131,c),
(914,1227,o),
(921,1302,o),
(921,1302,c),
(921,1302,o),
(848,1363,o),
(678,1380,c),
(678,1551,l),
(643,1567,o),
(613,1572,o),
(587,1572,cs),
(541,1572,o),
(494,1555,o),
(494,1555,c),
(494,1379,l),
(255,1353,o),
(120,1227,o),
(120,973,cs),
(120,793,o),
(212,667,o),
(519,588,cs),
(701,541,o),
(767,497,o),
(767,356,cs),
(767,231,o),
(687,167,o),
(483,167,cs),
(337,167,o),
(179,231,o),
(179,231,c),
(136,127,o),
(133,49,o),
(133,49,c)
);
}
);
width = 1078;
},
{
layerId = m002;
shapes = (
{
closed = 1;
nodes = (
(133,49,o),
(266,-22,o),
(475,-26,c),
(475,-202,l),
(514,-216,o),
(547,-219,o),
(573,-219,cs),
(614,-219,o),
(659,-206,o),
(659,-206,c),
(659,-14,l),
(894,25,o),
(980,158,o),
(980,389,cs),
(980,595,o),
(885,695,o),
(591,773,cs),
(390,826,o),
(327,864,o),
(327,1010,cs),
(327,1141,o),
(419,1204,o),
(589,1204,cs),
(774,1204,o),
(848,1131,o),
(848,1131,c),
(914,1227,o),
(921,1302,o),
(921,1302,c),
(921,1302,o),
(848,1363,o),
(678,1380,c),
(678,1551,l),
(643,1567,o),
(613,1572,o),
(587,1572,cs),
(541,1572,o),
(494,1555,o),
(494,1555,c),
(494,1379,l),
(255,1353,o),
(120,1227,o),
(120,973,cs),
(120,793,o),
(212,667,o),
(519,588,cs),
(701,541,o),
(767,497,o),
(767,356,cs),
(767,231,o),
(687,167,o),
(483,167,cs),
(337,167,o),
(179,231,o),
(179,231,c),
(136,127,o),
(133,49,o),
(133,49,c)
);
}
);
width = 1078;
},
{
layerId = m003;
shapes = (
{
closed = 1;
nodes = (
(133,49,o),
(266,-22,o),
(475,-26,c),
(475,-202,l),
(514,-216,o),
(547,-219,o),
(573,-219,cs),
(614,-219,o),
(659,-206,o),
(659,-206,c),
(659,-14,l),
(894,25,o),
(980,158,o),
(980,389,cs),
(980,595,o),
(885,695,o),
(591,773,cs),
(390,826,o),
(327,864,o),
(327,1010,cs),
(327,1141,o),
(419,1204,o),
(589,1204,cs),
(774,1204,o),
(848,1131,o),
(848,1131,c),
(914,1227,o),
(921,1302,o),
(921,1302,c),
(921,1302,o),
(848,1363,o),
(678,1380,c),
(678,1551,l),
(643,1567,o),
(613,1572,o),
(587,1572,cs),
(541,1572,o),
(494,1555,o),
(494,1555,c),
(494,1379,l),
(255,1353,o),
(120,1227,o),
(120,973,cs),
(120,793,o),
(212,667,o),
(519,588,cs),
(701,541,o),
(767,497,o),
(767,356,cs),
(767,231,o),
(687,167,o),
(483,167,cs),
(337,167,o),
(179,231,o),
(179,231,c),
(136,127,o),
(133,49,o),
(133,49,c)
);
}
);
width = 1078;
}
);
unicode = 36;
}
{
glyphname = percent;
layers = (
{
layerId = m001;
shapes = (
{
closed = 1;
nodes = (
(479,-2,o),
(576,-21,o),
(576,-21,c),
(1354,1298,l),
(1315,1364,o),
(1204,1385,o),
(1204,1385,c),
(423,66,l)
);
},
{
closed = 1;
nodes = (
(640,604,o),
(774,773,o),
(774,1001,cs),
(774,1232,o),
(646,1384,o),
(454,1384,cs),
(269,1384,o),
(130,1224,o),
(130,994,cs),
(130,764,o),
(263,604,o),
(454,604,cs)
);
},
{
closed = 1;
nodes = (
(349,744,o),
(299,871,o),
(299,994,cs),
(299,1116,o),
(349,1243,o),
(454,1243,cs),
(561,1243,o),
(604,1127,o),
(604,999,cs),
(604,880,o),
(561,744,o),
(454,744,cs)
);
},
{
closed = 1;
nodes = (
(1013,141,o),
(1146,-20,o),
(1337,-20,cs),
(1523,-20,o),
(1657,149,o),
(1657,378,cs),
(1657,609,o),
(1529,761,o),
(1337,761,cs),
(1151,761,o),
(1013,601,o),
(1013,371,cs)
);
},
{
closed = 1;
nodes = (
(1181,493,o),
(1232,620,o),
(1337,620,cs),
(1444,620,o),
(1486,504,o),
(1486,375,cs),
(1486,257,o),
(1444,121,o),
(1337,121,cs),
(1222,121,o),
(1181,248,o),
(1181,371,cs)
);
}
);
width = 1787;
},
{
layerId = m002;
shapes = (
{
closed = 1;
nodes = (
(479,-2,o),
(576,-21,o),
(576,-21,c),
(1354,1298,l),
(1315,1364,o),
(1204,1385,o),
(1204,1385,c),
(423,66,l)
);
},
{
closed = 1;
nodes = (
(640,604,o),
(774,773,o),
(774,1001,cs),
(774,1232,o),
(646,1384,o),
(454,1384,cs),
(269,1384,o),
(130,1224,o),
(130,994,cs),
(130,764,o),
(263,604,o),
(454,604,cs)
);
},
{
closed = 1;
nodes = (
(349,744,o),
(299,871,o),
(299,994,cs),
(299,1116,o),
(349,1243,o),
(454,1243,cs),
(561,1243,o),
(604,1127,o),
(604,999,cs),
(604,880,o),
(561,744,o),
(454,744,cs)
);
},
{
closed = 1;
nodes = (
(1013,141,o),
(1146,-20,o),
(1337,-20,cs),
(1523,-20,o),
(1657,149,o),
(1657,378,cs),
(1657,609,o),
(1529,761,o),
(1337,761,cs),
(1151,761,o),
(1013,601,o),
(1013,371,cs)
);
},
{
closed = 1;
nodes = (
(1181,493,o),
(1232,620,o),
(1337,620,cs),
(1444,620,o),
(1486,504,o),
(1486,375,cs),
(1486,257,o),
(1444,121,o),
(1337,121,cs),
(1222,121,o),
(1181,248,o),
(1181,371,cs)
);
}
);
width = 1787;
},
{
layerId = m003;
shapes = (
{
closed = 1;
nodes = (
(479,-2,o),
(576,-21,o),
(576,-21,c),
(1354,1298,l),
(1315,1364,o),
(1204,1385,o),
(1204,1385,c),
(423,66,l)
);
},
{
closed = 1;
nodes = (
(640,604,o),
(774,773,o),
(774,1001,cs),
(774,1232,o),
(646,1384,o),
(454,1384,cs),
(269,1384,o),
(130,1224,o),
(130,994,cs),
(130,764,o),
(263,604,o),
(454,604,cs)
);
},
{
closed = 1;
nodes = (
(349,744,o),
(299,871,o),
(299,994,cs),
(299,1116,o),
(349,1243,o),
(454,1243,cs),
(561,1243,o),
(604,1127,o),
(604,999,cs),
(604,880,o),
(561,744,o),
(454,744,cs)
);
},
{
closed = 1;
nodes = (
(1013,141,o),
(1146,-20,o),
(1337,-20,cs),
(1523,-20,o),
(1657,149,o),
(1657,378,cs),
(1657,609,o),
(1529,761,o),
(1337,761,cs),
(1151,761,o),
(1013,601,o),
(1013,371,cs)
);
},
{
closed = 1;
nodes = (
(1181,493,o),
(1232,620,o),
(1337,620,cs),
(1444,620,o),
(1486,504,o),
(1486,375,cs),
(1486,257,o),
(1444,121,o),
(1337,121,cs),
(1222,121,o),
(1181,248,o),
(1181,371,cs)
);
}
);
width = 1787;
}
);
unicode = 37;
}
{
glyphname = ampersand;
layers = (
{
layerId = m001;
shapes = (
{
closed = 1;
nodes = (
(966,602,l),
(960,508,o),
(935,391,o),
(896,330,c),
(483,627,o),
(435,821,o),
(435,953,cs),
(435,1074,o),
(489,1138,o),
(597,1138,cs),
(684,1138,o),
(750,1102,o),
(754,1034,c),
(860,1036,o),
(956,1054,o),
(956,1054,c),
(956,1234,o),
(814,1317,o),
(612,1317,cs),
(409,1317,o),
(208,1208,o),
(208,945,cs),
(208,881,o),
(224,791,o),
(282,682,c),
(113,637,o),
(19,503,o),
(19,344,cs),
(19,83,o),
(295,-39,o),
(498,-39,cs),
(671,-39,o),
(807,7,o),
(909,86,c),
(971,47,o),
(1037,7,o),
(1110,-33,c),
(1135,-33,l),
(1203,16,o),
(1223,120,o),
(1223,120,c),
(1156,159,o),
(1095,196,o),
(1039,233,c),
(1095,325,o),
(1127,477,o),
(1138,602,c),
(1225,602,l),
(1240,627,o),
(1259,730,o),
(1259,798,c),
(760,798,l),
(751,768,o),
(743,724,o),
(743,702,cs),
(743,682,o),
(743,635,o),
(752,602,c)
);
},
{
closed = 1;
nodes = (
(380,140,o),
(246,230,o),
(246,372,cs),
(246,462,o),
(282,539,o),
(342,586,c),
(424,470,o),
(552,337,o),
(750,194,c),
(681,157,o),
(603,140,o),
(525,140,cs)
);
}
);
width = 1291;
},
{
layerId = m002;
shapes = (
{
closed = 1;
nodes = (
(966,602,l),
(960,508,o),
(935,391,o),
(896,330,c),
(483,627,o),
(435,821,o),
(435,953,cs),
(435,1074,o),
(489,1138,o),
(597,1138,cs),
(684,1138,o),
(750,1102,o),
(754,1034,c),
(860,1036,o),
(956,1054,o),
(956,1054,c),
(956,1234,o),
(814,1317,o),
(612,1317,cs),
(409,1317,o),
(208,1208,o),
(208,945,cs),
(208,881,o),
(224,791,o),
(282,682,c),
(113,637,o),
(19,503,o),
(19,344,cs),
(19,83,o),
(295,-39,o),
(498,-39,cs),
(671,-39,o),
(807,7,o),
(909,86,c),
(971,47,o),
(1037,7,o),
(1110,-33,c),
(1135,-33,l),
(1203,16,o),
(1223,120,o),
(1223,120,c),
(1156,159,o),
(1095,196,o),
(1039,233,c),
(1095,325,o),
(1127,477,o),
(1138,602,c),
(1225,602,l),
(1240,627,o),
(1259,730,o),
(1259,798,c),
(760,798,l),
(751,768,o),
(743,724,o),
(743,702,cs),
(743,682,o),
(743,635,o),
(752,602,c)
);
},
{
closed = 1;
nodes = (
(380,140,o),
(246,230,o),
(246,372,cs),
(246,462,o),
(282,539,o),
(342,586,c),
(424,470,o),
(552,337,o),
(750,194,c),
(681,157,o),
(603,140,o),
(525,140,cs)
);
}
);
width = 1291;
},
{
layerId = m003;
shapes = (
{
closed = 1;
nodes = (
(966,602,l),
(960,508,o),
(935,391,o),
(896,330,c),
(483,627,o),
(435,821,o),
(435,953,cs),
(435,1074,o),
(489,1138,o),
(597,1138,cs),
(684,1138,o),
(750,1102,o),
(754,1034,c),
(860,1036,o),
(956,1054,o),
(956,1054,c),
(956,1234,o),
(814,1317,o),
(612,1317,cs),
(409,1317,o),
(208,1208,o),
(208,945,cs),
(208,881,o),
(224,791,o),
(282,682,c),
(113,637,o),
(19,503,o),
(19,344,cs),
(19,83,o),
(295,-39,o),
(498,-39,cs),
(671,-39,o),
(807,7,o),
(909,86,c),
(971,47,o),
(1037,7,o),
(1110,-33,c),
(1135,-33,l),
(1203,16,o),
(1223,120,o),
(1223,120,c),
(1156,159,o),
(1095,196,o),
(1039,233,c),
(1095,325,o),
(1127,477,o),
(1138,602,c),
(1225,602,l),
(1240,627,o),
(1259,730,o),
(1259,798,c),
(760,798,l),
(751,768,o),
(743,724,o),
(743,702,cs),
(743,682,o),
(743,635,o),
(752,602,c)
);
},
{
closed = 1;
nodes = (
(380,140,o),
(246,230,o),
(246,372,cs),
(246,462,o),
(282,539,o),
(342,586,c),
(424,470,o),
(552,337,o),
(750,194,c),
(681,157,o),
(603,140,o),
(525,140,cs)
);
}
);
width = 1291;
}
);
unicode = 38;
}
{
glyphname = quotesingle;
layers = (
{
layerId = m001;
shapes = (
{
closed = 1;
nodes = (
(248,1030,o),
(278,1049,o),
(278,1049,c),
(318,1602,l),
(318,1602,o),
(277,1634,o),
(199,1634,cs),
(122,1634,o),
(80,1608,o),
(80,1608,c),
(116,1057,l),
(116,1057,o),
(143,1030,o),
(197,1030,cs)
);
}
);
width = 398;
},
{
layerId = m002;
shapes = (
{
closed = 1;
nodes = (
(248,1030,o),
(278,1049,o),
(278,1049,c),
(318,1602,l),
(318,1602,o),
(277,1634,o),
(199,1634,cs),
(122,1634,o),
(80,1608,o),
(80,1608,c),
(116,1057,l),
(116,1057,o),
(143,1030,o),
(197,1030,cs)
);
}
);
width = 398;
},
{
layerId = m003;
shapes = (
{
closed = 1;
nodes = (
(248,1030,o),
(278,1049,o),
(278,1049,c),
(318,1602,l),
(318,1602,o),
(277,1634,o),
(199,1634,cs),
(122,1634,o),
(80,1608,o),
(80,1608,c),
(116,1057,l),
(116,1057,o),
(143,1030,o),
(197,1030,cs)
);
}
);
width = 398;
}
);
unicode = 39;
}
{
glyphname = parenleft;
layers = (
{
layerId = m001;
shapes = (
{
closed = 1;
nodes = (
(465,-281,o),
(567,-248,o),
(584,-186,c),
(359,108,o),
(292,376,o),
(292,663,cs),
(292,951,o),
(359,1178,o),
(584,1463,c),
(567,1524,o),
(465,1557,o),
(465,1557,c),
(195,1295,o),
(88,996,o),
(88,662,cs),
(88,330,o),
(195,-19,o),
(465,-281,c)
);
}
);
width = 604;
},
{
layerId = m002;
shapes = (
{
closed = 1;
nodes = (
(465,-281,o),
(567,-248,o),
(584,-186,c),
(359,108,o),
(292,376,o),
(292,663,cs),
(292,951,o),
(359,1178,o),
(584,1463,c),
(567,1524,o),
(465,1557,o),
(465,1557,c),
(195,1295,o),
(88,996,o),
(88,662,cs),
(88,330,o),
(195,-19,o),
(465,-281,c)
);
}
);
width = 604;
},
{
layerId = m003;
shapes = (
{
closed = 1;
nodes = (
(465,-281,o),
(567,-248,o),
(584,-186,c),
(359,108,o),
(292,376,o),
(292,663,cs),
(292,951,o),
(359,1178,o),
(584,1463,c),
(567,1524,o),
(465,1557,o),
(465,1557,c),
(195,1295,o),
(88,996,o),
(88,662,cs),
(88,330,o),
(195,-19,o),
(465,-281,c)
);
}
);
width = 604;
}
);
unicode = 40;
}
{
glyphname = asterisk;
layers = (
{
layerId = m001;
shapes = (
{
closed = 1;
nodes = (
(166,579,o),
(308,635,o),
(432,747,c),
(510,630,o),
(560,506,o),
(560,506,c),
(580,498,l),
(644,494,o),
(689,541,o),
(689,541,c),
(689,541,o),
(682,686,o),
(602,849,c),
(738,889,o),
(885,903,o),
(885,903,c),
(898,939,o),
(904,953,o),
(904,951,cs),
(904,982,o),
(887,1012,o),
(887,1012,c),
(887,1012,o),
(796,1037,o),
(673,1037,cs),
(640,1037,o),
(601,1035,o),
(566,1031,c),
(571,1172,o),
(602,1317,o),
(602,1317,c),
(547,1360,o),
(478,1349,o),
(478,1349,c),
(478,1349,o),
(396,1220,o),
(362,1054,c),
(230,1103,o),
(110,1173,o),
(110,1173,c),
(44,1130,o),
(37,1084,o),
(37,1084,c),
(37,1084,o),
(131,967,o),
(288,882,c),
(203,770,o),
(89,669,o),
(89,669,c),
(104,607,o),
(166,579,o),
(166,579,c)
);
}
);
width = 942;
},
{
layerId = m002;
shapes = (
{
closed = 1;
nodes = (
(166,579,o),
(308,635,o),
(432,747,c),
(510,630,o),
(560,506,o),
(560,506,c),
(580,498,l),
(644,494,o),
(689,541,o),
(689,541,c),
(689,541,o),
(682,686,o),
(602,849,c),
(738,889,o),
(885,903,o),
(885,903,c),
(898,939,o),
(904,953,o),
(904,951,cs),
(904,982,o),
(887,1012,o),
(887,1012,c),
(887,1012,o),
(796,1037,o),
(673,1037,cs),
(640,1037,o),
(601,1035,o),
(566,1031,c),
(571,1172,o),
(602,1317,o),
(602,1317,c),
(547,1360,o),
(478,1349,o),
(478,1349,c),
(478,1349,o),
(396,1220,o),
(362,1054,c),
(230,1103,o),
(110,1173,o),
(110,1173,c),
(44,1130,o),
(37,1084,o),
(37,1084,c),
(37,1084,o),
(131,967,o),
(288,882,c),
(203,770,o),
(89,669,o),
(89,669,c),
(104,607,o),
(166,579,o),
(166,579,c)
);
}
);
width = 942;
},
{
layerId = m003;
shapes = (
{
closed = 1;
nodes = (
(166,579,o),
(308,635,o),
(432,747,c),
(510,630,o),
(560,506,o),
(560,506,c),
(580,498,l),
(644,494,o),
(689,541,o),
(689,541,c),
(689,541,o),
(682,686,o),
(602,849,c),
(738,889,o),
(885,903,o),
(885,903,c),
(898,939,o),
(904,953,o),
(904,951,cs),
(904,982,o),
(887,1012,o),
(887,1012,c),
(887,1012,o),
(796,1037,o),
(673,1037,cs),
(640,1037,o),
(601,1035,o),
(566,1031,c),
(571,1172,o),
(602,1317,o),
(602,1317,c),
(547,1360,o),
(478,1349,o),
(478,1349,c),
(478,1349,o),
(396,1220,o),
(362,1054,c),
(230,1103,o),
(110,1173,o),
(110,1173,c),
(44,1130,o),
(37,1084,o),
(37,1084,c),
(37,1084,o),
(131,967,o),
(288,882,c),
(203,770,o),
(89,669,o),
(89,669,c),
(104,607,o),
(166,579,o),
(166,579,c)
);
}
);
width = 942;
}
);
unicode = 42;
}
{
glyphname = plus;
layers = (
{
layerId = m001;
shapes = (
{
closed = 1;
nodes = (
(856,20,l),
(856,1166,l),
(660,1166,l),
(660,20,l)
);
},
{
closed = 1;
nodes = (
(1313,510,l),
(1313,685,l),
(203,685,l),
(203,510,l)
);
}
);
width = 1535;
},
{
layerId = m002;
shapes = (
{
closed = 1;
nodes = (
(856,20,l),
(856,1166,l),
(660,1166,l),
(660,20,l)
);
},
{
closed = 1;
nodes = (
(1313,510,l),
(1313,685,l),
(203,685,l),
(203,510,l)
);
}
);
width = 1535;
},
{
layerId = m003;
shapes = (
{
closed = 1;
nodes = (
(856,20,l),
(856,1166,l),
(660,1166,l),
(660,20,l)
);
},
{
closed = 1;
nodes = (
(1313,510,l),
(1313,685,l),
(203,685,l),
(203,510,l)
);
}
);
width = 1535;
}
);
unicode = 43;
}
{
glyphname = comma;
layers = (
{
layerId = m001;
shapes = (
{
closed = 1;
nodes = (
(-23,-354,l),
(16,-405,o),
(110,-408,o),
(110,-408,c),
(110,-408,o),
(337,-141,o),
(337,139,c),
(298,189,o),
(227,200,o),
(175,200,cs),
(143,200,o),
(118,196,o),
(111,195,c),
(111,-96,o),
(-23,-339,o),
(-23,-339,c)
);
}
);
width = 432;
},
{
layerId = m002;
shapes = (
{
closed = 1;
nodes = (
(-23,-354,l),
(16,-405,o),
(110,-408,o),
(110,-408,c),
(110,-408,o),
(337,-141,o),
(337,139,c),
(298,189,o),
(227,200,o),
(175,200,cs),
(143,200,o),
(118,196,o),
(111,195,c),
(111,-96,o),
(-23,-339,o),
(-23,-339,c)
);
}
);
width = 432;
},
{
layerId = m003;
shapes = (
{
closed = 1;
nodes = (
(-23,-354,l),
(16,-405,o),
(110,-408,o),
(110,-408,c),
(110,-408,o),
(337,-141,o),
(337,139,c),
(298,189,o),
(227,200,o),
(175,200,cs),
(143,200,o),
(118,196,o),
(111,195,c),
(111,-96,o),
(-23,-339,o),
(-23,-339,c)
);
}
);
width = 432;
}
);
unicode = 44;
}
{
glyphname = hyphen;
layers = (
{
layerId = m001;
shapes = (
{
closed = 1;
nodes = (
(772,510,l),
(772,685,l),
(180,685,l),
(180,510,l)
);
}
);
width = 952;
},
{
layerId = m002;
shapes = (
{
closed = 1;
nodes = (
(772,510,l),
(772,685,l),
(180,685,l),
(180,510,l)
);
}
);
width = 952;
},
{
layerId = m003;
shapes = (
{
closed = 1;
nodes = (
(772,510,l),
(772,685,l),
(180,685,l),
(180,510,l)
);
}
);
width = 952;
}
);
unicode = 45;
}
{
glyphname = period;
layers = (
{
layerId = m001;
shapes = (
{
closed = 1;
nodes = (
(48,61,o),
(114,-1,o),
(196,-1,cs),
(278,-1,o),
(344,61,o),
(344,138,cs),
(344,214,o),
(278,275,o),
(196,275,cs),
(114,275,o),
(48,214,o),
(48,138,cs)
);
}
);
width = 392;
},
{
layerId = m002;
shapes = (
{
closed = 1;
nodes = (
(48,61,o),
(114,-1,o),
(196,-1,cs),
(278,-1,o),
(344,61,o),
(344,138,cs),
(344,214,o),
(278,275,o),
(196,275,cs),
(114,275,o),
(48,214,o),
(48,138,cs)
);
}
);
width = 392;
},
{
layerId = m003;
shapes = (
{
closed = 1;
nodes = (
(48,61,o),
(114,-1,o),
(196,-1,cs),
(278,-1,o),
(344,61,o),
(344,138,cs),
(344,214,o),
(278,275,o),
(196,275,cs),
(114,275,o),
(48,214,o),
(48,138,cs)
);
}
);
width = 392;
}
);
unicode = 46;
}
{
glyphname = zero;
layers = (
{
layerId = m001;
shapes = (
{
closed = 1;
nodes = (
(912,-20,o),
(1063,274,o),
(1063,698,cs),
(1063,1134,o),
(925,1380,o),
(576,1380,cs),
(245,1380,o),
(83,1105,o),
(83,680,cs),
(83,245,o),
(233,-20,o),
(576,-20,cs)
);
},
{
closed = 1;
nodes = (
(388,141,o),
(317,366,o),
(317,680,cs),
(317,994,o),
(389,1220,o),
(576,1220,cs),
(758,1220,o),
(828,1027,o),
(828,698,cs),
(828,394,o),
(757,141,o),
(575,141,cs)
);
}
);
width = 1146;
},
{
layerId = m002;
shapes = (
{
closed = 1;
nodes = (
(912,-20,o),
(1063,274,o),
(1063,698,cs),
(1063,1134,o),
(925,1380,o),
(576,1380,cs),
(245,1380,o),
(83,1105,o),
(83,680,cs),
(83,245,o),
(233,-20,o),
(576,-20,cs)
);
},
{
closed = 1;
nodes = (
(388,141,o),
(317,366,o),
(317,680,cs),
(317,994,o),
(389,1220,o),
(576,1220,cs),
(758,1220,o),
(828,1027,o),
(828,698,cs),
(828,394,o),
(757,141,o),
(575,141,cs)
);
}
);
width = 1146;
},
{
layerId = m003;
shapes = (
{
closed = 1;
nodes = (
(912,-20,o),
(1063,274,o),
(1063,698,cs),
(1063,1134,o),
(925,1380,o),
(576,1380,cs),
(245,1380,o),
(83,1105,o),
(83,680,cs),
(83,245,o),
(233,-20,o),
(576,-20,cs)
);
},
{
closed = 1;
nodes = (
(388,141,o),
(317,366,o),
(317,680,cs),
(317,994,o),
(389,1220,o),
(576,1220,cs),
(758,1220,o),
(828,1027,o),
(828,698,cs),
(828,394,o),
(757,141,o),
(575,141,cs)
);
}
);
width = 1146;
}
);
unicode = 48;
}
{
glyphname = one;
layers = (
{
layerId = m001;
shapes = (
{
closed = 1;
nodes = (
(515,0,l),
(515,1371,l),
(349,1371,l),
(349,1371,o),
(235,1312,o),
(85,1254,c),
(85,1254,o),
(93,1155,o),
(155,1120,c),
(173,1118,l),
(218,1130,o),
(268,1148,o),
(300,1162,c),
(300,0,l)
);
}
);
width = 717;
},
{
layerId = m002;
shapes = (
{
closed = 1;
nodes = (
(515,0,l),
(515,1371,l),
(349,1371,l),
(349,1371,o),
(235,1312,o),
(85,1254,c),
(85,1254,o),
(93,1155,o),
(155,1120,c),
(173,1118,l),
(218,1130,o),
(268,1148,o),
(300,1162,c),
(300,0,l)
);
}
);
width = 717;
},
{
layerId = m003;
shapes = (
{
closed = 1;
nodes = (
(515,0,l),
(515,1371,l),
(349,1371,l),
(349,1371,o),
(235,1312,o),
(85,1254,c),
(85,1254,o),
(93,1155,o),
(155,1120,c),
(173,1118,l),
(218,1130,o),
(268,1148,o),
(300,1162,c),
(300,0,l)
);
}
);
width = 717;
}
);
unicode = 49;
}
{
glyphname = two;
layers = (
{
layerId = m001;
shapes = (
{
closed = 1;
nodes = (
(881,0,l),
(905,41,o),
(911,94,o),
(911,134,cs),
(911,163,o),
(908,209,o),
(908,209,c),
(908,209,o),
(583,196,o),
(326,193,c),
(793,576,o),
(874,759,o),
(874,985,cs),
(874,1225,o),
(713,1380,o),
(464,1380,cs),
(246,1380,o),
(107,1275,o),
(66,1238,c),
(66,1238,o),
(85,1166,o),
(149,1068,c),
(211,1131,o),
(313,1210,o),
(434,1210,cs),
(560,1210,o),
(670,1113,o),
(670,953,cs),
(670,801,o),
(605,633,o),
(72,193,c),
(72,0,l)
);
}
);
width = 961;
},
{
layerId = m002;
shapes = (
{
closed = 1;
nodes = (
(881,0,l),
(905,41,o),
(911,94,o),
(911,134,cs),
(911,163,o),
(908,209,o),
(908,209,c),
(908,209,o),
(583,196,o),
(326,193,c),
(793,576,o),
(874,759,o),
(874,985,cs),
(874,1225,o),
(713,1380,o),
(464,1380,cs),
(246,1380,o),
(107,1275,o),
(66,1238,c),
(66,1238,o),
(85,1166,o),
(149,1068,c),
(211,1131,o),
(313,1210,o),
(434,1210,cs),
(560,1210,o),
(670,1113,o),
(670,953,cs),
(670,801,o),
(605,633,o),
(72,193,c),
(72,0,l)
);
}
);
width = 961;
},
{
layerId = m003;
shapes = (
{
closed = 1;
nodes = (
(881,0,l),
(905,41,o),
(911,94,o),
(911,134,cs),
(911,163,o),
(908,209,o),
(908,209,c),
(908,209,o),
(583,196,o),
(326,193,c),
(793,576,o),
(874,759,o),
(874,985,cs),
(874,1225,o),
(713,1380,o),
(464,1380,cs),
(246,1380,o),
(107,1275,o),
(66,1238,c),
(66,1238,o),
(85,1166,o),
(149,1068,c),
(211,1131,o),
(313,1210,o),
(434,1210,cs),
(560,1210,o),
(670,1113,o),
(670,953,cs),
(670,801,o),
(605,633,o),
(72,193,c),
(72,0,l)
);
}
);
width = 961;
}
);
unicode = 50;
}
{
glyphname = three;
layers = (
{
layerId = m001;
shapes = (
{
closed = 1;
nodes = (
(44,62,o),
(215,-20,o),
(415,-20,cs),
(724,-20,o),
(922,137,o),
(922,406,cs),
(922,566,o),
(801,682,o),
(640,720,c),
(773,765,o),
(862,877,o),
(862,1038,cs),
(862,1268,o),
(705,1380,o),
(433,1380,cs),
(244,1380,o),
(83,1297,o),
(83,1297,c),
(83,1297,o),
(92,1220,o),
(154,1130,c),
(154,1130,o),
(274,1209,o),
(414,1209,cs),
(539,1209,o),
(627,1140,o),
(627,1021,cs),
(627,885,o),
(540,796,o),
(435,796,c),
(315,796,l),
(315,796,o),
(308,759,o),
(308,725,cs),
(308,700,o),
(313,668,o),
(321,632,c),
(435,632,l),
(614,632,o),
(691,523,o),
(691,427,cs),
(691,262,o),
(571,152,o),
(412,152,cs),
(261,152,o),
(115,231,o),
(115,231,c),
(55,139,o),
(44,62,o),
(44,62,c)
);
}
);
width = 1011;
},
{
layerId = m002;
shapes = (
{
closed = 1;
nodes = (
(44,62,o),
(215,-20,o),
(415,-20,cs),
(724,-20,o),
(922,137,o),
(922,406,cs),
(922,566,o),
(801,682,o),
(640,720,c),
(773,765,o),
(862,877,o),
(862,1038,cs),
(862,1268,o),
(705,1380,o),
(433,1380,cs),
(244,1380,o),
(83,1297,o),
(83,1297,c),
(83,1297,o),
(92,1220,o),
(154,1130,c),
(154,1130,o),
(274,1209,o),
(414,1209,cs),
(539,1209,o),
(627,1140,o),
(627,1021,cs),
(627,885,o),
(540,796,o),
(435,796,c),
(315,796,l),
(315,796,o),
(308,759,o),
(308,725,cs),
(308,700,o),
(313,668,o),
(321,632,c),
(435,632,l),
(614,632,o),
(691,523,o),
(691,427,cs),
(691,262,o),
(571,152,o),
(412,152,cs),
(261,152,o),
(115,231,o),
(115,231,c),
(55,139,o),
(44,62,o),
(44,62,c)
);
}
);
width = 1011;
},
{
layerId = m003;
shapes = (
{
closed = 1;
nodes = (
(44,62,o),
(215,-20,o),
(415,-20,cs),
(724,-20,o),
(922,137,o),
(922,406,cs),
(922,566,o),
(801,682,o),
(640,720,c),
(773,765,o),
(862,877,o),
(862,1038,cs),
(862,1268,o),
(705,1380,o),
(433,1380,cs),
(244,1380,o),
(83,1297,o),
(83,1297,c),
(83,1297,o),
(92,1220,o),
(154,1130,c),
(154,1130,o),
(274,1209,o),
(414,1209,cs),
(539,1209,o),
(627,1140,o),
(627,1021,cs),
(627,885,o),
(540,796,o),
(435,796,c),
(315,796,l),
(315,796,o),
(308,759,o),
(308,725,cs),
(308,700,o),
(313,668,o),
(321,632,c),
(435,632,l),
(614,632,o),
(691,523,o),
(691,427,cs),
(691,262,o),
(571,152,o),
(412,152,cs),
(261,152,o),
(115,231,o),
(115,231,c),
(55,139,o),
(44,62,o),
(44,62,c)
);
}
);
width = 1011;
}
);
unicode = 51;
}
{
glyphname = four;
layers = (
{
layerId = m001;
shapes = (
{
closed = 1;
nodes = (
(643,366,l),
(643,0,l),
(869,0,l),
(869,366,l),
(1009,366,l),
(1033,412,o),
(1038,447,o),
(1038,476,cs),
(1038,494,o),
(1034,520,o),
(1034,520,c),
(869,520,l),
(869,865,l),
(869,865,o),
(737,862,o),
(643,792,c),
(643,520,l),
(224,520,l),
(323,648,ls),
(508,983,o),
(709,1325,o),
(709,1325,c),
(708,1340,l),
(667,1390,o),
(497,1426,o),
(497,1426,c),
(28,522,l),
(28,522,o),
(36,431,o),
(92,366,c)
);
}
);
width = 1102;
},
{
layerId = m002;
shapes = (
{
closed = 1;
nodes = (
(643,366,l),
(643,0,l),
(869,0,l),
(869,366,l),
(1009,366,l),
(1033,412,o),
(1038,447,o),
(1038,476,cs),
(1038,494,o),
(1034,520,o),
(1034,520,c),
(869,520,l),
(869,865,l),
(869,865,o),
(737,862,o),
(643,792,c),
(643,520,l),
(224,520,l),
(323,648,ls),
(508,983,o),
(709,1325,o),
(709,1325,c),
(708,1340,l),
(667,1390,o),
(497,1426,o),
(497,1426,c),
(28,522,l),
(28,522,o),
(36,431,o),
(92,366,c)
);
}
);
width = 1102;
},
{
layerId = m003;
shapes = (
{
closed = 1;
nodes = (
(643,366,l),
(643,0,l),
(869,0,l),
(869,366,l),
(1009,366,l),
(1033,412,o),
(1038,447,o),
(1038,476,cs),
(1038,494,o),
(1034,520,o),
(1034,520,c),
(869,520,l),
(869,865,l),
(869,865,o),
(737,862,o),
(643,792,c),
(643,520,l),
(224,520,l),
(323,648,ls),
(508,983,o),
(709,1325,o),
(709,1325,c),
(708,1340,l),
(667,1390,o),
(497,1426,o),
(497,1426,c),
(28,522,l),
(28,522,o),
(36,431,o),
(92,366,c)
);
}
);
width = 1102;
}
);
unicode = 52;
}
{
glyphname = five;
layers = (
{
layerId = m001;
shapes = (
{
closed = 1;
nodes = (
(67,62,o),
(225,-20,o),
(415,-20,cs),
(730,-20,o),
(914,163,o),
(914,448,cs),
(914,680,o),
(754,828,o),
(501,828,cs),
(453,828,o),
(398,823,o),
(348,803,c),
(373,1175,l),
(616,1175,o),
(833,1164,o),
(833,1164,c),
(865,1223,o),
(871,1280,o),
(871,1310,cs),
(871,1337,o),
(868,1360,o),
(868,1360,c),
(179,1360,l),
(167,1107,o),
(141,741,o),
(141,741,c),
(141,741,o),
(159,686,o),
(220,631,c),
(220,631,o),
(314,680,o),
(420,680,cs),
(594,680,o),
(688,600,o),
(688,428,cs),
(688,296,o),
(621,152,o),
(385,152,cs),
(249,152,o),
(138,232,o),
(138,232,c),
(77,138,o),
(67,62,o),
(67,62,c)
);
}
);
width = 993;
},
{
layerId = m002;
shapes = (
{
closed = 1;
nodes = (
(67,62,o),
(225,-20,o),
(415,-20,cs),
(730,-20,o),
(914,163,o),
(914,448,cs),
(914,680,o),
(754,828,o),
(501,828,cs),
(453,828,o),
(398,823,o),
(348,803,c),
(373,1175,l),
(616,1175,o),
(833,1164,o),
(833,1164,c),
(865,1223,o),
(871,1280,o),
(871,1310,cs),
(871,1337,o),
(868,1360,o),
(868,1360,c),
(179,1360,l),
(167,1107,o),
(141,741,o),
(141,741,c),
(141,741,o),
(159,686,o),
(220,631,c),
(220,631,o),
(314,680,o),
(420,680,cs),
(594,680,o),
(688,600,o),
(688,428,cs),
(688,296,o),
(621,152,o),
(385,152,cs),
(249,152,o),
(138,232,o),
(138,232,c),
(77,138,o),
(67,62,o),
(67,62,c)
);
}
);
width = 993;
},
{
layerId = m003;
shapes = (
{
closed = 1;
nodes = (
(67,62,o),
(225,-20,o),
(415,-20,cs),
(730,-20,o),
(914,163,o),
(914,448,cs),
(914,680,o),
(754,828,o),
(501,828,cs),
(453,828,o),
(398,823,o),
(348,803,c),
(373,1175,l),
(616,1175,o),
(833,1164,o),
(833,1164,c),
(865,1223,o),
(871,1280,o),
(871,1310,cs),
(871,1337,o),
(868,1360,o),
(868,1360,c),
(179,1360,l),
(167,1107,o),
(141,741,o),
(141,741,c),
(141,741,o),
(159,686,o),
(220,631,c),
(220,631,o),
(314,680,o),
(420,680,cs),
(594,680,o),
(688,600,o),
(688,428,cs),
(688,296,o),
(621,152,o),
(385,152,cs),
(249,152,o),
(138,232,o),
(138,232,c),
(77,138,o),
(67,62,o),
(67,62,c)
);
}
);
width = 993;
}
);
unicode = 53;
}
{
glyphname = six;
layers = (
{
layerId = m001;
shapes = (
{
closed = 1;
nodes = (
(144,269,o),
(239,-10,o),
(598,-10,cs),
(869,-10,o),
(1054,159,o),
(1054,440,cs),
(1054,751,o),
(888,883,o),
(663,883,cs),
(526,883,o),
(404,834,o),
(365,805,c),
(376,1004,o),
(453,1199,o),
(669,1199,cs),
(820,1199,o),
(906,1146,o),
(906,1146,c),
(983,1249,o),
(981,1317,o),
(981,1317,c),
(981,1317,o),
(873,1380,o),
(669,1380,cs),
(338,1380,o),
(144,1126,o),
(144,613,c)
);
},
{
closed = 1;
nodes = (
(415,688,o),
(510,720,o),
(599,720,cs),
(739,720,o),
(829,628,o),
(829,450,cs),
(829,292,o),
(761,164,o),
(594,164,cs),
(385,164,o),
(352,487,o),
(365,638,c)
);
}
);
width = 1169;
},
{
layerId = m002;
shapes = (
{
closed = 1;
nodes = (
(144,269,o),
(239,-10,o),
(598,-10,cs),
(869,-10,o),
(1054,159,o),
(1054,440,cs),
(1054,751,o),
(888,883,o),
(663,883,cs),
(526,883,o),
(404,834,o),
(365,805,c),
(376,1004,o),
(453,1199,o),
(669,1199,cs),
(820,1199,o),
(906,1146,o),
(906,1146,c),
(983,1249,o),
(981,1317,o),
(981,1317,c),
(981,1317,o),
(873,1380,o),
(669,1380,cs),
(338,1380,o),
(144,1126,o),
(144,613,c)
);
},
{
closed = 1;
nodes = (
(415,688,o),
(510,720,o),
(599,720,cs),
(739,720,o),
(829,628,o),
(829,450,cs),
(829,292,o),
(761,164,o),
(594,164,cs),
(385,164,o),
(352,487,o),
(365,638,c)
);
}
);
width = 1169;
},
{
layerId = m003;
shapes = (
{
closed = 1;
nodes = (
(144,269,o),
(239,-10,o),
(598,-10,cs),
(869,-10,o),
(1054,159,o),
(1054,440,cs),
(1054,751,o),
(888,883,o),
(663,883,cs),
(526,883,o),
(404,834,o),
(365,805,c),
(376,1004,o),
(453,1199,o),
(669,1199,cs),
(820,1199,o),
(906,1146,o),
(906,1146,c),
(983,1249,o),
(981,1317,o),
(981,1317,c),
(981,1317,o),
(873,1380,o),
(669,1380,cs),
(338,1380,o),
(144,1126,o),
(144,613,c)
);
},
{
closed = 1;
nodes = (
(415,688,o),
(510,720,o),
(599,720,cs),
(739,720,o),
(829,628,o),
(829,450,cs),
(829,292,o),
(761,164,o),
(594,164,cs),
(385,164,o),
(352,487,o),
(365,638,c)
);
}
);
width = 1169;
}
);
unicode = 54;
}
{
glyphname = seven;
layers = (
{
layerId = m001;
shapes = (
{
closed = 1;
nodes = (
(210,44,o),
(308,-22,o),
(422,-26,c),
(446,-18,l),
(659,574,o),
(824,1037,o),
(950,1283,c),
(911,1358,l),
(102,1358,l),
(102,1358,o),
(96,1298,o),
(96,1265,cs),
(96,1229,o),
(102,1182,o),
(128,1145,c),
(128,1145,o),
(403,1151,o),
(704,1153,c),
(704,1153,o),
(485,645,o),
(210,44,c)
);
}
);
width = 985;
},
{
layerId = m002;
shapes = (
{
closed = 1;
nodes = (
(210,44,o),
(308,-22,o),
(422,-26,c),
(446,-18,l),
(659,574,o),
(824,1037,o),
(950,1283,c),
(911,1358,l),
(102,1358,l),
(102,1358,o),
(96,1298,o),
(96,1265,cs),
(96,1229,o),
(102,1182,o),
(128,1145,c),
(128,1145,o),
(403,1151,o),
(704,1153,c),
(704,1153,o),
(485,645,o),
(210,44,c)
);
}
);
width = 985;
},
{
layerId = m003;
shapes = (
{
closed = 1;
nodes = (
(210,44,o),
(308,-22,o),
(422,-26,c),
(446,-18,l),
(659,574,o),
(824,1037,o),
(950,1283,c),
(911,1358,l),
(102,1358,l),
(102,1358,o),
(96,1298,o),
(96,1265,cs),
(96,1229,o),
(102,1182,o),
(128,1145,c),
(128,1145,o),
(403,1151,o),
(704,1153,c),
(704,1153,o),
(485,645,o),
(210,44,c)
);
}
);
width = 985;
}
);
unicode = 55;
}
{
glyphname = eight;
layers = (
{
layerId = m001;
shapes = (
{
closed = 1;
nodes = (
(108,132,o),
(303,-20,o),
(580,-20,cs),
(844,-20,o),
(1048,128,o),
(1048,367,cs),
(1048,538,o),
(938,668,o),
(794,710,c),
(921,755,o),
(1002,872,o),
(1002,1012,cs),
(1002,1229,o),
(830,1380,o),
(580,1380,cs),
(315,1380,o),
(154,1229,o),
(154,1012,cs),
(154,862,o),
(233,757,o),
(358,708,c),
(216,665,o),
(108,522,o),
(108,367,cs)
);
},
{
closed = 1;
nodes = (
(341,496,o),
(406,625,o),
(580,625,cs),
(738,625,o),
(815,486,o),
(815,369,cs),
(815,226,o),
(696,134,o),
(580,134,cs),
(455,134,o),
(341,226,o),
(341,369,cs)
);
},
{
closed = 1;
nodes = (
(459,782,o),
(379,864,o),
(379,1003,cs),
(379,1142,o),
(461,1226,o),
(580,1226,cs),
(682,1226,o),
(778,1148,o),
(778,1003,cs),
(778,858,o),
(682,782,o),
(580,782,cs)
);
}
);
userData = {
com.typemytype.robofont.guides = (
{
angle = 90;
isGlobal = 0;
magnetic = 5;
x = 636;
y = 0;
}
);
};
width = 1157;
},
{
layerId = m002;
shapes = (
{
closed = 1;
nodes = (
(108,132,o),
(303,-20,o),
(580,-20,cs),
(844,-20,o),
(1048,128,o),
(1048,367,cs),
(1048,538,o),
(938,668,o),
(794,710,c),
(921,755,o),
(1002,872,o),
(1002,1012,cs),
(1002,1229,o),
(830,1380,o),
(580,1380,cs),
(315,1380,o),
(154,1229,o),
(154,1012,cs),
(154,862,o),
(233,757,o),
(358,708,c),
(216,665,o),
(108,522,o),
(108,367,cs)
);
},
{
closed = 1;
nodes = (
(341,496,o),
(406,625,o),
(580,625,cs),
(738,625,o),
(815,486,o),
(815,369,cs),
(815,226,o),
(696,134,o),
(580,134,cs),
(455,134,o),
(341,226,o),
(341,369,cs)
);
},
{
closed = 1;
nodes = (
(459,782,o),
(379,864,o),
(379,1003,cs),
(379,1142,o),
(461,1226,o),
(580,1226,cs),
(682,1226,o),
(778,1148,o),
(778,1003,cs),
(778,858,o),
(682,782,o),
(580,782,cs)
);
}
);
userData = {
com.typemytype.robofont.guides = (
{
angle = 90;
isGlobal = 0;
magnetic = 5;
x = 636;
y = 0;
}
);
};
width = 1157;
},
{
layerId = m003;
shapes = (
{
closed = 1;
nodes = (
(108,132,o),
(303,-20,o),
(580,-20,cs),
(844,-20,o),
(1048,128,o),
(1048,367,cs),
(1048,538,o),
(938,668,o),
(794,710,c),
(921,755,o),
(1002,872,o),
(1002,1012,cs),
(1002,1229,o),
(830,1380,o),
(580,1380,cs),
(315,1380,o),
(154,1229,o),
(154,1012,cs),
(154,862,o),
(233,757,o),
(358,708,c),
(216,665,o),
(108,522,o),
(108,367,cs)
);
},
{
closed = 1;
nodes = (
(341,496,o),
(406,625,o),
(580,625,cs),
(738,625,o),
(815,486,o),
(815,369,cs),
(815,226,o),
(696,134,o),
(580,134,cs),
(455,134,o),
(341,226,o),
(341,369,cs)
);
},
{
closed = 1;
nodes = (
(459,782,o),
(379,864,o),
(379,1003,cs),
(379,1142,o),
(461,1226,o),
(580,1226,cs),
(682,1226,o),
(778,1148,o),
(778,1003,cs),
(778,858,o),
(682,782,o),
(580,782,cs)
);
}
);
userData = {
com.typemytype.robofont.guides = (
{
angle = 90;
isGlobal = 0;
magnetic = 5;
x = 636;
y = 0;
}
);
};
width = 1157;
}
);
unicode = 56;
}
{
glyphname = nine;
layers = (
{
layerId = m001;
shapes = (
{
closed = 1;
nodes = (
(1036,1111,o),
(941,1380,o),
(582,1380,cs),
(323,1380,o),
(146,1211,o),
(146,930,cs),
(146,619,o),
(308,487,o),
(527,487,cs),
(659,487,o),
(770,548,o),
(808,585,c),
(797,376,o),
(738,171,o),
(501,171,cs),
(356,171,o),
(254,234,o),
(254,234,c),
(196,156,o),
(199,53,o),
(199,53,c),
(199,53,o),
(304,-10,o),
(501,-10,cs),
(853,-10,o),
(1036,254,o),
(1036,767,c)
);
},
{
closed = 1;
nodes = (
(811,862,o),
(812,802,o),
(808,751,c),
(760,701,o),
(676,650,o),
(591,650,cs),
(457,650,o),
(371,742,o),
(371,920,cs),
(371,1078,o),
(433,1206,o),
(586,1206,cs),
(742,1206,o),
(793,1069,o),
(806,930,c)
);
}
);
width = 1161;
},
{
layerId = m002;
shapes = (
{
closed = 1;
nodes = (
(1036,1111,o),
(941,1380,o),
(582,1380,cs),
(323,1380,o),
(146,1211,o),
(146,930,cs),
(146,619,o),
(308,487,o),
(527,487,cs),
(659,487,o),
(770,548,o),
(808,585,c),
(797,376,o),
(738,171,o),
(501,171,cs),
(356,171,o),
(254,234,o),
(254,234,c),
(196,156,o),
(199,53,o),
(199,53,c),
(199,53,o),
(304,-10,o),
(501,-10,cs),
(853,-10,o),
(1036,254,o),
(1036,767,c)
);
},
{
closed = 1;
nodes = (
(811,862,o),
(812,802,o),
(808,751,c),
(760,701,o),
(676,650,o),
(591,650,cs),
(457,650,o),
(371,742,o),
(371,920,cs),
(371,1078,o),
(433,1206,o),
(586,1206,cs),
(742,1206,o),
(793,1069,o),
(806,930,c)
);
}
);
width = 1161;
},
{
layerId = m003;
shapes = (
{
closed = 1;
nodes = (
(1036,1111,o),
(941,1380,o),
(582,1380,cs),
(323,1380,o),
(146,1211,o),
(146,930,cs),
(146,619,o),
(308,487,o),
(527,487,cs),
(659,487,o),
(770,548,o),
(808,585,c),
(797,376,o),
(738,171,o),
(501,171,cs),
(356,171,o),
(254,234,o),
(254,234,c),
(196,156,o),
(199,53,o),
(199,53,c),
(199,53,o),
(304,-10,o),
(501,-10,cs),
(853,-10,o),
(1036,254,o),
(1036,767,c)
);
},
{
closed = 1;
nodes = (
(811,862,o),
(812,802,o),
(808,751,c),
(760,701,o),
(676,650,o),
(591,650,cs),
(457,650,o),
(371,742,o),
(371,920,cs),
(371,1078,o),
(433,1206,o),
(586,1206,cs),
(742,1206,o),
(793,1069,o),
(806,930,c)
);
}
);
width = 1161;
}
);
unicode = 57;
}
{
glyphname = less;
layers = (
{
layerId = m001;
shapes = (
{
closed = 1;
nodes = (
(1090,52,l),
(1163,211,l),
(533,564,l),
(468,585,l),
(530,604,l),
(1163,959,l),
(1090,1118,l),
(215,653,l),
(215,518,l)
);
}
);
width = 1435;
},
{
layerId = m002;
shapes = (
{
closed = 1;
nodes = (
(1090,52,l),
(1163,211,l),
(533,564,l),
(468,585,l),
(530,604,l),
(1163,959,l),
(1090,1118,l),
(215,653,l),
(215,518,l)
);
}
);
width = 1435;
},
{
layerId = m003;
shapes = (
{
closed = 1;
nodes = (
(1090,52,l),
(1163,211,l),
(533,564,l),
(468,585,l),
(530,604,l),
(1163,959,l),
(1090,1118,l),
(215,653,l),
(215,518,l)
);
}
);
width = 1435;
}
);
unicode = 60;
}
{
glyphname = equal;
layers = (
{
layerId = m001;
shapes = (
{
closed = 1;
nodes = (
(1109,341,l),
(1109,515,l),
(235,515,l),
(235,341,l)
);
},
{
closed = 1;
nodes = (
(1109,846,l),
(1109,1020,l),
(235,1020,l),
(235,846,l)
);
}
);
width = 1362;
},
{
layerId = m002;
shapes = (
{
closed = 1;
nodes = (
(1109,341,l),
(1109,515,l),
(235,515,l),
(235,341,l)
);
},
{
closed = 1;
nodes = (
(1109,846,l),
(1109,1020,l),
(235,1020,l),
(235,846,l)
);
}
);
width = 1362;
},
{
layerId = m003;
shapes = (
{
closed = 1;
nodes = (
(1109,341,l),
(1109,515,l),
(235,515,l),
(235,341,l)
);
},
{
closed = 1;
nodes = (
(1109,846,l),
(1109,1020,l),
(235,1020,l),
(235,846,l)
);
}
);
width = 1362;
}
);
unicode = 61;
}
{
glyphname = question;
layers = (
{
layerId = m001;
shapes = (
{
closed = 1;
nodes = (
(289,405,l),
(309,400,o),
(334,397,o),
(359,397,cs),
(384,397,o),
(401,401,o),
(433,409,c),
(433,607,o),
(440,662,o),
(532,711,cs),
(672,785,o),
(811,895,o),
(811,1077,cs),
(811,1289,o),
(634,1406,o),
(391,1406,cs),
(156,1406,o),
(36,1294,o),
(36,1294,c),
(36,1294,o),
(38,1230,o),
(104,1134,c),
(104,1134,o),
(214,1231,o),
(361,1231,cs),
(497,1231,o),
(580,1179,o),
(580,1047,cs),
(580,971,o),
(528,899,o),
(413,844,cs),
(309,794,o),
(265,741,o),
(265,621,cs),
(265,591,o),
(267,455,o),
(271,416,c)
);
},
{
closed = 1;
nodes = (
(206,61,o),
(272,-1,o),
(354,-1,cs),
(436,-1,o),
(502,61,o),
(502,138,cs),
(502,214,o),
(436,275,o),
(354,275,cs),
(272,275,o),
(206,214,o),
(206,138,cs)
);
}
);
width = 851;
},
{
layerId = m002;
shapes = (
{
closed = 1;
nodes = (
(289,405,l),
(309,400,o),
(334,397,o),
(359,397,cs),
(384,397,o),
(401,401,o),
(433,409,c),
(433,607,o),
(440,662,o),
(532,711,cs),
(672,785,o),
(811,895,o),
(811,1077,cs),
(811,1289,o),
(634,1406,o),
(391,1406,cs),
(156,1406,o),
(36,1294,o),
(36,1294,c),
(36,1294,o),
(38,1230,o),
(104,1134,c),
(104,1134,o),
(214,1231,o),
(361,1231,cs),
(497,1231,o),
(580,1179,o),
(580,1047,cs),
(580,971,o),
(528,899,o),
(413,844,cs),
(309,794,o),
(265,741,o),
(265,621,cs),
(265,591,o),
(267,455,o),
(271,416,c)
);
},
{
closed = 1;
nodes = (
(206,61,o),
(272,-1,o),
(354,-1,cs),
(436,-1,o),
(502,61,o),
(502,138,cs),
(502,214,o),
(436,275,o),
(354,275,cs),
(272,275,o),
(206,214,o),
(206,138,cs)
);
}
);
width = 851;
},
{
layerId = m003;
shapes = (
{
closed = 1;
nodes = (
(289,405,l),
(309,400,o),
(334,397,o),
(359,397,cs),
(384,397,o),
(401,401,o),
(433,409,c),
(433,607,o),
(440,662,o),
(532,711,cs),
(672,785,o),
(811,895,o),
(811,1077,cs),
(811,1289,o),
(634,1406,o),
(391,1406,cs),
(156,1406,o),
(36,1294,o),
(36,1294,c),
(36,1294,o),
(38,1230,o),
(104,1134,c),
(104,1134,o),
(214,1231,o),
(361,1231,cs),
(497,1231,o),
(580,1179,o),
(580,1047,cs),
(580,971,o),
(528,899,o),
(413,844,cs),
(309,794,o),
(265,741,o),
(265,621,cs),
(265,591,o),
(267,455,o),
(271,416,c)
);
},
{
closed = 1;
nodes = (
(206,61,o),
(272,-1,o),
(354,-1,cs),
(436,-1,o),
(502,61,o),
(502,138,cs),
(502,214,o),
(436,275,o),
(354,275,cs),
(272,275,o),
(206,214,o),
(206,138,cs)
);
}
);
width = 851;
}
);
unicode = 63;
}
{
glyphname = at;
layers = (
{
layerId = m001;
shapes = (
{
closed = 1;
nodes = (
(60,33,o),
(351,-230,o),
(867,-230,cs),
(1051,-230,o),
(1205,-156,o),
(1205,-156,c),
(1195,-103,o),
(1157,-48,o),
(1157,-48,c),
(1157,-48,o),
(1045,-93,o),
(889,-93,cs),
(495,-93,o),
(236,125,o),
(236,506,cs),
(236,958,o),
(553,1257,o),
(1007,1257,cs),
(1349,1257,o),
(1613,1093,o),
(1613,750,cs),
(1613,392,o),
(1421,245,o),
(1272,245,cs),
(1191,245,o),
(1182,275,o),
(1201,433,cs),
(1273,1034,l),
(1070,1034,l),
(1067,1010,l),
(1067,1010,o),
(996,1034,o),
(937,1034,cs),
(728,1034,o),
(495,803,o),
(495,483,cs),
(495,254,o),
(619,144,o),
(769,144,cs),
(891,144,o),
(981,239,o),
(1020,298,c),
(1021,198,o),
(1062,129,o),
(1225,129,cs),
(1537,129,o),
(1786,409,o),
(1786,773,cs),
(1786,1195,o),
(1444,1385,o),
(1019,1385,cs),
(597,1385,o),
(60,1106,o),
(60,437,cs)
);
},
{
closed = 1;
nodes = (
(708,718,o),
(809,920,o),
(968,920,cs),
(1016,920,o),
(1037,905,o),
(1054,900,c),
(1003,408,l),
(1003,408,o),
(955,288,o),
(843,288,cs),
(753,288,o),
(708,360,o),
(708,505,cs)
);
}
);
width = 1853;
},
{
layerId = m002;
shapes = (
{
closed = 1;
nodes = (
(60,33,o),
(351,-230,o),
(867,-230,cs),
(1051,-230,o),
(1205,-156,o),
(1205,-156,c),
(1195,-103,o),
(1157,-48,o),
(1157,-48,c),
(1157,-48,o),
(1045,-93,o),
(889,-93,cs),
(495,-93,o),
(236,125,o),
(236,506,cs),
(236,958,o),
(553,1257,o),
(1007,1257,cs),
(1349,1257,o),
(1613,1093,o),
(1613,750,cs),
(1613,392,o),
(1421,245,o),
(1272,245,cs),
(1191,245,o),
(1182,275,o),
(1201,433,cs),
(1273,1034,l),
(1070,1034,l),
(1067,1010,l),
(1067,1010,o),
(996,1034,o),
(937,1034,cs),
(728,1034,o),
(495,803,o),
(495,483,cs),
(495,254,o),
(619,144,o),
(769,144,cs),
(891,144,o),
(981,239,o),
(1020,298,c),
(1021,198,o),
(1062,129,o),
(1225,129,cs),
(1537,129,o),
(1786,409,o),
(1786,773,cs),
(1786,1195,o),
(1444,1385,o),
(1019,1385,cs),
(597,1385,o),
(60,1106,o),
(60,437,cs)
);
},
{
closed = 1;
nodes = (
(708,718,o),
(809,920,o),
(968,920,cs),
(1016,920,o),
(1037,905,o),
(1054,900,c),
(1003,408,l),
(1003,408,o),
(955,288,o),
(843,288,cs),
(753,288,o),
(708,360,o),
(708,505,cs)
);
}
);
width = 1853;
},
{
layerId = m003;
shapes = (
{
closed = 1;
nodes = (
(60,33,o),
(351,-230,o),
(867,-230,cs),
(1051,-230,o),
(1205,-156,o),
(1205,-156,c),
(1195,-103,o),
(1157,-48,o),
(1157,-48,c),
(1157,-48,o),
(1045,-93,o),
(889,-93,cs),
(495,-93,o),
(236,125,o),
(236,506,cs),
(236,958,o),
(553,1257,o),
(1007,1257,cs),
(1349,1257,o),
(1613,1093,o),
(1613,750,cs),
(1613,392,o),
(1421,245,o),
(1272,245,cs),
(1191,245,o),
(1182,275,o),
(1201,433,cs),
(1273,1034,l),
(1070,1034,l),
(1067,1010,l),
(1067,1010,o),
(996,1034,o),
(937,1034,cs),
(728,1034,o),
(495,803,o),
(495,483,cs),
(495,254,o),
(619,144,o),
(769,144,cs),
(891,144,o),
(981,239,o),
(1020,298,c),
(1021,198,o),
(1062,129,o),
(1225,129,cs),
(1537,129,o),
(1786,409,o),
(1786,773,cs),
(1786,1195,o),
(1444,1385,o),
(1019,1385,cs),
(597,1385,o),
(60,1106,o),
(60,437,cs)
);
},
{
closed = 1;
nodes = (
(708,718,o),
(809,920,o),
(968,920,cs),
(1016,920,o),
(1037,905,o),
(1054,900,c),
(1003,408,l),
(1003,408,o),
(955,288,o),
(843,288,cs),
(753,288,o),
(708,360,o),
(708,505,cs)
);
}
);
width = 1853;
}
);
unicode = 64;
}
{
glyphname = A;
layers = (
{
anchors = (
{
name = btm;
pos = (566,-157);
},
{
name = og;
pos = (1117,-157);
},
{
name = top;
pos = (566,1713);
}
);
background = {
shapes = (
{
closed = 1;
nodes = (
(223,0,l),
(341,415,l),
(780,415,l),
(904,0,l),
(1131,0,l),
(725,1358,l),
(384,1358,l),
(-10,0,l)
);
},
{
closed = 1;
nodes = (
(550,1255,l),
(733,589,l),
(385,589,l)
);
}
);
};
layerId = m001;
shapes = (
{
closed = 1;
nodes = (
(121,0,l),
(279,485,l),
(830,485,l),
(991,0,l),
(1016,0,l),
(565,1358,l),
(537,1358,l),
(96,0,l)
);
},
{
closed = 1;
nodes = (
(551,1325,l),
(823,507,l),
(286,507,l)
);
}
);
width = 1121;
},
{
anchors = (
{
name = btm;
pos = (566,-157);
},
{
name = og;
pos = (1117,-157);
},
{
name = top;
pos = (566,1713);
}
);
layerId = m002;
shapes = (
{
closed = 1;
nodes = (
(223,0,l),
(341,415,l),
(780,415,l),
(904,0,l),
(1131,0,l),
(725,1358,l),
(384,1358,l),
(-10,0,l)
);
},
{
closed = 1;
nodes = (
(550,1255,l),
(733,589,l),
(385,589,l)
);
}
);
width = 1121;
},
{
anchors = (
{
name = btm;
pos = (641,-157);
},
{
name = og;
pos = (1192,-157);
},
{
name = top;
pos = (641,1713);
}
);
background = {
shapes = (
{
closed = 1;
nodes = (
(298,0,l),
(416,415,l),
(855,415,l),
(979,0,l),
(1206,0,l),
(800,1358,l),
(459,1358,l),
(65,0,l)
);
},
{
closed = 1;
nodes = (
(625,1255,l),
(808,589,l),
(460,589,l)
);
}
);
};
layerId = m003;
shapes = (
{
closed = 1;
nodes = (
(388,0,l),
(471,335,l),
(796,335,l),
(884,0,l),
(1281,0,l),
(859,1358,l),
(400,1358,l),
(-10,0,l)
);
},
{
closed = 1;
nodes = (
(625,1045,l),
(721,649,l),
(526,649,l)
);
}
);
width = 1271;
}
);
unicode = 65;
}
{
glyphname = B;
layers = (
{
anchors = (
{
name = btm;
pos = (631,-157);
},
{
name = top;
pos = (592,1713);
}
);
layerId = m001;
shapes = (
{
closed = 1;
nodes = (
(632,0,l),
(928,0,o),
(1082,148,o),
(1082,400,cs),
(1082,585,o),
(949,710,o),
(830,730,c),
(944,770,o),
(1033,895,o),
(1033,1014,cs),
(1033,1242,o),
(870,1358,o),
(658,1358,c),
(158,1358,l),
(158,0,l)
);
},
{
closed = 1;
nodes = (
(385,619,l),
(624,619,l),
(752,619,o),
(851,564,o),
(851,396,cs),
(851,230,o),
(754,170,o),
(608,170,c),
(385,170,l)
);
},
{
closed = 1;
nodes = (
(385,1190,l),
(614,1190,l),
(730,1190,o),
(802,1123,o),
(802,1010,cs),
(802,878,o),
(760,798,o),
(667,770,c),
(385,770,l)
);
}
);
width = 1172;
},
{
anchors = (
{
name = btm;
pos = (631,-157);
},
{
name = top;
pos = (592,1713);
}
);
layerId = m002;
shapes = (
{
closed = 1;
nodes = (
(632,0,l),
(928,0,o),
(1082,148,o),
(1082,400,cs),
(1082,585,o),
(949,710,o),
(830,730,c),
(944,770,o),
(1033,895,o),
(1033,1014,cs),
(1033,1242,o),
(870,1358,o),
(658,1358,c),
(158,1358,l),
(158,0,l)
);
},
{
closed = 1;
nodes = (
(385,619,l),
(624,619,l),
(752,619,o),
(851,564,o),
(851,396,cs),
(851,230,o),
(754,170,o),
(608,170,c),
(385,170,l)
);
},
{
closed = 1;
nodes = (
(385,1190,l),
(614,1190,l),
(730,1190,o),
(802,1123,o),
(802,1010,cs),
(802,878,o),
(760,798,o),
(667,770,c),
(385,770,l)
);
}
);
width = 1172;
},
{
anchors = (
{
name = btm;
pos = (631,-157);
},
{
name = top;
pos = (592,1713);
}
);
layerId = m003;
shapes = (
{
closed = 1;
nodes = (
(632,0,l),
(928,0,o),
(1082,148,o),
(1082,400,cs),
(1082,585,o),
(949,710,o),
(830,730,c),
(944,770,o),
(1033,895,o),
(1033,1014,cs),
(1033,1242,o),
(870,1358,o),
(658,1358,c),
(158,1358,l),
(158,0,l)
);
},
{
closed = 1;
nodes = (
(385,619,l),
(624,619,l),
(752,619,o),
(851,564,o),
(851,396,cs),
(851,230,o),
(754,170,o),
(608,170,c),
(385,170,l)
);
},
{
closed = 1;
nodes = (
(385,1190,l),
(614,1190,l),
(730,1190,o),
(802,1123,o),
(802,1010,cs),
(802,878,o),
(760,798,o),
(667,770,c),
(385,770,l)
);
}
);
width = 1172;
}
);
unicode = 66;
}
{
glyphname = C;
layers = (
{
anchors = (
{
name = btm;
pos = (674,-157);
},
{
name = top;
pos = (668,1713);
}
);
layerId = m001;
shapes = (
{
closed = 1;
nodes = (
(51,211,o),
(260,-26,o),
(663,-26,cs),
(820,-26,o),
(980,28,o),
(980,28,c),
(984,138,o),
(945,212,o),
(945,212,c),
(945,212,o),
(812,159,o),
(663,159,cs),
(426,159,o),
(276,333,o),
(276,667,cs),
(276,1002,o),
(426,1200,o),
(663,1200,cs),
(810,1200,o),
(935,1148,o),
(935,1148,c),
(981,1242,o),
(987,1329,o),
(987,1329,c),
(987,1329,o),
(819,1384,o),
(663,1384,cs),
(268,1384,o),
(51,1123,o),
(51,667,cs)
);
}
);
width = 1069;
},
{
anchors = (
{
name = btm;
pos = (674,-157);
},
{
name = top;
pos = (668,1713);
}
);
layerId = m002;
shapes = (
{
closed = 1;
nodes = (
(51,211,o),
(260,-26,o),
(663,-26,cs),
(820,-26,o),
(980,28,o),
(980,28,c),
(984,138,o),
(945,212,o),
(945,212,c),
(945,212,o),
(812,159,o),
(663,159,cs),
(426,159,o),
(276,333,o),
(276,667,cs),
(276,1002,o),
(426,1200,o),
(663,1200,cs),
(810,1200,o),
(935,1148,o),
(935,1148,c),
(981,1242,o),
(987,1329,o),
(987,1329,c),
(987,1329,o),
(819,1384,o),
(663,1384,cs),
(268,1384,o),
(51,1123,o),
(51,667,cs)
);
}
);
width = 1069;
},
{
anchors = (
{
name = btm;
pos = (674,-157);
},
{
name = top;
pos = (668,1713);
}
);
layerId = m003;
shapes = (
{
closed = 1;
nodes = (
(51,211,o),
(260,-26,o),
(663,-26,cs),
(820,-26,o),
(980,28,o),
(980,28,c),
(984,138,o),
(945,212,o),
(945,212,c),
(945,212,o),
(812,159,o),
(663,159,cs),
(426,159,o),
(276,333,o),
(276,667,cs),
(276,1002,o),
(426,1200,o),
(663,1200,cs),
(810,1200,o),
(935,1148,o),
(935,1148,c),
(981,1242,o),
(987,1329,o),
(987,1329,c),
(987,1329,o),
(819,1384,o),
(663,1384,cs),
(268,1384,o),
(51,1123,o),
(51,667,cs)
);
}
);
width = 1069;
}
);
unicode = 67;
}
{
glyphname = D;
layers = (
{
anchors = (
{
name = btm;
pos = (687,-157);
},
{
name = top;
pos = (664,1713);
}
);
background = {
shapes = (
{
closed = 1;
nodes = (
(543,0,ls),
(950,0,o),
(1203,236,o),
(1203,692,cs),
(1203,1148,o),
(972,1368,o),
(557,1368,cs),
(327,1368,o),
(158,1357,o),
(158,1357,c),
(158,0,l)
);
},
{
closed = 1;
nodes = (
(384,1188,l),
(384,1188,o),
(441,1194,o),
(577,1194,cs),
(824,1194,o),
(972,1021,o),
(972,688,cs),
(972,400,o),
(824,175,o),
(577,175,cs),
(384,175,l)
);
}
);
};
layerId = m001;
shapes = (
{
closed = 1;
nodes = (
(543,0,ls),
(910,0,o),
(1163,236,o),
(1163,692,cs),
(1163,1148,o),
(932,1368,o),
(557,1368,cs),
(327,1368,o),
(228,1357,o),
(228,1357,c),
(228,0,l)
);
},
{
closed = 1;
nodes = (
(254,1338,l),
(254,1338,o),
(494,1346,o),
(557,1346,cs),
(945,1346,o),
(1136,1116,o),
(1136,689,cs),
(1136,320,o),
(945,24,o),
(539,24,cs),
(254,24,l)
);
}
);
width = 1255;
},
{
anchors = (
{
name = btm;
pos = (687,-157);
},
{
name = top;
pos = (664,1713);
}
);
layerId = m002;
shapes = (
{
closed = 1;
nodes = (
(543,0,ls),
(950,0,o),
(1203,236,o),
(1203,692,cs),
(1203,1148,o),
(972,1368,o),
(557,1368,cs),
(327,1368,o),
(158,1357,o),
(158,1357,c),
(158,0,l)
);
},
{
closed = 1;
nodes = (
(384,1188,l),
(384,1188,o),
(441,1194,o),
(577,1194,cs),
(824,1194,o),
(972,1021,o),
(972,688,cs),
(972,400,o),
(824,175,o),
(577,175,cs),
(384,175,l)
);
}
);
width = 1255;
},
{
anchors = (
{
name = btm;
pos = (687,-157);
},
{
name = top;
pos = (664,1713);
}
);
background = {
shapes = (
{
closed = 1;
nodes = (
(543,0,ls),
(950,0,o),
(1203,236,o),
(1203,692,cs),
(1203,1148,o),
(972,1368,o),
(557,1368,cs),
(327,1368,o),
(158,1357,o),
(158,1357,c),
(158,0,l)
);
},
{
closed = 1;
nodes = (
(384,1188,l),
(384,1188,o),
(441,1194,o),
(577,1194,cs),
(824,1194,o),
(972,1021,o),
(972,688,cs),
(972,400,o),
(824,175,o),
(577,175,cs),
(384,175,l)
);
}
);
};
layerId = m003;
shapes = (
{
closed = 1;
nodes = (
(503,0,ls),
(910,0,o),
(1203,236,o),
(1203,692,cs),
(1203,1148,o),
(932,1368,o),
(517,1368,cs),
(287,1368,o),
(118,1357,o),
(118,1357,c),
(118,0,l)
);
},
{
closed = 1;
nodes = (
(484,1030,l),
(484,1030,o),
(514,1034,o),
(585,1034,cs),
(744,1034,o),
(822,908,o),
(822,687,cs),
(822,498,o),
(744,335,o),
(585,335,cs),
(484,335,l)
);
}
);
width = 1255;
}
);
unicode = 68;
}
{
glyphname = E;
layers = (
{
anchors = (
{
name = btm;
pos = (559,-157);
},
{
name = og;
pos = (926,-157);
},
{
name = top;
pos = (559,1713);
}
);
layerId = m001;
shapes = (
{
closed = 1;
nodes = (
(932,0,l),
(945,52,o),
(948,100,o),
(948,128,cs),
(948,159,o),
(945,189,o),
(945,189,c),
(945,189,o),
(618,172,o),
(385,171,c),
(385,619,l),
(518,619,o),
(843,617,o),
(843,617,c),
(859,649,o),
(868,723,o),
(868,735,cs),
(868,766,o),
(865,792,o),
(865,792,c),
(865,792,o),
(542,782,o),
(385,781,c),
(385,1191,l),
(619,1191,o),
(905,1178,o),
(905,1178,c),
(934,1238,o),
(940,1287,o),
(940,1309,cs),
(940,1335,o),
(937,1358,o),
(937,1358,c),
(158,1358,l),
(158,0,l)
);
}
);
width = 1019;
},
{
anchors = (
{
name = btm;
pos = (559,-157);
},
{
name = og;
pos = (926,-157);
},
{
name = top;
pos = (559,1713);
}
);
layerId = m002;
shapes = (
{
closed = 1;
nodes = (
(932,0,l),
(945,52,o),
(948,100,o),
(948,128,cs),
(948,159,o),
(945,189,o),
(945,189,c),
(945,189,o),
(618,172,o),
(385,171,c),
(385,619,l),
(518,619,o),
(843,617,o),
(843,617,c),
(859,649,o),
(868,723,o),
(868,735,cs),
(868,766,o),
(865,792,o),
(865,792,c),
(865,792,o),
(542,782,o),
(385,781,c),
(385,1191,l),
(619,1191,o),
(905,1178,o),
(905,1178,c),
(934,1238,o),
(940,1287,o),
(940,1309,cs),
(940,1335,o),
(937,1358,o),
(937,1358,c),
(158,1358,l),
(158,0,l)
);
}
);
width = 1019;
},
{
anchors = (
{
name = btm;
pos = (559,-157);
},
{
name = og;
pos = (926,-157);
},
{
name = top;
pos = (559,1713);
}
);
layerId = m003;
shapes = (
{
closed = 1;
nodes = (
(932,0,l),
(945,52,o),
(948,100,o),
(948,128,cs),
(948,159,o),
(945,189,o),
(945,189,c),
(945,189,o),
(618,172,o),
(385,171,c),
(385,619,l),
(518,619,o),
(843,617,o),
(843,617,c),
(859,649,o),
(868,723,o),
(868,735,cs),
(868,766,o),
(865,792,o),
(865,792,c),
(865,792,o),
(542,782,o),
(385,781,c),
(385,1191,l),
(619,1191,o),
(905,1178,o),
(905,1178,c),
(934,1238,o),
(940,1287,o),
(940,1309,cs),
(940,1335,o),
(937,1358,o),
(937,1358,c),
(158,1358,l),
(158,0,l)
);
}
);
width = 1019;
}
);
unicode = 69;
}
{
glyphname = F;
layers = (
{
anchors = (
{
name = btm;
pos = (554,-157);
},
{
name = top;
pos = (518,1713);
}
);
layerId = m001;
shapes = (
{
closed = 1;
nodes = (
(385,0,l),
(385,585,l),
(488,585,o),
(863,583,o),
(863,583,c),
(884,654,o),
(888,692,o),
(888,704,cs),
(888,734,o),
(885,761,o),
(885,761,c),
(885,761,o),
(529,749,o),
(385,748,c),
(385,1191,l),
(625,1191,o),
(905,1178,o),
(905,1178,c),
(934,1238,o),
(940,1287,o),
(940,1309,cs),
(940,1335,o),
(937,1358,o),
(937,1358,c),
(158,1358,l),
(158,0,l)
);
}
);
width = 991;
},
{
anchors = (
{
name = btm;
pos = (554,-157);
},
{
name = top;
pos = (518,1713);
}
);
layerId = m002;
shapes = (
{
closed = 1;
nodes = (
(385,0,l),
(385,585,l),
(488,585,o),
(863,583,o),
(863,583,c),
(884,654,o),
(888,692,o),
(888,704,cs),
(888,734,o),
(885,761,o),
(885,761,c),
(885,761,o),
(529,749,o),
(385,748,c),
(385,1191,l),
(625,1191,o),
(905,1178,o),
(905,1178,c),
(934,1238,o),
(940,1287,o),
(940,1309,cs),
(940,1335,o),
(937,1358,o),
(937,1358,c),
(158,1358,l),
(158,0,l)
);
}
);
width = 991;
},
{
anchors = (
{
name = btm;
pos = (554,-157);
},
{
name = top;
pos = (518,1713);
}
);
layerId = m003;
shapes = (
{
closed = 1;
nodes = (
(385,0,l),
(385,585,l),
(488,585,o),
(863,583,o),
(863,583,c),
(884,654,o),
(888,692,o),
(888,704,cs),
(888,734,o),
(885,761,o),
(885,761,c),
(885,761,o),
(529,749,o),
(385,748,c),
(385,1191,l),
(625,1191,o),
(905,1178,o),
(905,1178,c),
(934,1238,o),
(940,1287,o),
(940,1309,cs),
(940,1335,o),
(937,1358,o),
(937,1358,c),
(158,1358,l),
(158,0,l)
);
}
);
width = 991;
}
);
unicode = 70;
}
{
glyphname = G;
layers = (
{
anchors = (
{
name = btm;
pos = (547,-157);
},
{
name = top;
pos = (594,1700);
}
);
layerId = m001;
shapes = (
{
closed = 1;
nodes = (
(53,211,o),
(278,-26,o),
(685,-26,cs),
(842,-26,o),
(1021,-2,o),
(1021,-2,c),
(1040,11,l),
(1040,11,o),
(1050,300,o),
(1050,614,cs),
(1050,614,o),
(992,631,o),
(935,631,cs),
(907,631,o),
(867,628,o),
(819,615,c),
(819,615,o),
(832,328,o),
(834,156,c),
(794,152,o),
(729,151,o),
(685,151,cs),
(426,151,o),
(285,341,o),
(285,667,cs),
(285,994,o),
(436,1206,o),
(685,1206,cs),
(832,1206,o),
(976,1154,o),
(976,1154,c),
(1021,1246,o),
(1026,1329,o),
(1026,1329,c),
(1026,1329,o),
(840,1384,o),
(685,1384,cs),
(278,1384,o),
(53,1123,o),
(53,667,cs)
);
}
);
width = 1151;
},
{
anchors = (
{
name = btm;
pos = (547,-157);
},
{
name = top;
pos = (594,1700);
}
);
layerId = m002;
shapes = (
{
closed = 1;
nodes = (
(53,211,o),
(278,-26,o),
(685,-26,cs),
(842,-26,o),
(1021,-2,o),
(1021,-2,c),
(1040,11,l),
(1040,11,o),
(1050,300,o),
(1050,614,cs),
(1050,614,o),
(992,631,o),
(935,631,cs),
(907,631,o),
(867,628,o),
(819,615,c),
(819,615,o),
(832,328,o),
(834,156,c),
(794,152,o),
(729,151,o),
(685,151,cs),
(426,151,o),
(285,341,o),
(285,667,cs),
(285,994,o),
(436,1206,o),
(685,1206,cs),
(832,1206,o),
(976,1154,o),
(976,1154,c),
(1021,1246,o),
(1026,1329,o),
(1026,1329,c),
(1026,1329,o),
(840,1384,o),
(685,1384,cs),
(278,1384,o),
(53,1123,o),
(53,667,cs)
);
}
);
width = 1151;
},
{
anchors = (
{
name = btm;
pos = (547,-157);
},
{
name = top;
pos = (594,1700);
}
);
layerId = m003;
shapes = (
{
closed = 1;
nodes = (
(53,211,o),
(278,-26,o),
(685,-26,cs),
(842,-26,o),
(1021,-2,o),
(1021,-2,c),
(1040,11,l),
(1040,11,o),
(1050,300,o),
(1050,614,cs),
(1050,614,o),
(992,631,o),
(935,631,cs),
(907,631,o),
(867,628,o),
(819,615,c),
(819,615,o),
(832,328,o),
(834,156,c),
(794,152,o),
(729,151,o),
(685,151,cs),
(426,151,o),
(285,341,o),
(285,667,cs),
(285,994,o),
(436,1206,o),
(685,1206,cs),
(832,1206,o),
(976,1154,o),
(976,1154,c),
(1021,1246,o),
(1026,1329,o),
(1026,1329,c),
(1026,1329,o),
(840,1384,o),
(685,1384,cs),
(278,1384,o),
(53,1123,o),
(53,667,cs)
);
}
);
width = 1151;
}
);
unicode = 71;
}
{
glyphname = H;
layers = (
{
anchors = (
{
name = btm;
pos = (656,-157);
},
{
name = top;
pos = (656,1713);
}
);
background = {
shapes = (
{
closed = 1;
nodes = (
(385,0,l),
(385,607,l),
(915,607,l),
(915,0,l),
(1141,0,l),
(1141,1358,l),
(915,1358,l),
(915,781,l),
(385,781,l),
(385,1358,l),
(158,1358,l),
(158,0,l)
);
}
);
};
layerId = m001;
shapes = (
{
closed = 1;
nodes = (
(246,0,l),
(246,689,l),
(1053,689,l),
(1053,0,l),
(1079,0,l),
(1079,1358,l),
(1053,1358,l),
(1053,711,l),
(246,711,l),
(246,1358,l),
(220,1358,l),
(220,0,l)
);
}
);
width = 1299;
},
{
anchors = (
{
name = btm;
pos = (656,-157);
},
{
name = top;
pos = (656,1713);
}
);
layerId = m002;
shapes = (
{
closed = 1;
nodes = (
(385,0,l),
(385,607,l),
(915,607,l),
(915,0,l),
(1141,0,l),
(1141,1358,l),
(915,1358,l),
(915,781,l),
(385,781,l),
(385,1358,l),
(158,1358,l),
(158,0,l)
);
}
);
width = 1299;
},
{
anchors = (
{
name = btm;
pos = (656,-157);
},
{
name = top;
pos = (656,1713);
}
);
background = {
shapes = (
{
closed = 1;
nodes = (
(385,0,l),
(385,607,l),
(915,607,l),
(915,0,l),
(1141,0,l),
(1141,1358,l),
(915,1358,l),
(915,781,l),
(385,781,l),
(385,1358,l),
(158,1358,l),
(158,0,l)
);
}
);
};
layerId = m003;
shapes = (
{
closed = 1;
nodes = (
(494,0,l),
(494,517,l),
(805,517,l),
(805,0,l),
(1181,0,l),
(1181,1358,l),
(805,1358,l),
(805,851,l),
(494,851,l),
(494,1358,l),
(118,1358,l),
(118,0,l)
);
}
);
width = 1299;
}
);
unicode = 72;
}
{
glyphname = I;
layers = (
{
anchors = (
{
name = btm;
pos = (250,-157);
},
{
name = og;
pos = (343,-157);
},
{
name = top;
pos = (250,1713);
}
);
layerId = m001;
shapes = (
{
closed = 1;
nodes = (
(261,0,l),
(261,1358,l),
(235,1358,l),
(235,0,l)
);
}
);
width = 496;
},
{
anchors = (
{
name = btm;
pos = (273,-157);
},
{
name = og;
pos = (366,-157);
},
{
name = top;
pos = (273,1713);
}
);
layerId = m002;
shapes = (
{
closed = 1;
nodes = (
(384,0,l),
(384,1358,l),
(158,1358,l),
(158,0,l)
);
}
);
width = 542;
},
{
anchors = (
{
name = btm;
pos = (314,-157);
},
{
name = og;
pos = (407,-157);
},
{
name = top;
pos = (314,1713);
}
);
layerId = m003;
shapes = (
{
closed = 1;
nodes = (
(502,0,l),
(502,1358,l),
(122,1358,l),
(122,0,l)
);
}
);
width = 624;
}
);
unicode = 73;
}
{
glyphname = J;
layers = (
{
anchors = (
{
name = btm;
pos = (271,-157);
},
{
name = top;
pos = (337,1713);
}
);
layerId = m001;
shapes = (
{
closed = 1;
nodes = (
(223,-14,o),
(157,-78,o),
(40,-102,c),
(40,-102,o),
(66,-190,o),
(116,-268,c),
(354,-215,o),
(450,-94,o),
(450,123,c),
(450,1358,l),
(223,1358,l),
(223,172,ls)
);
}
);
width = 633;
},
{
anchors = (
{
name = btm;
pos = (271,-157);
},
{
name = top;
pos = (337,1713);
}
);
layerId = m002;
shapes = (
{
closed = 1;
nodes = (
(223,-14,o),
(157,-78,o),
(40,-102,c),
(40,-102,o),
(66,-190,o),
(116,-268,c),
(354,-215,o),
(450,-94,o),
(450,123,c),
(450,1358,l),
(223,1358,l),
(223,172,ls)
);
}
);
width = 633;
},
{
anchors = (
{
name = btm;
pos = (271,-157);
},
{
name = top;
pos = (337,1713);
}
);
layerId = m003;
shapes = (
{
closed = 1;
nodes = (
(223,-14,o),
(157,-78,o),
(40,-102,c),
(40,-102,o),
(66,-190,o),
(116,-268,c),
(354,-215,o),
(450,-94,o),
(450,123,c),
(450,1358,l),
(223,1358,l),
(223,172,ls)
);
}
);
width = 633;
}
);
unicode = 74;
}
{
glyphname = K;
layers = (
{
anchors = (
{
name = btm;
pos = (661,-157);
},
{
name = top;
pos = (661,1713);
}
);
layerId = m001;
shapes = (
{
closed = 1;
nodes = (
(385,0,l),
(385,627,l),
(397,627,l),
(854,0,l),
(1132,0,l),
(590,695,l),
(1104,1358,l),
(832,1358,l),
(405,763,l),
(385,763,l),
(385,1358,l),
(158,1358,l),
(158,0,l)
);
}
);
width = 1128;
},
{
anchors = (
{
name = btm;
pos = (661,-157);
},
{
name = top;
pos = (661,1713);
}
);
layerId = m002;
shapes = (
{
closed = 1;
nodes = (
(385,0,l),
(385,627,l),
(397,627,l),
(854,0,l),
(1132,0,l),
(590,695,l),
(1104,1358,l),
(832,1358,l),
(405,763,l),
(385,763,l),
(385,1358,l),
(158,1358,l),
(158,0,l)
);
}
);
width = 1128;
},
{
anchors = (
{
name = btm;
pos = (661,-157);
},
{
name = top;
pos = (661,1713);
}
);
layerId = m003;
shapes = (
{
closed = 1;
nodes = (
(385,0,l),
(385,627,l),
(397,627,l),
(854,0,l),
(1132,0,l),
(590,695,l),
(1104,1358,l),
(832,1358,l),
(405,763,l),
(385,763,l),
(385,1358,l),
(158,1358,l),
(158,0,l)
);
}
);
width = 1128;
}
);
unicode = 75;
}
{
glyphname = L;
layers = (
{
anchors = (
{
name = btm;
pos = (569,-157);
},
{
name = top;
pos = (569,1713);
}
);
layerId = m001;
shapes = (
{
closed = 1;
nodes = (
(880,0,l),
(887,-1,o),
(915,160,o),
(915,205,c),
(915,205,o),
(612,189,o),
(385,188,c),
(385,1358,l),
(158,1358,l),
(158,0,l)
);
}
);
width = 993;
},
{
anchors = (
{
name = btm;
pos = (569,-157);
},
{
name = top;
pos = (569,1713);
}
);
layerId = m002;
shapes = (
{
closed = 1;
nodes = (
(880,0,l),
(887,-1,o),
(915,160,o),
(915,205,c),
(915,205,o),
(612,189,o),
(385,188,c),
(385,1358,l),
(158,1358,l),
(158,0,l)
);
}
);
width = 993;
},
{
anchors = (
{
name = btm;
pos = (569,-157);
},
{
name = top;
pos = (569,1713);
}
);
layerId = m003;
shapes = (
{
closed = 1;
nodes = (
(880,0,l),
(887,-1,o),
(915,160,o),
(915,205,c),
(915,205,o),
(612,189,o),
(385,188,c),
(385,1358,l),
(158,1358,l),
(158,0,l)
);
}
);
width = 993;
}
);
unicode = 76;
}
{
glyphname = M;
layers = (
{
anchors = (
{
name = btm;
pos = (793,-157);
},
{
name = top;
pos = (793,1713);
}
);
layerId = m001;
shapes = (
{
closed = 1;
nodes = (
(325,0,l),
(359,978,l),
(355,1248,l),
(661,234,l),
(918,234,l),
(1010,508,o),
(1123,968,o),
(1215,1245,c),
(1210,982,l),
(1251,0,l),
(1468,0,l),
(1394,1358,l),
(1053,1358,l),
(862,680,l),
(789,388,l),
(716,680,l),
(520,1358,l),
(179,1358,l),
(108,0,l)
);
}
);
width = 1573;
},
{
anchors = (
{
name = btm;
pos = (793,-157);
},
{
name = top;
pos = (793,1713);
}
);
layerId = m002;
shapes = (
{
closed = 1;
nodes = (
(325,0,l),
(359,978,l),
(355,1248,l),
(661,234,l),
(918,234,l),
(1010,508,o),
(1123,968,o),
(1215,1245,c),
(1210,982,l),
(1251,0,l),
(1468,0,l),
(1394,1358,l),
(1053,1358,l),
(862,680,l),
(789,388,l),
(716,680,l),
(520,1358,l),
(179,1358,l),
(108,0,l)
);
}
);
width = 1573;
},
{
anchors = (
{
name = btm;
pos = (793,-157);
},
{
name = top;
pos = (793,1713);
}
);
layerId = m003;
shapes = (
{
closed = 1;
nodes = (
(325,0,l),
(359,978,l),
(355,1248,l),
(661,234,l),
(918,234,l),
(1010,508,o),
(1123,968,o),
(1215,1245,c),
(1210,982,l),
(1251,0,l),
(1468,0,l),
(1394,1358,l),
(1053,1358,l),
(862,680,l),
(789,388,l),
(716,680,l),
(520,1358,l),
(179,1358,l),
(108,0,l)
);
}
);
width = 1573;
}
);
unicode = 77;
}
{
glyphname = N;
layers = (
{
anchors = (
{
name = btm;
pos = (682,-157);
},
{
name = top;
pos = (682,1713);
}
);
layerId = m001;
shapes = (
{
closed = 1;
nodes = (
(375,0,l),
(368,850,l),
(355,1242,l),
(492,850,l),
(843,0,l),
(1193,0,l),
(1193,1358,l),
(977,1358,l),
(984,510,l),
(997,124,l),
(860,510,l),
(517,1358,l),
(158,1358,l),
(158,0,l)
);
}
);
userData = {
com.typemytype.robofont.guides = (
{
angle = 0;
isGlobal = 0;
magnetic = 5;
x = 0;
y = 1172;
},
{
angle = 0;
isGlobal = 0;
magnetic = 5;
x = 0;
y = 216;
}
);
};
width = 1351;
},
{
anchors = (
{
name = btm;
pos = (682,-157);
},
{
name = top;
pos = (682,1713);
}
);
layerId = m002;
shapes = (
{
closed = 1;
nodes = (
(375,0,l),
(368,850,l),
(355,1242,l),
(492,850,l),
(843,0,l),
(1193,0,l),
(1193,1358,l),
(977,1358,l),
(984,510,l),
(997,124,l),
(860,510,l),
(517,1358,l),
(158,1358,l),
(158,0,l)
);
}
);
userData = {
com.typemytype.robofont.guides = (
{
angle = 0;
isGlobal = 0;
magnetic = 5;
x = 0;
y = 1172;
},
{
angle = 0;
isGlobal = 0;
magnetic = 5;
x = 0;
y = 216;
}
);
};
width = 1351;
},
{
anchors = (
{
name = btm;
pos = (682,-157);
},
{
name = top;
pos = (682,1713);
}
);
layerId = m003;
shapes = (
{
closed = 1;
nodes = (
(375,0,l),
(368,850,l),
(355,1242,l),
(492,850,l),
(843,0,l),
(1193,0,l),
(1193,1358,l),
(977,1358,l),
(984,510,l),
(997,124,l),
(860,510,l),
(517,1358,l),
(158,1358,l),
(158,0,l)
);
}
);
userData = {
com.typemytype.robofont.guides = (
{
angle = 0;
isGlobal = 0;
magnetic = 5;
x = 0;
y = 1172;
},
{
angle = 0;
isGlobal = 0;
magnetic = 5;
x = 0;
y = 216;
}
);
};
width = 1351;
}
);
unicode = 78;
}
{
glyphname = O;
layers = (
{
anchors = (
{
name = btm;
pos = (651,-157);
},
{
name = top;
pos = (651,1713);
}
);
layerId = m001;
shapes = (
{
closed = 1;
nodes = (
(1041,-26,o),
(1207,259,o),
(1207,698,cs),
(1207,1135,o),
(1056,1384,o),
(649,1384,cs),
(259,1384,o),
(83,1117,o),
(83,679,cs),
(83,242,o),
(248,-26,o),
(649,-26,cs)
);
},
{
closed = 1;
nodes = (
(395,149,o),
(308,342,o),
(308,679,cs),
(308,1016,o),
(395,1211,o),
(649,1211,cs),
(902,1211,o),
(981,1048,o),
(981,698,cs),
(981,372,o),
(902,149,o),
(649,149,cs)
);
}
);
width = 1290;
},
{
anchors = (
{
name = btm;
pos = (651,-157);
},
{
name = top;
pos = (651,1713);
}
);
layerId = m002;
shapes = (
{
closed = 1;
nodes = (
(1041,-26,o),
(1207,259,o),
(1207,698,cs),
(1207,1135,o),
(1056,1384,o),
(649,1384,cs),
(259,1384,o),
(83,1117,o),
(83,679,cs),
(83,242,o),
(248,-26,o),
(649,-26,cs)
);
},
{
closed = 1;
nodes = (
(395,149,o),
(308,342,o),
(308,679,cs),
(308,1016,o),
(395,1211,o),
(649,1211,cs),
(902,1211,o),
(981,1048,o),
(981,698,cs),
(981,372,o),
(902,149,o),
(649,149,cs)
);
}
);
width = 1290;
},
{
anchors = (
{
name = btm;
pos = (651,-157);
},
{
name = top;
pos = (651,1713);
}
);
layerId = m003;
shapes = (
{
closed = 1;
nodes = (
(1041,-26,o),
(1207,259,o),
(1207,698,cs),
(1207,1135,o),
(1056,1384,o),
(649,1384,cs),
(259,1384,o),
(83,1117,o),
(83,679,cs),
(83,242,o),
(248,-26,o),
(649,-26,cs)
);
},
{
closed = 1;
nodes = (
(395,149,o),
(308,342,o),
(308,679,cs),
(308,1016,o),
(395,1211,o),
(649,1211,cs),
(902,1211,o),
(981,1048,o),
(981,698,cs),
(981,372,o),
(902,149,o),
(649,149,cs)
);
}
);
width = 1290;
}
);
unicode = 79;
}
{
glyphname = P;
layers = (
{
anchors = (
{
name = btm;
pos = (621,-157);
},
{
name = top;
pos = (621,1713);
}
);
layerId = m001;
shapes = (
{
closed = 1;
nodes = (
(385,0,l),
(385,518,l),
(385,518,o),
(466,509,o),
(567,509,cs),
(884,509,o),
(1048,720,o),
(1048,951,cs),
(1048,1206,o),
(891,1358,o),
(623,1358,cs),
(158,1358,l),
(158,0,l)
);
},
{
closed = 1;
nodes = (
(385,1184,l),
(611,1184,ls),
(758,1184,o),
(816,1087,o),
(816,937,cs),
(816,750,o),
(683,680,o),
(502,680,cs),
(447,680,o),
(405,684,o),
(385,687,c)
);
}
);
width = 1096;
},
{
anchors = (
{
name = btm;
pos = (621,-157);
},
{
name = top;
pos = (621,1713);
}
);
layerId = m002;
shapes = (
{
closed = 1;
nodes = (
(385,0,l),
(385,518,l),
(385,518,o),
(466,509,o),
(567,509,cs),
(884,509,o),
(1048,720,o),
(1048,951,cs),
(1048,1206,o),
(891,1358,o),
(623,1358,cs),
(158,1358,l),
(158,0,l)
);
},
{
closed = 1;
nodes = (
(385,1184,l),
(611,1184,ls),
(758,1184,o),
(816,1087,o),
(816,937,cs),
(816,750,o),
(683,680,o),
(502,680,cs),
(447,680,o),
(405,684,o),
(385,687,c)
);
}
);
width = 1096;
},
{
anchors = (
{
name = btm;
pos = (621,-157);
},
{
name = top;
pos = (621,1713);
}
);
layerId = m003;
shapes = (
{
closed = 1;
nodes = (
(385,0,l),
(385,518,l),
(385,518,o),
(466,509,o),
(567,509,cs),
(884,509,o),
(1048,720,o),
(1048,951,cs),
(1048,1206,o),
(891,1358,o),
(623,1358,cs),
(158,1358,l),
(158,0,l)
);
},
{
closed = 1;
nodes = (
(385,1184,l),
(611,1184,ls),
(758,1184,o),
(816,1087,o),
(816,937,cs),
(816,750,o),
(683,680,o),
(502,680,cs),
(447,680,o),
(405,684,o),
(385,687,c)
);
}
);
width = 1096;
}
);
unicode = 80;
}
{
glyphname = Q;
layers = (
{
anchors = (
{
name = btm;
pos = (674,-157);
},
{
name = top;
pos = (674,1713);
}
);
layerId = m001;
shapes = (
{
closed = 1;
nodes = (
(674,-26,o),
(718,-24,o),
(736,-21,c),
(832,-88,o),
(951,-188,o),
(1107,-280,c),
(1107,-280,o),
(1213,-209,o),
(1246,-110,c),
(1246,-110,o),
(1090,-34,o),
(962,43,c),
(962,60,l),
(1129,175,o),
(1207,392,o),
(1207,698,cs),
(1207,1135,o),
(1059,1384,o),
(652,1384,cs),
(262,1384,o),
(83,1117,o),
(83,679,cs),
(83,242,o),
(248,-26,o),
(659,-26,cs)
);
},
{
closed = 1;
nodes = (
(398,149,o),
(313,342,o),
(313,679,cs),
(313,1026,o),
(398,1212,o),
(652,1212,cs),
(905,1212,o),
(976,1048,o),
(976,698,cs),
(976,372,o),
(905,149,o),
(652,149,cs)
);
}
);
width = 1290;
},
{
anchors = (
{
name = btm;
pos = (674,-157);
},
{
name = top;
pos = (674,1713);
}
);
layerId = m002;
shapes = (
{
closed = 1;
nodes = (
(674,-26,o),
(718,-24,o),
(736,-21,c),
(832,-88,o),
(951,-188,o),
(1107,-280,c),
(1107,-280,o),
(1213,-209,o),
(1246,-110,c),
(1246,-110,o),
(1090,-34,o),
(962,43,c),
(962,60,l),
(1129,175,o),
(1207,392,o),
(1207,698,cs),
(1207,1135,o),
(1059,1384,o),
(652,1384,cs),
(262,1384,o),
(83,1117,o),
(83,679,cs),
(83,242,o),
(248,-26,o),
(659,-26,cs)
);
},
{
closed = 1;
nodes = (
(398,149,o),
(313,342,o),
(313,679,cs),
(313,1026,o),
(398,1212,o),
(652,1212,cs),
(905,1212,o),
(976,1048,o),
(976,698,cs),
(976,372,o),
(905,149,o),
(652,149,cs)
);
}
);
width = 1290;
},
{
anchors = (
{
name = btm;
pos = (674,-157);
},
{
name = top;
pos = (674,1713);
}
);
layerId = m003;
shapes = (
{
closed = 1;
nodes = (
(674,-26,o),
(718,-24,o),
(736,-21,c),
(832,-88,o),
(951,-188,o),
(1107,-280,c),
(1107,-280,o),
(1213,-209,o),
(1246,-110,c),
(1246,-110,o),
(1090,-34,o),
(962,43,c),
(962,60,l),
(1129,175,o),
(1207,392,o),
(1207,698,cs),
(1207,1135,o),
(1059,1384,o),
(652,1384,cs),
(262,1384,o),
(83,1117,o),
(83,679,cs),
(83,242,o),
(248,-26,o),
(659,-26,cs)
);
},
{
closed = 1;
nodes = (
(398,149,o),
(313,342,o),
(313,679,cs),
(313,1026,o),
(398,1212,o),
(652,1212,cs),
(905,1212,o),
(976,1048,o),
(976,698,cs),
(976,372,o),
(905,149,o),
(652,149,cs)
);
}
);
width = 1290;
}
);
unicode = 81;
}
{
glyphname = R;
layers = (
{
anchors = (
{
name = btm;
pos = (589,-157);
},
{
name = top;
pos = (627,1713);
}
);
layerId = m001;
shapes = (
{
closed = 1;
nodes = (
(376,0,l),
(376,578,l),
(376,578,o),
(482,561,o),
(557,561,c),
(571,561,l),
(868,0,l),
(1112,0,l),
(1010,193,o),
(879,400,o),
(777,595,c),
(961,659,o),
(1044,801,o),
(1044,971,cs),
(1044,1205,o),
(902,1358,o),
(634,1358,c),
(158,1358,l),
(158,0,l)
);
},
{
closed = 1;
nodes = (
(376,1184,l),
(598,1184,l),
(736,1184,o),
(815,1106,o),
(815,967,cs),
(815,808,o),
(731,732,o),
(563,732,cs),
(490,732,o),
(401,736,o),
(376,739,c)
);
}
);
width = 1140;
},
{
anchors = (
{
name = btm;
pos = (589,-157);
},
{
name = top;
pos = (627,1713);
}
);
layerId = m002;
shapes = (
{
closed = 1;
nodes = (
(376,0,l),
(376,578,l),
(376,578,o),
(482,561,o),
(557,561,c),
(571,561,l),
(868,0,l),
(1112,0,l),
(1010,193,o),
(879,400,o),
(777,595,c),
(961,659,o),
(1044,801,o),
(1044,971,cs),
(1044,1205,o),
(902,1358,o),
(634,1358,c),
(158,1358,l),
(158,0,l)
);
},
{
closed = 1;
nodes = (
(376,1184,l),
(598,1184,l),
(736,1184,o),
(815,1106,o),
(815,967,cs),
(815,808,o),
(731,732,o),
(563,732,cs),
(490,732,o),
(401,736,o),
(376,739,c)
);
}
);
width = 1140;
},
{
anchors = (
{
name = btm;
pos = (589,-157);
},
{
name = top;
pos = (627,1713);
}
);
layerId = m003;
shapes = (
{
closed = 1;
nodes = (
(376,0,l),
(376,578,l),
(376,578,o),
(482,561,o),
(557,561,c),
(571,561,l),
(868,0,l),
(1112,0,l),
(1010,193,o),
(879,400,o),
(777,595,c),
(961,659,o),
(1044,801,o),
(1044,971,cs),
(1044,1205,o),
(902,1358,o),
(634,1358,c),
(158,1358,l),
(158,0,l)
);
},
{
closed = 1;
nodes = (
(376,1184,l),
(598,1184,l),
(736,1184,o),
(815,1106,o),
(815,967,cs),
(815,808,o),
(731,732,o),
(563,732,cs),
(490,732,o),
(401,736,o),
(376,739,c)
);
}
);
width = 1140;
}
);
unicode = 82;
}
{
glyphname = S;
layers = (
{
anchors = (
{
name = btm;
pos = (546,-157);
},
{
name = top;
pos = (546,1713);
}
);
background = {
shapes = (
{
closed = 1;
nodes = (
(107,49,o),
(277,-26,o),
(485,-26,cs),
(835,-26,o),
(974,110,o),
(974,389,cs),
(974,615,o),
(865,700,o),
(585,778,cs),
(398,831,o),
(326,869,o),
(326,1015,cs),
(326,1146,o),
(395,1204,o),
(583,1204,cs),
(756,1204,o),
(852,1131,o),
(852,1131,c),
(918,1227,o),
(925,1302,o),
(925,1302,c),
(925,1302,o),
(807,1384,o),
(587,1384,cs),
(299,1384,o),
(114,1266,o),
(114,978,cs),
(114,778,o),
(220,672,o),
(513,593,cs),
(681,546,o),
(756,497,o),
(756,356,cs),
(756,231,o),
(687,167,o),
(477,167,cs),
(339,167,o),
(153,231,o),
(153,231,c),
(110,127,o),
(107,49,o),
(107,49,c)
);
}
);
};
layerId = m001;
shapes = (
{
closed = 1;
nodes = (
(107,49,o),
(277,-26,o),
(485,-26,cs),
(835,-26,o),
(974,110,o),
(974,389,cs),
(974,544,o),
(842,618,o),
(561,702,cs),
(303,779,o),
(142,838,o),
(142,979,cs),
(142,1247,o),
(318,1358,o),
(583,1358,cs),
(756,1358,o),
(912,1265,o),
(912,1265,c),
(919,1273,o),
(923,1291,o),
(925,1302,c),
(925,1302,o),
(807,1384,o),
(587,1384,cs),
(299,1384,o),
(114,1266,o),
(114,978,cs),
(114,830,o),
(263,757,o),
(555,676,cs),
(807,606,o),
(946,534,o),
(946,387,cs),
(946,115,o),
(784,0,o),
(488,0,cs),
(261,0,o),
(116,76,o),
(116,76,c),
(105,70,o),
(104,58,o),
(107,49,c)
);
}
);
width = 1081;
},
{
anchors = (
{
name = btm;
pos = (546,-157);
},
{
name = top;
pos = (546,1713);
}
);
layerId = m002;
shapes = (
{
closed = 1;
nodes = (
(107,49,o),
(277,-26,o),
(485,-26,cs),
(835,-26,o),
(974,110,o),
(974,389,cs),
(974,615,o),
(865,700,o),
(585,778,cs),
(398,831,o),
(326,869,o),
(326,1015,cs),
(326,1146,o),
(395,1204,o),
(583,1204,cs),
(756,1204,o),
(852,1131,o),
(852,1131,c),
(918,1227,o),
(925,1302,o),
(925,1302,c),
(925,1302,o),
(807,1384,o),
(587,1384,cs),
(299,1384,o),
(114,1266,o),
(114,978,cs),
(114,778,o),
(220,672,o),
(513,593,cs),
(681,546,o),
(756,497,o),
(756,356,cs),
(756,231,o),
(687,167,o),
(477,167,cs),
(339,167,o),
(153,231,o),
(153,231,c),
(110,127,o),
(107,49,o),
(107,49,c)
);
}
);
width = 1081;
},
{
anchors = (
{
name = btm;
pos = (546,-157);
},
{
name = top;
pos = (546,1713);
}
);
background = {
shapes = (
{
closed = 1;
nodes = (
(107,49,o),
(277,-26,o),
(485,-26,cs),
(835,-26,o),
(974,110,o),
(974,389,cs),
(974,615,o),
(865,700,o),
(585,778,cs),
(398,831,o),
(326,869,o),
(326,1015,cs),
(326,1146,o),
(395,1204,o),
(583,1204,cs),
(756,1204,o),
(852,1131,o),
(852,1131,c),
(918,1227,o),
(925,1302,o),
(925,1302,c),
(925,1302,o),
(807,1384,o),
(587,1384,cs),
(299,1384,o),
(114,1266,o),
(114,978,cs),
(114,778,o),
(220,672,o),
(513,593,cs),
(681,546,o),
(756,497,o),
(756,356,cs),
(756,231,o),
(687,167,o),
(477,167,cs),
(339,167,o),
(153,231,o),
(153,231,c),
(110,127,o),
(107,49,o),
(107,49,c)
);
}
);
};
layerId = m003;
shapes = (
{
closed = 1;
nodes = (
(27,49,o),
(197,-26,o),
(485,-26,cs),
(835,-26,o),
(1037,170,o),
(1037,449,cs),
(1037,646,o),
(984,780,o),
(650,850,cs),
(488,884,o),
(447,895,o),
(446,945,cs),
(446,989,o),
(473,1016,o),
(583,1021,cs),
(756,1027,o),
(888,949,o),
(888,949,c),
(960,1026,o),
(1021,1251,o),
(1021,1291,c),
(973,1347,o),
(807,1384,o),
(587,1384,cs),
(299,1384,o),
(59,1226,o),
(59,938,cs),
(59,690,o),
(192,597,o),
(485,529,cs),
(653,488,o),
(662,457,o),
(662,420,cs),
(662,367,o),
(624,336,o),
(477,336,cs),
(259,336,o),
(131,406,o),
(131,406,c),
(70,324,o),
(27,105,o),
(27,49,c)
);
}
);
width = 1081;
}
);
unicode = 83;
}
{
glyphname = T;
layers = (
{
anchors = (
{
name = btm;
pos = (487,-157);
},
{
name = top;
pos = (487,1713);
}
);
layerId = m001;
shapes = (
{
closed = 1;
nodes = (
(588,0,l),
(588,1190,l),
(726,1190,o),
(897,1185,o),
(919,1182,c),
(931,1219,o),
(935,1267,o),
(935,1294,cs),
(935,1324,o),
(930,1358,o),
(930,1358,c),
(40,1358,l),
(31,1316,o),
(28,1281,o),
(28,1257,cs),
(28,1220,o),
(34,1181,o),
(34,1181,c),
(34,1181,o),
(162,1189,o),
(362,1190,c),
(362,0,l)
);
}
);
width = 963;
},
{
anchors = (
{
name = btm;
pos = (487,-157);
},
{
name = top;
pos = (487,1713);
}
);
layerId = m002;
shapes = (
{
closed = 1;
nodes = (
(588,0,l),
(588,1190,l),
(726,1190,o),
(897,1185,o),
(919,1182,c),
(931,1219,o),
(935,1267,o),
(935,1294,cs),
(935,1324,o),
(930,1358,o),
(930,1358,c),
(40,1358,l),
(31,1316,o),
(28,1281,o),
(28,1257,cs),
(28,1220,o),
(34,1181,o),
(34,1181,c),
(34,1181,o),
(162,1189,o),
(362,1190,c),
(362,0,l)
);
}
);
width = 963;
},
{
anchors = (
{
name = btm;
pos = (487,-157);
},
{
name = top;
pos = (487,1713);
}
);
layerId = m003;
shapes = (
{
closed = 1;
nodes = (
(588,0,l),
(588,1190,l),
(726,1190,o),
(897,1185,o),
(919,1182,c),
(931,1219,o),
(935,1267,o),
(935,1294,cs),
(935,1324,o),
(930,1358,o),
(930,1358,c),
(40,1358,l),
(31,1316,o),
(28,1281,o),
(28,1257,cs),
(28,1220,o),
(34,1181,o),
(34,1181,c),
(34,1181,o),
(162,1189,o),
(362,1190,c),
(362,0,l)
);
}
);
width = 963;
}
);
unicode = 84;
}
{
glyphname = U;
layers = (
{
anchors = (
{
name = btm;
pos = (626,-157);
},
{
name = og;
pos = (1125,-157);
},
{
name = top;
pos = (626,1713);
}
);
layerId = m001;
shapes = (
{
closed = 1;
nodes = (
(117,172,o),
(253,-20,o),
(623,-20,cs),
(1000,-20,o),
(1122,167,o),
(1123,530,c),
(1123,1358,l),
(902,1358,l),
(902,1358,o),
(906,615,o),
(906,497,cs),
(906,292,o),
(826,160,o),
(623,160,cs),
(419,160,o),
(343,292,o),
(343,497,c),
(343,1358,l),
(121,1358,l),
(121,1358,o),
(117,698,o),
(117,530,cs)
);
}
);
width = 1241;
},
{
anchors = (
{
name = btm;
pos = (626,-157);
},
{
name = og;
pos = (1125,-157);
},
{
name = top;
pos = (626,1713);
}
);
layerId = m002;
shapes = (
{
closed = 1;
nodes = (
(117,172,o),
(253,-20,o),
(623,-20,cs),
(1000,-20,o),
(1122,167,o),
(1123,530,c),
(1123,1358,l),
(902,1358,l),
(902,1358,o),
(906,615,o),
(906,497,cs),
(906,292,o),
(826,160,o),
(623,160,cs),
(419,160,o),
(343,292,o),
(343,497,c),
(343,1358,l),
(121,1358,l),
(121,1358,o),
(117,698,o),
(117,530,cs)
);
}
);
width = 1241;
},
{
anchors = (
{
name = btm;
pos = (626,-157);
},
{
name = og;
pos = (1125,-157);
},
{
name = top;
pos = (626,1713);
}
);
layerId = m003;
shapes = (
{
closed = 1;
nodes = (
(117,172,o),
(253,-20,o),
(623,-20,cs),
(1000,-20,o),
(1122,167,o),
(1123,530,c),
(1123,1358,l),
(902,1358,l),
(902,1358,o),
(906,615,o),
(906,497,cs),
(906,292,o),
(826,160,o),
(623,160,cs),
(419,160,o),
(343,292,o),
(343,497,c),
(343,1358,l),
(121,1358,l),
(121,1358,o),
(117,698,o),
(117,530,cs)
);
}
);
width = 1241;
}
);
unicode = 85;
}
{
glyphname = V;
layers = (
{
anchors = (
{
name = btm;
pos = (544,-157);
},
{
name = top;
pos = (544,1713);
}
);
layerId = m001;
shapes = (
{
closed = 1;
nodes = (
(703,0,l),
(1108,1358,l),
(877,1358,l),
(599,390,l),
(537,135,l),
(476,390,l),
(203,1358,l),
(-30,1358,l),
(368,0,l)
);
}
);
userData = {
com.typemytype.robofont.guides = (
{
angle = 90;
isGlobal = 0;
magnetic = 5;
x = 542;
y = 0;
}
);
};
width = 1078;
},
{
anchors = (
{
name = btm;
pos = (544,-157);
},
{
name = top;
pos = (544,1713);
}
);
layerId = m002;
shapes = (
{
closed = 1;
nodes = (
(703,0,l),
(1108,1358,l),
(877,1358,l),
(599,390,l),
(537,135,l),
(476,390,l),
(203,1358,l),
(-30,1358,l),
(368,0,l)
);
}
);
userData = {
com.typemytype.robofont.guides = (
{
angle = 90;
isGlobal = 0;
magnetic = 5;
x = 542;
y = 0;
}
);
};
width = 1078;
},
{
anchors = (
{
name = btm;
pos = (544,-157);
},
{
name = top;
pos = (544,1713);
}
);
layerId = m003;
shapes = (
{
closed = 1;
nodes = (
(703,0,l),
(1108,1358,l),
(877,1358,l),
(599,390,l),
(537,135,l),
(476,390,l),
(203,1358,l),
(-30,1358,l),
(368,0,l)
);
}
);
userData = {
com.typemytype.robofont.guides = (
{
angle = 90;
isGlobal = 0;
magnetic = 5;
x = 542;
y = 0;
}
);
};
width = 1078;
}
);
unicode = 86;
}
{
glyphname = W;
layers = (
{
anchors = (
{
name = btm;
pos = (878,-157);
},
{
name = top;
pos = (878,1713);
}
);
layerId = m001;
shapes = (
{
closed = 1;
nodes = (
(609,0,l),
(831,981,l),
(868,1232,l),
(904,981,l),
(1125,0,l),
(1435,0,l),
(1755,1358,l),
(1531,1358,l),
(1276,188,l),
(1014,1358,l),
(734,1358,l),
(468,192,l),
(214,1358,l),
(-20,1358,l),
(298,0,l)
);
}
);
userData = {
com.typemytype.robofont.guides = (
{
angle = 90;
isGlobal = 0;
magnetic = 5;
x = 382;
y = 0;
}
);
};
width = 1735;
},
{
anchors = (
{
name = btm;
pos = (878,-157);
},
{
name = top;
pos = (878,1713);
}
);
layerId = m002;
shapes = (
{
closed = 1;
nodes = (
(609,0,l),
(831,981,l),
(868,1232,l),
(904,981,l),
(1125,0,l),
(1435,0,l),
(1755,1358,l),
(1531,1358,l),
(1276,188,l),
(1014,1358,l),
(734,1358,l),
(468,192,l),
(214,1358,l),
(-20,1358,l),
(298,0,l)
);
}
);
userData = {
com.typemytype.robofont.guides = (
{
angle = 90;
isGlobal = 0;
magnetic = 5;
x = 382;
y = 0;
}
);
};
width = 1735;
},
{
anchors = (
{
name = btm;
pos = (878,-157);
},
{
name = top;
pos = (878,1713);
}
);
layerId = m003;
shapes = (
{
closed = 1;
nodes = (
(609,0,l),
(831,981,l),
(868,1232,l),
(904,981,l),
(1125,0,l),
(1435,0,l),
(1755,1358,l),
(1531,1358,l),
(1276,188,l),
(1014,1358,l),
(734,1358,l),
(468,192,l),
(214,1358,l),
(-20,1358,l),
(298,0,l)
);
}
);
userData = {
com.typemytype.robofont.guides = (
{
angle = 90;
isGlobal = 0;
magnetic = 5;
x = 382;
y = 0;
}
);
};
width = 1735;
}
);
unicode = 87;
}
{
glyphname = X;
layers = (
{
anchors = (
{
name = btm;
pos = (570,-157);
},
{
name = top;
pos = (570,1713);
}
);
layerId = m001;
shapes = (
{
closed = 1;
nodes = (
(265,0,l),
(481,390,l),
(549,532,l),
(553,532,l),
(624,390,l),
(856,0,l),
(1125,0,l),
(685,673,l),
(1109,1358,l),
(845,1358,l),
(653,1020,l),
(562,832,l),
(555,832,l),
(465,1020,l),
(268,1358,l),
(11,1358,l),
(423,695,l),
(5,0,l)
);
}
);
width = 1130;
},
{
anchors = (
{
name = btm;
pos = (570,-157);
},
{
name = top;
pos = (570,1713);
}
);
layerId = m002;
shapes = (
{
closed = 1;
nodes = (
(265,0,l),
(481,390,l),
(549,532,l),
(553,532,l),
(624,390,l),
(856,0,l),
(1125,0,l),
(685,673,l),
(1109,1358,l),
(845,1358,l),
(653,1020,l),
(562,832,l),
(555,832,l),
(465,1020,l),
(268,1358,l),
(11,1358,l),
(423,695,l),
(5,0,l)
);
}
);
width = 1130;
},
{
anchors = (
{
name = btm;
pos = (570,-157);
},
{
name = top;
pos = (570,1713);
}
);
layerId = m003;
shapes = (
{
closed = 1;
nodes = (
(265,0,l),
(481,390,l),
(549,532,l),
(553,532,l),
(624,390,l),
(856,0,l),
(1125,0,l),
(685,673,l),
(1109,1358,l),
(845,1358,l),
(653,1020,l),
(562,832,l),
(555,832,l),
(465,1020,l),
(268,1358,l),
(11,1358,l),
(423,695,l),
(5,0,l)
);
}
);
width = 1130;
}
);
unicode = 88;
}
{
glyphname = Y;
layers = (
{
anchors = (
{
name = btm;
pos = (505,-157);
},
{
name = top;
pos = (505,1713);
}
);
layerId = m001;
shapes = (
{
closed = 1;
nodes = (
(615,0,l),
(615,510,l),
(1021,1358,l),
(777,1358,l),
(557,849,l),
(499,674,l),
(441,850,l),
(224,1358,l),
(-20,1358,l),
(388,510,l),
(388,0,l)
);
}
);
width = 1001;
},
{
anchors = (
{
name = btm;
pos = (505,-157);
},
{
name = top;
pos = (505,1713);
}
);
layerId = m002;
shapes = (
{
closed = 1;
nodes = (
(615,0,l),
(615,510,l),
(1021,1358,l),
(777,1358,l),
(557,849,l),
(499,674,l),
(441,850,l),
(224,1358,l),
(-20,1358,l),
(388,510,l),
(388,0,l)
);
}
);
width = 1001;
},
{
anchors = (
{
name = btm;
pos = (505,-157);
},
{
name = top;
pos = (505,1713);
}
);
layerId = m003;
shapes = (
{
closed = 1;
nodes = (
(615,0,l),
(615,510,l),
(1021,1358,l),
(777,1358,l),
(557,849,l),
(499,674,l),
(441,850,l),
(224,1358,l),
(-20,1358,l),
(388,510,l),
(388,0,l)
);
}
);
width = 1001;
}
);
unicode = 89;
}
{
glyphname = Z;
layers = (
{
anchors = (
{
name = btm;
pos = (540,-157);
},
{
name = top;
pos = (540,1713);
}
);
layerId = m001;
shapes = (
{
closed = 1;
nodes = (
(949,0,l),
(972,57,o),
(978,101,o),
(978,129,cs),
(978,152,o),
(972,178,o),
(972,178,c),
(972,178,o),
(584,178,o),
(261,177,c),
(383,302,l),
(977,1196,l),
(957,1358,l),
(131,1358,l),
(131,1358,o),
(114,1320,o),
(114,1277,cs),
(114,1256,o),
(118,1227,o),
(129,1183,c),
(129,1183,o),
(424,1183,o),
(744,1184,c),
(634,1058,l),
(42,163,l),
(82,0,l)
);
}
);
width = 1050;
},
{
anchors = (
{
name = btm;
pos = (540,-157);
},
{
name = top;
pos = (540,1713);
}
);
layerId = m002;
shapes = (
{
closed = 1;
nodes = (
(949,0,l),
(972,57,o),
(978,101,o),
(978,129,cs),
(978,152,o),
(972,178,o),
(972,178,c),
(972,178,o),
(584,178,o),
(261,177,c),
(383,302,l),
(977,1196,l),
(957,1358,l),
(131,1358,l),
(131,1358,o),
(114,1320,o),
(114,1277,cs),
(114,1256,o),
(118,1227,o),
(129,1183,c),
(129,1183,o),
(424,1183,o),
(744,1184,c),
(634,1058,l),
(42,163,l),
(82,0,l)
);
}
);
width = 1050;
},
{
anchors = (
{
name = btm;
pos = (540,-157);
},
{
name = top;
pos = (540,1713);
}
);
layerId = m003;
shapes = (
{
closed = 1;
nodes = (
(949,0,l),
(972,57,o),
(978,101,o),
(978,129,cs),
(978,152,o),
(972,178,o),
(972,178,c),
(972,178,o),
(584,178,o),
(261,177,c),
(383,302,l),
(977,1196,l),
(957,1358,l),
(131,1358,l),
(131,1358,o),
(114,1320,o),
(114,1277,cs),
(114,1256,o),
(118,1227,o),
(129,1183,c),
(129,1183,o),
(424,1183,o),
(744,1184,c),
(634,1058,l),
(42,163,l),
(82,0,l)
);
}
);
width = 1050;
}
);
unicode = 90;
}
{
glyphname = bracketleft;
layers = (
{
layerId = m001;
shapes = (
{
closed = 1;
nodes = (
(537,-331,l),
(537,-196,l),
(294,-196,l),
(294,1403,l),
(537,1403,l),
(537,1538,l),
(90,1538,l),
(90,-331,l)
);
}
);
width = 587;
},
{
layerId = m002;
shapes = (
{
closed = 1;
nodes = (
(537,-331,l),
(537,-196,l),
(294,-196,l),
(294,1403,l),
(537,1403,l),
(537,1538,l),
(90,1538,l),
(90,-331,l)
);
}
);
width = 587;
},
{
layerId = m003;
shapes = (
{
closed = 1;
nodes = (
(537,-331,l),
(537,-196,l),
(294,-196,l),
(294,1403,l),
(537,1403,l),
(537,1538,l),
(90,1538,l),
(90,-331,l)
);
}
);
width = 587;
}
);
unicode = 91;
}
{
glyphname = backslash;
layers = (
{
layerId = m001;
shapes = (
{
closed = 1;
nodes = (
(628,-232,o),
(741,-212,o),
(808,-153,c),
(528,547,l),
(228,1377,l),
(228,1377,o),
(103,1369,o),
(53,1309,c),
(374,484,l),
(628,-232,l)
);
}
);
width = 861;
},
{
layerId = m002;
shapes = (
{
closed = 1;
nodes = (
(628,-232,o),
(741,-212,o),
(808,-153,c),
(528,547,l),
(228,1377,l),
(228,1377,o),
(103,1369,o),
(53,1309,c),
(374,484,l),
(628,-232,l)
);
}
);
width = 861;
},
{
layerId = m003;
shapes = (
{
closed = 1;
nodes = (
(628,-232,o),
(741,-212,o),
(808,-153,c),
(528,547,l),
(228,1377,l),
(228,1377,o),
(103,1369,o),
(53,1309,c),
(374,484,l),
(628,-232,l)
);
}
);
width = 861;
}
);
unicode = 92;
}
{
glyphname = asciicircum;
layers = (
{
layerId = m001;
shapes = (
{
closed = 1;
nodes = (
(295,142,l),
(580,1065,l),
(591,1117,l),
(601,1065,l),
(885,142,l),
(1056,220,l),
(671,1358,l),
(512,1358,l),
(124,220,l)
);
}
);
width = 1196;
},
{
layerId = m002;
shapes = (
{
closed = 1;
nodes = (
(295,142,l),
(580,1065,l),
(591,1117,l),
(601,1065,l),
(885,142,l),
(1056,220,l),
(671,1358,l),
(512,1358,l),
(124,220,l)
);
}
);
width = 1196;
},
{
layerId = m003;
shapes = (
{
closed = 1;
nodes = (
(295,142,l),
(580,1065,l),
(591,1117,l),
(601,1065,l),
(885,142,l),
(1056,220,l),
(671,1358,l),
(512,1358,l),
(124,220,l)
);
}
);
width = 1196;
}
);
unicode = 94;
}
{
glyphname = underscore;
layers = (
{
layerId = m001;
shapes = (
{
closed = 1;
nodes = (
(-9,-332,l),
(1373,-332,l),
(1373,-177,l),
(-9,-177,l)
);
}
);
width = 1364;
},
{
layerId = m002;
shapes = (
{
closed = 1;
nodes = (
(-9,-332,l),
(1373,-332,l),
(1373,-177,l),
(-9,-177,l)
);
}
);
width = 1364;
},
{
layerId = m003;
shapes = (
{
closed = 1;
nodes = (
(-9,-332,l),
(1373,-332,l),
(1373,-177,l),
(-9,-177,l)
);
}
);
width = 1364;
}
);
unicode = 95;
}
{
glyphname = grave;
layers = (
{
anchors = (
{
name = _top;
pos = (129,1713);
}
);
layerId = m001;
shapes = (
{
closed = 1;
nodes = (
(240,1185,o),
(291,1227,o),
(304,1259,c),
(59,1605,l),
(10,1591,o),
(-99,1508,o),
(-118,1468,c),
(199,1169,l)
);
}
);
width = 551;
},
{
anchors = (
{
name = _top;
pos = (129,1713);
}
);
layerId = m002;
shapes = (
{
closed = 1;
nodes = (
(240,1185,o),
(291,1227,o),
(304,1259,c),
(59,1605,l),
(10,1591,o),
(-99,1508,o),
(-118,1468,c),
(199,1169,l)
);
}
);
width = 551;
},
{
anchors = (
{
name = _top;
pos = (129,1713);
}
);
layerId = m003;
shapes = (
{
closed = 1;
nodes = (
(240,1185,o),
(291,1227,o),
(304,1259,c),
(59,1605,l),
(10,1591,o),
(-99,1508,o),
(-118,1468,c),
(199,1169,l)
);
}
);
width = 551;
}
);
unicode = 96;
}
{
glyphname = a;
layers = (
{
anchors = (
{
name = btm;
pos = (403,-157);
},
{
name = og;
pos = (956,-157);
},
{
name = top;
pos = (521,1713);
}
);
layerId = m001;
shapes = (
{
closed = 1;
nodes = (
(64,107,o),
(195,-20,o),
(395,-20,cs),
(522,-20,o),
(630,76,o),
(643,89,c),
(679,89,l),
(756,0,l),
(941,0,l),
(941,63,l),
(857,165,l),
(857,723,l),
(857,947,o),
(774,1051,o),
(469,1051,cs),
(285,1051,o),
(124,967,o),
(124,967,c),
(124,967,o),
(133,888,o),
(191,806,c),
(191,806,o),
(313,882,o),
(457,882,cs),
(601,882,o),
(647,842,o),
(647,699,c),
(647,619,l),
(424,607,l),
(196,594,o),
(64,514,o),
(64,292,cs)
);
},
{
closed = 1;
nodes = (
(282,398,o),
(321,464,o),
(446,471,c),
(647,484,l),
(647,215,l),
(647,215,o),
(565,153,o),
(463,153,cs),
(354,153,o),
(282,187,o),
(282,310,cs)
);
}
);
width = 992;
},
{
anchors = (
{
name = btm;
pos = (403,-157);
},
{
name = og;
pos = (956,-157);
},
{
name = top;
pos = (521,1713);
}
);
layerId = m002;
shapes = (
{
closed = 1;
nodes = (
(64,107,o),
(195,-20,o),
(395,-20,cs),
(522,-20,o),
(630,76,o),
(643,89,c),
(679,89,l),
(756,0,l),
(941,0,l),
(941,63,l),
(857,165,l),
(857,723,l),
(857,947,o),
(774,1051,o),
(469,1051,cs),
(285,1051,o),
(124,967,o),
(124,967,c),
(124,967,o),
(133,888,o),
(191,806,c),
(191,806,o),
(313,882,o),
(457,882,cs),
(601,882,o),
(647,842,o),
(647,699,c),
(647,619,l),
(424,607,l),
(196,594,o),
(64,514,o),
(64,292,cs)
);
},
{
closed = 1;
nodes = (
(282,398,o),
(321,464,o),
(446,471,c),
(647,484,l),
(647,215,l),
(647,215,o),
(565,153,o),
(463,153,cs),
(354,153,o),
(282,187,o),
(282,310,cs)
);
}
);
width = 992;
},
{
anchors = (
{
name = btm;
pos = (403,-157);
},
{
name = og;
pos = (956,-157);
},
{
name = top;
pos = (521,1713);
}
);
layerId = m003;
shapes = (
{
closed = 1;
nodes = (
(64,107,o),
(195,-20,o),
(395,-20,cs),
(522,-20,o),
(630,76,o),
(643,89,c),
(679,89,l),
(756,0,l),
(941,0,l),
(941,63,l),
(857,165,l),
(857,723,l),
(857,947,o),
(774,1051,o),
(469,1051,cs),
(285,1051,o),
(124,967,o),
(124,967,c),
(124,967,o),
(133,888,o),
(191,806,c),
(191,806,o),
(313,882,o),
(457,882,cs),
(601,882,o),
(647,842,o),
(647,699,c),
(647,619,l),
(424,607,l),
(196,594,o),
(64,514,o),
(64,292,cs)
);
},
{
closed = 1;
nodes = (
(282,398,o),
(321,464,o),
(446,471,c),
(647,484,l),
(647,215,l),
(647,215,o),
(565,153,o),
(463,153,cs),
(354,153,o),
(282,187,o),
(282,310,cs)
);
}
);
width = 992;
}
);
unicode = 97;
}
{
glyphname = c;
layers = (
{
anchors = (
{
name = btm;
pos = (599,-157);
},
{
name = top;
pos = (510,1713);
}
);
layerId = m001;
shapes = (
{
closed = 1;
nodes = (
(79,160,o),
(257,-20,o),
(570,-20,cs),
(683,-20,o),
(808,27,o),
(808,27,c),
(810,117,o),
(773,191,o),
(773,191,c),
(773,191,o),
(676,148,o),
(570,148,cs),
(391,148,o),
(296,275,o),
(296,514,cs),
(296,734,o),
(381,870,o),
(560,870,cs),
(664,870,o),
(754,827,o),
(754,827,c),
(792,905,o),
(801,1001,o),
(801,1001,c),
(801,1001,o),
(673,1051,o),
(560,1051,cs),
(254,1051,o),
(79,864,o),
(79,513,cs)
);
}
);
userData = {
com.typemytype.robofont.guides = (
{
angle = 0;
isGlobal = 0;
magnetic = 5;
x = 0;
y = 938;
},
{
angle = 0;
isGlobal = 0;
magnetic = 5;
x = 0;
y = 139;
}
);
};
width = 858;
},
{
anchors = (
{
name = btm;
pos = (599,-157);
},
{
name = top;
pos = (510,1713);
}
);
layerId = m002;
shapes = (
{
closed = 1;
nodes = (
(79,160,o),
(257,-20,o),
(570,-20,cs),
(683,-20,o),
(808,27,o),
(808,27,c),
(810,117,o),
(773,191,o),
(773,191,c),
(773,191,o),
(676,148,o),
(570,148,cs),
(391,148,o),
(296,275,o),
(296,514,cs),
(296,734,o),
(381,870,o),
(560,870,cs),
(664,870,o),
(754,827,o),
(754,827,c),
(792,905,o),
(801,1001,o),
(801,1001,c),
(801,1001,o),
(673,1051,o),
(560,1051,cs),
(254,1051,o),
(79,864,o),
(79,513,cs)
);
}
);
userData = {
com.typemytype.robofont.guides = (
{
angle = 0;
isGlobal = 0;
magnetic = 5;
x = 0;
y = 938;
},
{
angle = 0;
isGlobal = 0;
magnetic = 5;
x = 0;
y = 139;
}
);
};
width = 858;
},
{
anchors = (
{
name = btm;
pos = (599,-157);
},
{
name = top;
pos = (510,1713);
}
);
layerId = m003;
shapes = (
{
closed = 1;
nodes = (
(79,160,o),
(257,-20,o),
(570,-20,cs),
(683,-20,o),
(808,27,o),
(808,27,c),
(810,117,o),
(773,191,o),
(773,191,c),
(773,191,o),
(676,148,o),
(570,148,cs),
(391,148,o),
(296,275,o),
(296,514,cs),
(296,734,o),
(381,870,o),
(560,870,cs),
(664,870,o),
(754,827,o),
(754,827,c),
(792,905,o),
(801,1001,o),
(801,1001,c),
(801,1001,o),
(673,1051,o),
(560,1051,cs),
(254,1051,o),
(79,864,o),
(79,513,cs)
);
}
);
userData = {
com.typemytype.robofont.guides = (
{
angle = 0;
isGlobal = 0;
magnetic = 5;
x = 0;
y = 938;
},
{
angle = 0;
isGlobal = 0;
magnetic = 5;
x = 0;
y = 139;
}
);
};
width = 858;
}
);
unicode = 99;
}
{
glyphname = d;
layers = (
{
anchors = (
{
name = btm;
pos = (502,-157);
},
{
name = top;
pos = (454,1713);
}
);
layerId = m001;
shapes = (
{
closed = 1;
nodes = (
(79,137,o),
(308,-20,o),
(506,-20,cs),
(655,-20,o),
(726,67,o),
(738,79,c),
(772,79,l),
(841,0,l),
(1041,0,l),
(1041,63,l),
(953,165,l),
(953,1439,l),
(740,1439,l),
(740,1027,l),
(740,1027,o),
(677,1051,o),
(577,1051,cs),
(309,1051,o),
(79,874,o),
(79,493,cs)
);
},
{
closed = 1;
nodes = (
(303,756,o),
(423,898,o),
(631,898,cs),
(691,898,o),
(723,884,o),
(740,874,c),
(740,198,l),
(740,198,o),
(650,144,o),
(583,144,cs),
(409,144,o),
(303,245,o),
(303,493,cs)
);
}
);
width = 1089;
},
{
anchors = (
{
name = btm;
pos = (502,-157);
},
{
name = top;
pos = (454,1713);
}
);
layerId = m002;
shapes = (
{
closed = 1;
nodes = (
(79,137,o),
(308,-20,o),
(506,-20,cs),
(655,-20,o),
(726,67,o),
(738,79,c),
(772,79,l),
(841,0,l),
(1041,0,l),
(1041,63,l),
(953,165,l),
(953,1439,l),
(740,1439,l),
(740,1027,l),
(740,1027,o),
(677,1051,o),
(577,1051,cs),
(309,1051,o),
(79,874,o),
(79,493,cs)
);
},
{
closed = 1;
nodes = (
(303,756,o),
(423,898,o),
(631,898,cs),
(691,898,o),
(723,884,o),
(740,874,c),
(740,198,l),
(740,198,o),
(650,144,o),
(583,144,cs),
(409,144,o),
(303,245,o),
(303,493,cs)
);
}
);
width = 1089;
},
{
anchors = (
{
name = btm;
pos = (502,-157);
},
{
name = top;
pos = (454,1713);
}
);
layerId = m003;
shapes = (
{
closed = 1;
nodes = (
(79,137,o),
(308,-20,o),
(506,-20,cs),
(655,-20,o),
(726,67,o),
(738,79,c),
(772,79,l),
(841,0,l),
(1041,0,l),
(1041,63,l),
(953,165,l),
(953,1439,l),
(740,1439,l),
(740,1027,l),
(740,1027,o),
(677,1051,o),
(577,1051,cs),
(309,1051,o),
(79,874,o),
(79,493,cs)
);
},
{
closed = 1;
nodes = (
(303,756,o),
(423,898,o),
(631,898,cs),
(691,898,o),
(723,884,o),
(740,874,c),
(740,198,l),
(740,198,o),
(650,144,o),
(583,144,cs),
(409,144,o),
(303,245,o),
(303,493,cs)
);
}
);
width = 1089;
}
);
unicode = 100;
}
{
glyphname = e;
layers = (
{
anchors = (
{
name = btm;
pos = (577,-157);
},
{
name = top;
pos = (528,1713);
}
);
layerId = m001;
shapes = (
{
closed = 1;
nodes = (
(77,114,o),
(261,-20,o),
(580,-20,cs),
(782,-20,o),
(892,40,o),
(892,40,c),
(892,40,o),
(891,109,o),
(850,203,c),
(850,203,o),
(748,148,o),
(580,148,cs),
(383,148,o),
(293,211,o),
(290,449,c),
(946,446,l),
(946,446,o),
(965,514,o),
(965,604,cs),
(965,867,o),
(811,1050,o),
(553,1050,cs),
(274,1050,o),
(77,886,o),
(77,501,cs)
);
},
{
closed = 1;
nodes = (
(293,804,o),
(380,889,o),
(549,889,cs),
(665,889,o),
(751,798,o),
(751,629,c),
(751,595,l),
(293,595,l)
);
}
);
userData = {
com.typemytype.robofont.guides = (
{
angle = 0;
isGlobal = 0;
magnetic = 5;
x = 0;
y = 1429;
},
{
angle = 0;
isGlobal = 0;
magnetic = 5;
x = 0;
y = 139;
}
);
};
width = 1043;
},
{
anchors = (
{
name = btm;
pos = (577,-157);
},
{
name = top;
pos = (528,1713);
}
);
layerId = m002;
shapes = (
{
closed = 1;
nodes = (
(77,114,o),
(261,-20,o),
(580,-20,cs),
(782,-20,o),
(892,40,o),
(892,40,c),
(892,40,o),
(891,109,o),
(850,203,c),
(850,203,o),
(748,148,o),
(580,148,cs),
(383,148,o),
(293,211,o),
(290,449,c),
(946,446,l),
(946,446,o),
(965,514,o),
(965,604,cs),
(965,867,o),
(811,1050,o),
(553,1050,cs),
(274,1050,o),
(77,886,o),
(77,501,cs)
);
},
{
closed = 1;
nodes = (
(293,804,o),
(380,889,o),
(549,889,cs),
(665,889,o),
(751,798,o),
(751,629,c),
(751,595,l),
(293,595,l)
);
}
);
userData = {
com.typemytype.robofont.guides = (
{
angle = 0;
isGlobal = 0;
magnetic = 5;
x = 0;
y = 1429;
},
{
angle = 0;
isGlobal = 0;
magnetic = 5;
x = 0;
y = 139;
}
);
};
width = 1043;
},
{
anchors = (
{
name = btm;
pos = (577,-157);
},
{
name = top;
pos = (528,1713);
}
);
layerId = m003;
shapes = (
{
closed = 1;
nodes = (
(77,114,o),
(261,-20,o),
(580,-20,cs),
(782,-20,o),
(892,40,o),
(892,40,c),
(892,40,o),
(891,109,o),
(850,203,c),
(850,203,o),
(748,148,o),
(580,148,cs),
(383,148,o),
(293,211,o),
(290,449,c),
(946,446,l),
(946,446,o),
(965,514,o),
(965,604,cs),
(965,867,o),
(811,1050,o),
(553,1050,cs),
(274,1050,o),
(77,886,o),
(77,501,cs)
);
},
{
closed = 1;
nodes = (
(293,804,o),
(380,889,o),
(549,889,cs),
(665,889,o),
(751,798,o),
(751,629,c),
(751,595,l),
(293,595,l)
);
}
);
userData = {
com.typemytype.robofont.guides = (
{
angle = 0;
isGlobal = 0;
magnetic = 5;
x = 0;
y = 1429;
},
{
angle = 0;
isGlobal = 0;
magnetic = 5;
x = 0;
y = 139;
}
);
};
width = 1043;
}
);
unicode = 101;
}
{
glyphname = f;
layers = (
{
anchors = (
{
name = btm;
pos = (297,-157);
},
{
name = top;
pos = (289,2033);
}
);
layerId = m001;
shapes = (
{
closed = 1;
nodes = (
(416,0,l),
(416,867,l),
(617,867,l),
(641,916,o),
(646,955,o),
(646,982,cs),
(646,1008,o),
(641,1022,o),
(641,1022,c),
(416,1022,l),
(416,1126,l),
(416,1240,o),
(461,1287,o),
(551,1287,cs),
(606,1287,o),
(659,1270,o),
(659,1270,c),
(702,1351,o),
(706,1434,o),
(706,1434,c),
(706,1434,o),
(646,1460,o),
(536,1460,cs),
(307,1460,o),
(206,1301,o),
(206,1132,c),
(206,1022,l),
(59,1022,l),
(59,1022,o),
(53,989,o),
(53,950,cs),
(53,927,o),
(54,899,o),
(58,867,c),
(206,867,l),
(206,0,l)
);
}
);
width = 696;
},
{
anchors = (
{
name = btm;
pos = (297,-157);
},
{
name = top;
pos = (289,2033);
}
);
layerId = m002;
shapes = (
{
closed = 1;
nodes = (
(416,0,l),
(416,867,l),
(617,867,l),
(641,916,o),
(646,955,o),
(646,982,cs),
(646,1008,o),
(641,1022,o),
(641,1022,c),
(416,1022,l),
(416,1126,l),
(416,1240,o),
(461,1287,o),
(551,1287,cs),
(606,1287,o),
(659,1270,o),
(659,1270,c),
(702,1351,o),
(706,1434,o),
(706,1434,c),
(706,1434,o),
(646,1460,o),
(536,1460,cs),
(307,1460,o),
(206,1301,o),
(206,1132,c),
(206,1022,l),
(59,1022,l),
(59,1022,o),
(53,989,o),
(53,950,cs),
(53,927,o),
(54,899,o),
(58,867,c),
(206,867,l),
(206,0,l)
);
}
);
width = 696;
},
{
anchors = (
{
name = btm;
pos = (297,-157);
},
{
name = top;
pos = (289,2033);
}
);
layerId = m003;
shapes = (
{
closed = 1;
nodes = (
(416,0,l),
(416,867,l),
(617,867,l),
(641,916,o),
(646,955,o),
(646,982,cs),
(646,1008,o),
(641,1022,o),
(641,1022,c),
(416,1022,l),
(416,1126,l),
(416,1240,o),
(461,1287,o),
(551,1287,cs),
(606,1287,o),
(659,1270,o),
(659,1270,c),
(702,1351,o),
(706,1434,o),
(706,1434,c),
(706,1434,o),
(646,1460,o),
(536,1460,cs),
(307,1460,o),
(206,1301,o),
(206,1132,c),
(206,1022,l),
(59,1022,l),
(59,1022,o),
(53,989,o),
(53,950,cs),
(53,927,o),
(54,899,o),
(58,867,c),
(206,867,l),
(206,0,l)
);
}
);
width = 696;
}
);
unicode = 102;
}
{
glyphname = g;
layers = (
{
anchors = (
{
name = btm;
pos = (463,-157);
},
{
name = top;
pos = (533,1713);
}
);
layerId = m001;
shapes = (
{
closed = 1;
nodes = (
(213,18,o),
(94,-86,o),
(94,-198,cs),
(94,-366,o),
(258,-493,o),
(535,-493,cs),
(536,-493,ls),
(872,-493,o),
(1052,-317,o),
(1052,-114,cs),
(1052,46,o),
(988,157,o),
(798,157,cs),
(403,157,ls),
(370,157,o),
(330,172,o),
(330,201,cs),
(330,339,l),
(380,327,o),
(459,319,o),
(514,319,c),
(515,319,l),
(763,320,o),
(943,469,o),
(943,689,cs),
(943,770,o),
(899,850,o),
(864,885,c),
(1027,885,l),
(1027,1047,l),
(745,1017,l),
(745,1017,o),
(689,1049,o),
(515,1049,c),
(514,1049,l),
(263,1049,o),
(103,913,o),
(103,689,cs),
(103,566,o),
(145,481,o),
(208,418,c),
(208,372,l),
(208,372,o),
(166,310,o),
(166,188,cs),
(166,133,o),
(182,78,o),
(213,41,c),
(213,18,l)
);
},
{
closed = 1;
nodes = (
(351,468,o),
(309,539,o),
(309,689,cs),
(309,840,o),
(353,900,o),
(514,900,c),
(515,900,l),
(673,900,o),
(737,840,o),
(737,689,cs),
(737,525,o),
(672,468,o),
(515,468,c),
(514,468,l)
);
},
{
closed = 1;
nodes = (
(290,-90,o),
(317,-35,o),
(333,-18,c),
(780,-18,ls),
(828,-18,o),
(853,-54,o),
(853,-116,cs),
(853,-214,o),
(753,-324,o),
(541,-324,c),
(540,-324,l),
(320,-324,o),
(290,-231,o),
(290,-161,cs)
);
},
{
closed = 0;
nodes = (
(333,-18,l)
);
}
);
userData = {
com.typemytype.robofont.guides = (
{
angle = 90;
isGlobal = 0;
magnetic = 5;
x = 486;
y = 0;
}
);
};
width = 1107;
},
{
anchors = (
{
name = btm;
pos = (463,-157);
},
{
name = top;
pos = (533,1713);
}
);
layerId = m002;
shapes = (
{
closed = 1;
nodes = (
(213,18,o),
(94,-86,o),
(94,-198,cs),
(94,-366,o),
(258,-493,o),
(535,-493,cs),
(536,-493,ls),
(872,-493,o),
(1052,-317,o),
(1052,-114,cs),
(1052,46,o),
(988,157,o),
(798,157,cs),
(403,157,ls),
(370,157,o),
(330,172,o),
(330,201,cs),
(330,339,l),
(380,327,o),
(459,319,o),
(514,319,c),
(515,319,l),
(763,320,o),
(943,469,o),
(943,689,cs),
(943,770,o),
(899,850,o),
(864,885,c),
(1027,885,l),
(1027,1047,l),
(745,1017,l),
(745,1017,o),
(689,1049,o),
(515,1049,c),
(514,1049,l),
(263,1049,o),
(103,913,o),
(103,689,cs),
(103,566,o),
(145,481,o),
(208,418,c),
(208,372,l),
(208,372,o),
(166,310,o),
(166,188,cs),
(166,133,o),
(182,78,o),
(213,41,c),
(213,18,l)
);
},
{
closed = 1;
nodes = (
(351,468,o),
(309,539,o),
(309,689,cs),
(309,840,o),
(353,900,o),
(514,900,c),
(515,900,l),
(673,900,o),
(737,840,o),
(737,689,cs),
(737,525,o),
(672,468,o),
(515,468,c),
(514,468,l)
);
},
{
closed = 1;
nodes = (
(290,-90,o),
(317,-35,o),
(333,-18,c),
(780,-18,ls),
(828,-18,o),
(853,-54,o),
(853,-116,cs),
(853,-214,o),
(753,-324,o),
(541,-324,c),
(540,-324,l),
(320,-324,o),
(290,-231,o),
(290,-161,cs)
);
},
{
closed = 0;
nodes = (
(333,-18,l)
);
}
);
userData = {
com.typemytype.robofont.guides = (
{
angle = 90;
isGlobal = 0;
magnetic = 5;
x = 486;
y = 0;
}
);
};
width = 1107;
},
{
anchors = (
{
name = btm;
pos = (463,-157);
},
{
name = top;
pos = (533,1713);
}
);
layerId = m003;
shapes = (
{
closed = 1;
nodes = (
(213,18,o),
(94,-86,o),
(94,-198,cs),
(94,-366,o),
(258,-493,o),
(535,-493,cs),
(536,-493,ls),
(872,-493,o),
(1052,-317,o),
(1052,-114,cs),
(1052,46,o),
(988,157,o),
(798,157,cs),
(403,157,ls),
(370,157,o),
(330,172,o),
(330,201,cs),
(330,339,l),
(380,327,o),
(459,319,o),
(514,319,c),
(515,319,l),
(763,320,o),
(943,469,o),
(943,689,cs),
(943,770,o),
(899,850,o),
(864,885,c),
(1027,885,l),
(1027,1047,l),
(745,1017,l),
(745,1017,o),
(689,1049,o),
(515,1049,c),
(514,1049,l),
(263,1049,o),
(103,913,o),
(103,689,cs),
(103,566,o),
(145,481,o),
(208,418,c),
(208,372,l),
(208,372,o),
(166,310,o),
(166,188,cs),
(166,133,o),
(182,78,o),
(213,41,c),
(213,18,l)
);
},
{
closed = 1;
nodes = (
(351,468,o),
(309,539,o),
(309,689,cs),
(309,840,o),
(353,900,o),
(514,900,c),
(515,900,l),
(673,900,o),
(737,840,o),
(737,689,cs),
(737,525,o),
(672,468,o),
(515,468,c),
(514,468,l)
);
},
{
closed = 1;
nodes = (
(290,-90,o),
(317,-35,o),
(333,-18,c),
(780,-18,ls),
(828,-18,o),
(853,-54,o),
(853,-116,cs),
(853,-214,o),
(753,-324,o),
(541,-324,c),
(540,-324,l),
(320,-324,o),
(290,-231,o),
(290,-161,cs)
);
},
{
closed = 0;
nodes = (
(333,-18,l)
);
}
);
userData = {
com.typemytype.robofont.guides = (
{
angle = 90;
isGlobal = 0;
magnetic = 5;
x = 486;
y = 0;
}
);
};
width = 1107;
}
);
unicode = 103;
}
{
glyphname = h;
layers = (
{
anchors = (
{
name = btm;
pos = (562,-157);
},
{
name = top;
pos = (639,1713);
}
);
layerId = m001;
shapes = (
{
closed = 1;
nodes = (
(351,0,l),
(351,831,l),
(351,831,o),
(455,887,o),
(582,887,cs),
(715,887,o),
(769,819,o),
(769,675,cs),
(769,0,l),
(984,0,l),
(984,696,ls),
(984,911,o),
(862,1050,o),
(638,1050,cs),
(496,1050,o),
(367,968,o),
(347,951,c),
(341,951,l),
(351,1104,l),
(351,1440,l),
(136,1440,l),
(136,0,l)
);
}
);
width = 1127;
},
{
anchors = (
{
name = btm;
pos = (562,-157);
},
{
name = top;
pos = (639,1713);
}
);
layerId = m002;
shapes = (
{
closed = 1;
nodes = (
(351,0,l),
(351,831,l),
(351,831,o),
(455,887,o),
(582,887,cs),
(715,887,o),
(769,819,o),
(769,675,cs),
(769,0,l),
(984,0,l),
(984,696,ls),
(984,911,o),
(862,1050,o),
(638,1050,cs),
(496,1050,o),
(367,968,o),
(347,951,c),
(341,951,l),
(351,1104,l),
(351,1440,l),
(136,1440,l),
(136,0,l)
);
}
);
width = 1127;
},
{
anchors = (
{
name = btm;
pos = (562,-157);
},
{
name = top;
pos = (639,1713);
}
);
layerId = m003;
shapes = (
{
closed = 1;
nodes = (
(351,0,l),
(351,831,l),
(351,831,o),
(455,887,o),
(582,887,cs),
(715,887,o),
(769,819,o),
(769,675,cs),
(769,0,l),
(984,0,l),
(984,696,ls),
(984,911,o),
(862,1050,o),
(638,1050,cs),
(496,1050,o),
(367,968,o),
(347,951,c),
(341,951,l),
(351,1104,l),
(351,1440,l),
(136,1440,l),
(136,0,l)
);
}
);
width = 1127;
}
);
unicode = 104;
}
{
glyphname = i;
layers = (
{
anchors = (
{
name = btm;
pos = (260,-157);
},
{
name = og;
pos = (338,-157);
},
{
name = top;
pos = (260,1713);
}
);
layerId = m001;
shapes = (
{
closed = 1;
nodes = (
(331,1195,o),
(393,1251,o),
(393,1320,cs),
(393,1391,o),
(331,1446,o),
(256,1446,cs),
(182,1446,o),
(120,1391,o),
(120,1320,cs),
(120,1251,o),
(182,1195,o),
(256,1195,cs)
);
},
{
closed = 1;
nodes = (
(141,49,o),
(217,0,o),
(349,0,c),
(349,2,l),
(351,0,l),
(408,0,l),
(408,126,l),
(349,168,l),
(349,1022,l),
(141,1022,l),
(141,172,ls)
);
}
);
width = 521;
},
{
anchors = (
{
name = btm;
pos = (260,-157);
},
{
name = og;
pos = (338,-157);
},
{
name = top;
pos = (260,1713);
}
);
layerId = m002;
shapes = (
{
closed = 1;
nodes = (
(331,1195,o),
(393,1251,o),
(393,1320,cs),
(393,1391,o),
(331,1446,o),
(256,1446,cs),
(182,1446,o),
(120,1391,o),
(120,1320,cs),
(120,1251,o),
(182,1195,o),
(256,1195,cs)
);
},
{
closed = 1;
nodes = (
(141,49,o),
(217,0,o),
(349,0,c),
(349,2,l),
(351,0,l),
(408,0,l),
(408,126,l),
(349,168,l),
(349,1022,l),
(141,1022,l),
(141,172,ls)
);
}
);
width = 521;
},
{
anchors = (
{
name = btm;
pos = (260,-157);
},
{
name = og;
pos = (338,-157);
},
{
name = top;
pos = (260,1713);
}
);
layerId = m003;
shapes = (
{
closed = 1;
nodes = (
(331,1195,o),
(393,1251,o),
(393,1320,cs),
(393,1391,o),
(331,1446,o),
(256,1446,cs),
(182,1446,o),
(120,1391,o),
(120,1320,cs),
(120,1251,o),
(182,1195,o),
(256,1195,cs)
);
},
{
closed = 1;
nodes = (
(141,49,o),
(217,0,o),
(349,0,c),
(349,2,l),
(351,0,l),
(408,0,l),
(408,126,l),
(349,168,l),
(349,1022,l),
(141,1022,l),
(141,172,ls)
);
}
);
width = 521;
}
);
unicode = 105;
}
{
glyphname = j;
layers = (
{
anchors = (
{
name = btm;
pos = (214,-157);
},
{
name = top;
pos = (214,1713);
}
);
layerId = m001;
shapes = (
{
closed = 1;
nodes = (
(158,-195,o),
(111,-258,o),
(23,-278,c),
(23,-278,o),
(28,-331,o),
(77,-410,c),
(292,-362,o),
(374,-265,o),
(374,-98,c),
(374,1020,l),
(158,1020,l),
(158,-80,ls)
);
},
{
closed = 1;
nodes = (
(345,1195,o),
(408,1251,o),
(408,1320,cs),
(408,1391,o),
(345,1446,o),
(270,1446,cs),
(196,1446,o),
(135,1391,o),
(135,1320,cs),
(135,1251,o),
(196,1195,o),
(270,1195,cs)
);
}
);
width = 521;
},
{
anchors = (
{
name = btm;
pos = (214,-157);
},
{
name = top;
pos = (214,1713);
}
);
layerId = m002;
shapes = (
{
closed = 1;
nodes = (
(158,-195,o),
(111,-258,o),
(23,-278,c),
(23,-278,o),
(28,-331,o),
(77,-410,c),
(292,-362,o),
(374,-265,o),
(374,-98,c),
(374,1020,l),
(158,1020,l),
(158,-80,ls)
);
},
{
closed = 1;
nodes = (
(345,1195,o),
(408,1251,o),
(408,1320,cs),
(408,1391,o),
(345,1446,o),
(270,1446,cs),
(196,1446,o),
(135,1391,o),
(135,1320,cs),
(135,1251,o),
(196,1195,o),
(270,1195,cs)
);
}
);
width = 521;
},
{
anchors = (
{
name = btm;
pos = (214,-157);
},
{
name = top;
pos = (214,1713);
}
);
layerId = m003;
shapes = (
{
closed = 1;
nodes = (
(158,-195,o),
(111,-258,o),
(23,-278,c),
(23,-278,o),
(28,-331,o),
(77,-410,c),
(292,-362,o),
(374,-265,o),
(374,-98,c),
(374,1020,l),
(158,1020,l),
(158,-80,ls)
);
},
{
closed = 1;
nodes = (
(345,1195,o),
(408,1251,o),
(408,1320,cs),
(408,1391,o),
(345,1446,o),
(270,1446,cs),
(196,1446,o),
(135,1391,o),
(135,1320,cs),
(135,1251,o),
(196,1195,o),
(270,1195,cs)
);
}
);
width = 521;
}
);
unicode = 106;
}
{
glyphname = k;
layers = (
{
anchors = (
{
name = btm;
pos = (520,-157);
},
{
name = top;
pos = (561,1713);
}
);
layerId = m001;
shapes = (
{
closed = 1;
nodes = (
(340,0,l),
(340,340,l),
(330,522,l),
(377,462,l),
(721,0,l),
(964,0,l),
(603,472,l),
(538,531,l),
(621,610,l),
(946,1022,l),
(704,1022,l),
(383,597,l),
(330,534,l),
(340,679,l),
(340,1440,l),
(136,1440,l),
(136,0,l)
);
}
);
width = 985;
},
{
anchors = (
{
name = btm;
pos = (520,-157);
},
{
name = top;
pos = (561,1713);
}
);
layerId = m002;
shapes = (
{
closed = 1;
nodes = (
(340,0,l),
(340,340,l),
(330,522,l),
(377,462,l),
(721,0,l),
(964,0,l),
(603,472,l),
(538,531,l),
(621,610,l),
(946,1022,l),
(704,1022,l),
(383,597,l),
(330,534,l),
(340,679,l),
(340,1440,l),
(136,1440,l),
(136,0,l)
);
}
);
width = 985;
},
{
anchors = (
{
name = btm;
pos = (520,-157);
},
{
name = top;
pos = (561,1713);
}
);
layerId = m003;
shapes = (
{
closed = 1;
nodes = (
(340,0,l),
(340,340,l),
(330,522,l),
(377,462,l),
(721,0,l),
(964,0,l),
(603,472,l),
(538,531,l),
(621,610,l),
(946,1022,l),
(704,1022,l),
(383,597,l),
(330,534,l),
(340,679,l),
(340,1440,l),
(136,1440,l),
(136,0,l)
);
}
);
width = 985;
}
);
unicode = 107;
}
{
glyphname = l;
layers = (
{
anchors = (
{
name = btm;
pos = (240,-157);
},
{
name = top;
pos = (240,1713);
}
);
layerId = m001;
shapes = (
{
closed = 1;
nodes = (
(124,49,o),
(199,0,o),
(331,0,c),
(331,2,l),
(333,0,l),
(390,0,l),
(390,126,l),
(331,168,l),
(331,1439,l),
(124,1439,l),
(124,172,ls)
);
}
);
userData = {
com.typemytype.robofont.guides = (
{
angle = 90;
isGlobal = 0;
magnetic = 5;
x = -548;
y = 0;
}
);
};
width = 483;
},
{
anchors = (
{
name = btm;
pos = (240,-157);
},
{
name = top;
pos = (240,1713);
}
);
layerId = m002;
shapes = (
{
closed = 1;
nodes = (
(124,49,o),
(199,0,o),
(331,0,c),
(331,2,l),
(333,0,l),
(390,0,l),
(390,126,l),
(331,168,l),
(331,1439,l),
(124,1439,l),
(124,172,ls)
);
}
);
userData = {
com.typemytype.robofont.guides = (
{
angle = 90;
isGlobal = 0;
magnetic = 5;
x = -548;
y = 0;
}
);
};
width = 483;
},
{
anchors = (
{
name = btm;
pos = (240,-157);
},
{
name = top;
pos = (240,1713);
}
);
layerId = m003;
shapes = (
{
closed = 1;
nodes = (
(124,49,o),
(199,0,o),
(331,0,c),
(331,2,l),
(333,0,l),
(390,0,l),
(390,126,l),
(331,168,l),
(331,1439,l),
(124,1439,l),
(124,172,ls)
);
}
);
userData = {
com.typemytype.robofont.guides = (
{
angle = 90;
isGlobal = 0;
magnetic = 5;
x = -548;
y = 0;
}
);
};
width = 483;
}
);
unicode = 108;
}
{
glyphname = m;
layers = (
{
anchors = (
{
name = btm;
pos = (844,-157);
},
{
name = top;
pos = (887,1713);
}
);
layerId = m001;
shapes = (
{
closed = 1;
nodes = (
(152,0,l),
(366,0,l),
(366,833,l),
(366,833,o),
(462,888,o),
(584,888,cs),
(714,888,o),
(761,826,o),
(761,696,c),
(761,0,l),
(976,0,l),
(976,717,l),
(976,766,o),
(964,816,o),
(946,858,c),
(979,873,o),
(1055,888,o),
(1133,888,cs),
(1266,888,o),
(1349,820,o),
(1349,676,c),
(1349,0,l),
(1564,0,l),
(1564,697,l),
(1564,912,o),
(1412,1051,o),
(1187,1051,cs),
(1058,1051,o),
(930,986,o),
(886,950,c),
(829,1015,o),
(757,1051,o),
(639,1051,cs),
(510,1051,o),
(383,975,o),
(370,962,c),
(343,946,l),
(257,1033,l),
(73,1033,l),
(73,920,l),
(152,839,l)
);
}
);
width = 1707;
},
{
anchors = (
{
name = btm;
pos = (844,-157);
},
{
name = top;
pos = (887,1713);
}
);
layerId = m002;
shapes = (
{
closed = 1;
nodes = (
(152,0,l),
(366,0,l),
(366,833,l),
(366,833,o),
(462,888,o),
(584,888,cs),
(714,888,o),
(761,826,o),
(761,696,c),
(761,0,l),
(976,0,l),
(976,717,l),
(976,766,o),
(964,816,o),
(946,858,c),
(979,873,o),
(1055,888,o),
(1133,888,cs),
(1266,888,o),
(1349,820,o),
(1349,676,c),
(1349,0,l),
(1564,0,l),
(1564,697,l),
(1564,912,o),
(1412,1051,o),
(1187,1051,cs),
(1058,1051,o),
(930,986,o),
(886,950,c),
(829,1015,o),
(757,1051,o),
(639,1051,cs),
(510,1051,o),
(383,975,o),
(370,962,c),
(343,946,l),
(257,1033,l),
(73,1033,l),
(73,920,l),
(152,839,l)
);
}
);
width = 1707;
},
{
anchors = (
{
name = btm;
pos = (844,-157);
},
{
name = top;
pos = (887,1713);
}
);
layerId = m003;
shapes = (
{
closed = 1;
nodes = (
(152,0,l),
(366,0,l),
(366,833,l),
(366,833,o),
(462,888,o),
(584,888,cs),
(714,888,o),
(761,826,o),
(761,696,c),
(761,0,l),
(976,0,l),
(976,717,l),
(976,766,o),
(964,816,o),
(946,858,c),
(979,873,o),
(1055,888,o),
(1133,888,cs),
(1266,888,o),
(1349,820,o),
(1349,676,c),
(1349,0,l),
(1564,0,l),
(1564,697,l),
(1564,912,o),
(1412,1051,o),
(1187,1051,cs),
(1058,1051,o),
(930,986,o),
(886,950,c),
(829,1015,o),
(757,1051,o),
(639,1051,cs),
(510,1051,o),
(383,975,o),
(370,962,c),
(343,946,l),
(257,1033,l),
(73,1033,l),
(73,920,l),
(152,839,l)
);
}
);
width = 1707;
}
);
unicode = 109;
}
{
glyphname = n;
layers = (
{
anchors = (
{
name = btm;
pos = (600,-157);
},
{
name = top;
pos = (624,1713);
}
);
layerId = m001;
shapes = (
{
closed = 1;
nodes = (
(366,0,l),
(366,831,l),
(366,831,o),
(471,887,o),
(600,887,cs),
(731,887,o),
(790,819,o),
(790,675,c),
(790,0,l),
(1005,0,l),
(1005,696,l),
(1005,911,o),
(879,1050,o),
(654,1050,cs),
(512,1050,o),
(392,978,o),
(372,961,c),
(343,955,l),
(257,1033,l),
(73,1033,l),
(73,920,l),
(152,839,l),
(152,0,l)
);
}
);
userData = {
com.typemytype.robofont.guides = (
{
angle = 0;
isGlobal = 0;
magnetic = 5;
x = 0;
y = 854;
},
{
angle = 0;
isGlobal = 0;
magnetic = 5;
x = 0;
y = 955;
}
);
};
width = 1148;
},
{
anchors = (
{
name = btm;
pos = (600,-157);
},
{
name = top;
pos = (624,1713);
}
);
layerId = m002;
shapes = (
{
closed = 1;
nodes = (
(366,0,l),
(366,831,l),
(366,831,o),
(471,887,o),
(600,887,cs),
(731,887,o),
(790,819,o),
(790,675,c),
(790,0,l),
(1005,0,l),
(1005,696,l),
(1005,911,o),
(879,1050,o),
(654,1050,cs),
(512,1050,o),
(392,978,o),
(372,961,c),
(343,955,l),
(257,1033,l),
(73,1033,l),
(73,920,l),
(152,839,l),
(152,0,l)
);
}
);
userData = {
com.typemytype.robofont.guides = (
{
angle = 0;
isGlobal = 0;
magnetic = 5;
x = 0;
y = 854;
},
{
angle = 0;
isGlobal = 0;
magnetic = 5;
x = 0;
y = 955;
}
);
};
width = 1148;
},
{
anchors = (
{
name = btm;
pos = (600,-157);
},
{
name = top;
pos = (624,1713);
}
);
layerId = m003;
shapes = (
{
closed = 1;
nodes = (
(366,0,l),
(366,831,l),
(366,831,o),
(471,887,o),
(600,887,cs),
(731,887,o),
(790,819,o),
(790,675,c),
(790,0,l),
(1005,0,l),
(1005,696,l),
(1005,911,o),
(879,1050,o),
(654,1050,cs),
(512,1050,o),
(392,978,o),
(372,961,c),
(343,955,l),
(257,1033,l),
(73,1033,l),
(73,920,l),
(152,839,l),
(152,0,l)
);
}
);
userData = {
com.typemytype.robofont.guides = (
{
angle = 0;
isGlobal = 0;
magnetic = 5;
x = 0;
y = 854;
},
{
angle = 0;
isGlobal = 0;
magnetic = 5;
x = 0;
y = 955;
}
);
};
width = 1148;
}
);
unicode = 110;
}
{
glyphname = o;
layers = (
{
anchors = (
{
name = btm;
pos = (567,-157);
},
{
name = top;
pos = (567,1713);
}
);
layerId = m001;
shapes = (
{
closed = 1;
nodes = (
(76,159,o),
(259,-20,o),
(563,-20,cs),
(856,-20,o),
(1042,172,o),
(1042,525,cs),
(1042,877,o),
(860,1051,o),
(563,1051,cs),
(276,1051,o),
(76,863,o),
(76,511,cs)
);
},
{
closed = 1;
nodes = (
(385,145,o),
(300,271,o),
(300,511,cs),
(300,731,o),
(385,892,o),
(563,892,cs),
(740,892,o),
(818,764,o),
(818,525,cs),
(818,304,o),
(740,145,o),
(563,145,cs)
);
}
);
userData = {
com.typemytype.robofont.guides = (
{
angle = 0;
isGlobal = 0;
magnetic = 5;
x = 0;
y = 547;
}
);
};
width = 1118;
},
{
anchors = (
{
name = btm;
pos = (567,-157);
},
{
name = top;
pos = (567,1713);
}
);
layerId = m002;
shapes = (
{
closed = 1;
nodes = (
(76,159,o),
(259,-20,o),
(563,-20,cs),
(856,-20,o),
(1042,172,o),
(1042,525,cs),
(1042,877,o),
(860,1051,o),
(563,1051,cs),
(276,1051,o),
(76,863,o),
(76,511,cs)
);
},
{
closed = 1;
nodes = (
(385,145,o),
(300,271,o),
(300,511,cs),
(300,731,o),
(385,892,o),
(563,892,cs),
(740,892,o),
(818,764,o),
(818,525,cs),
(818,304,o),
(740,145,o),
(563,145,cs)
);
}
);
userData = {
com.typemytype.robofont.guides = (
{
angle = 0;
isGlobal = 0;
magnetic = 5;
x = 0;
y = 547;
}
);
};
width = 1118;
},
{
anchors = (
{
name = btm;
pos = (567,-157);
},
{
name = top;
pos = (567,1713);
}
);
layerId = m003;
shapes = (
{
closed = 1;
nodes = (
(76,159,o),
(259,-20,o),
(563,-20,cs),
(856,-20,o),
(1042,172,o),
(1042,525,cs),
(1042,877,o),
(860,1051,o),
(563,1051,cs),
(276,1051,o),
(76,863,o),
(76,511,cs)
);
},
{
closed = 1;
nodes = (
(385,145,o),
(300,271,o),
(300,511,cs),
(300,731,o),
(385,892,o),
(563,892,cs),
(740,892,o),
(818,764,o),
(818,525,cs),
(818,304,o),
(740,145,o),
(563,145,cs)
);
}
);
userData = {
com.typemytype.robofont.guides = (
{
angle = 0;
isGlobal = 0;
magnetic = 5;
x = 0;
y = 547;
}
);
};
width = 1118;
}
);
unicode = 111;
}
{
glyphname = p;
layers = (
{
anchors = (
{
name = btm;
pos = (621,-157);
},
{
name = top;
pos = (621,1713);
}
);
layerId = m001;
shapes = (
{
closed = 1;
nodes = (
(347,-6,o),
(442,-20,o),
(512,-20,cs),
(779,-20,o),
(1010,178,o),
(1010,531,cs),
(1010,939,o),
(818,1051,o),
(620,1051,cs),
(465,1051,o),
(369,978,o),
(353,962,c),
(316,964,l),
(237,1033,l),
(54,1033,l),
(54,970,l),
(133,889,l),
(133,-405,l),
(347,-405,l),
(347,-6,l)
);
},
{
closed = 1;
nodes = (
(347,833,l),
(347,833,o),
(433,888,o),
(506,888,cs),
(678,888,o),
(786,827,o),
(786,531,cs),
(786,292,o),
(657,135,o),
(457,135,cs),
(410,135,o),
(369,142,o),
(347,148,c)
);
}
);
width = 1089;
},
{
anchors = (
{
name = btm;
pos = (621,-157);
},
{
name = top;
pos = (621,1713);
}
);
layerId = m002;
shapes = (
{
closed = 1;
nodes = (
(347,-6,o),
(442,-20,o),
(512,-20,cs),
(779,-20,o),
(1010,178,o),
(1010,531,cs),
(1010,939,o),
(818,1051,o),
(620,1051,cs),
(465,1051,o),
(369,978,o),
(353,962,c),
(316,964,l),
(237,1033,l),
(54,1033,l),
(54,970,l),
(133,889,l),
(133,-405,l),
(347,-405,l),
(347,-6,l)
);
},
{
closed = 1;
nodes = (
(347,833,l),
(347,833,o),
(433,888,o),
(506,888,cs),
(678,888,o),
(786,827,o),
(786,531,cs),
(786,292,o),
(657,135,o),
(457,135,cs),
(410,135,o),
(369,142,o),
(347,148,c)
);
}
);
width = 1089;
},
{
anchors = (
{
name = btm;
pos = (621,-157);
},
{
name = top;
pos = (621,1713);
}
);
layerId = m003;
shapes = (
{
closed = 1;
nodes = (
(347,-6,o),
(442,-20,o),
(512,-20,cs),
(779,-20,o),
(1010,178,o),
(1010,531,cs),
(1010,939,o),
(818,1051,o),
(620,1051,cs),
(465,1051,o),
(369,978,o),
(353,962,c),
(316,964,l),
(237,1033,l),
(54,1033,l),
(54,970,l),
(133,889,l),
(133,-405,l),
(347,-405,l),
(347,-6,l)
);
},
{
closed = 1;
nodes = (
(347,833,l),
(347,833,o),
(433,888,o),
(506,888,cs),
(678,888,o),
(786,827,o),
(786,531,cs),
(786,292,o),
(657,135,o),
(457,135,cs),
(410,135,o),
(369,142,o),
(347,148,c)
);
}
);
width = 1089;
}
);
unicode = 112;
}
{
glyphname = q;
layers = (
{
anchors = (
{
name = btm;
pos = (510,-157);
},
{
name = top;
pos = (447,1713);
}
);
layerId = m001;
shapes = (
{
closed = 1;
nodes = (
(79,126,o),
(280,-20,o),
(517,-20,cs),
(642,-20,o),
(724,58,o),
(736,69,c),
(741,69,l),
(741,-405,l),
(956,-405,l),
(956,1008,l),
(826,1037,o),
(732,1051,o),
(608,1051,cs),
(319,1051,o),
(79,864,o),
(79,497,cs)
);
},
{
closed = 1;
nodes = (
(304,758,o),
(432,898,o),
(622,898,cs),
(691,898,o),
(727,877,o),
(741,868,c),
(741,198,l),
(741,198,o),
(650,144,o),
(583,144,cs),
(410,144,o),
(304,252,o),
(304,515,cs)
);
}
);
width = 1099;
},
{
anchors = (
{
name = btm;
pos = (510,-157);
},
{
name = top;
pos = (447,1713);
}
);
layerId = m002;
shapes = (
{
closed = 1;
nodes = (
(79,126,o),
(280,-20,o),
(517,-20,cs),
(642,-20,o),
(724,58,o),
(736,69,c),
(741,69,l),
(741,-405,l),
(956,-405,l),
(956,1008,l),
(826,1037,o),
(732,1051,o),
(608,1051,cs),
(319,1051,o),
(79,864,o),
(79,497,cs)
);
},
{
closed = 1;
nodes = (
(304,758,o),
(432,898,o),
(622,898,cs),
(691,898,o),
(727,877,o),
(741,868,c),
(741,198,l),
(741,198,o),
(650,144,o),
(583,144,cs),
(410,144,o),
(304,252,o),
(304,515,cs)
);
}
);
width = 1099;
},
{
anchors = (
{
name = btm;
pos = (510,-157);
},
{
name = top;
pos = (447,1713);
}
);
layerId = m003;
shapes = (
{
closed = 1;
nodes = (
(79,126,o),
(280,-20,o),
(517,-20,cs),
(642,-20,o),
(724,58,o),
(736,69,c),
(741,69,l),
(741,-405,l),
(956,-405,l),
(956,1008,l),
(826,1037,o),
(732,1051,o),
(608,1051,cs),
(319,1051,o),
(79,864,o),
(79,497,cs)
);
},
{
closed = 1;
nodes = (
(304,758,o),
(432,898,o),
(622,898,cs),
(691,898,o),
(727,877,o),
(741,868,c),
(741,198,l),
(741,198,o),
(650,144,o),
(583,144,cs),
(410,144,o),
(304,252,o),
(304,515,cs)
);
}
);
width = 1099;
}
);
unicode = 113;
}
{
glyphname = r;
layers = (
{
anchors = (
{
name = btm;
pos = (257,-157);
},
{
name = top;
pos = (371,1713);
}
);
layerId = m001;
shapes = (
{
closed = 1;
nodes = (
(80,920,l),
(159,839,l),
(159,0,l),
(373,0,l),
(373,800,l),
(373,800,o),
(411,833,o),
(516,833,cs),
(551,833,o),
(584,822,o),
(611,809,c),
(630,814,l),
(665,858,o),
(673,936,o),
(673,978,cs),
(673,1006,o),
(670,1026,o),
(669,1029,c),
(627,1043,o),
(593,1049,o),
(554,1049,cs),
(460,1049,o),
(397,991,o),
(367,925,c),
(264,1033,l),
(80,1033,l)
);
}
);
width = 702;
},
{
anchors = (
{
name = btm;
pos = (257,-157);
},
{
name = top;
pos = (371,1713);
}
);
layerId = m002;
shapes = (
{
closed = 1;
nodes = (
(80,920,l),
(159,839,l),
(159,0,l),
(373,0,l),
(373,800,l),
(373,800,o),
(411,833,o),
(516,833,cs),
(551,833,o),
(584,822,o),
(611,809,c),
(630,814,l),
(665,858,o),
(673,936,o),
(673,978,cs),
(673,1006,o),
(670,1026,o),
(669,1029,c),
(627,1043,o),
(593,1049,o),
(554,1049,cs),
(460,1049,o),
(397,991,o),
(367,925,c),
(264,1033,l),
(80,1033,l)
);
}
);
width = 702;
},
{
anchors = (
{
name = btm;
pos = (257,-157);
},
{
name = top;
pos = (371,1713);
}
);
layerId = m003;
shapes = (
{
closed = 1;
nodes = (
(80,920,l),
(159,839,l),
(159,0,l),
(373,0,l),
(373,800,l),
(373,800,o),
(411,833,o),
(516,833,cs),
(551,833,o),
(584,822,o),
(611,809,c),
(630,814,l),
(665,858,o),
(673,936,o),
(673,978,cs),
(673,1006,o),
(670,1026,o),
(669,1029,c),
(627,1043,o),
(593,1049,o),
(554,1049,cs),
(460,1049,o),
(397,991,o),
(367,925,c),
(264,1033,l),
(80,1033,l)
);
}
);
width = 702;
}
);
unicode = 114;
}
{
glyphname = s;
layers = (
{
anchors = (
{
name = btm;
pos = (478,-157);
},
{
name = top;
pos = (448,1713);
}
);
layerId = m001;
shapes = (
{
closed = 1;
nodes = (
(86,46,o),
(216,-20,o),
(401,-20,cs),
(691,-20,o),
(808,107,o),
(808,301,cs),
(808,482,o),
(734,560,o),
(489,614,cs),
(333,649,o),
(307,684,o),
(307,749,cs),
(307,880,o),
(387,891,o),
(499,891,cs),
(641,891,o),
(729,835,o),
(729,835,c),
(779,914,o),
(789,990,o),
(789,990,c),
(789,990,o),
(689,1050,o),
(504,1050,cs),
(240,1050,o),
(95,967,o),
(95,742,cs),
(95,592,o),
(182,480,o),
(429,431,cs),
(549,408,o),
(592,366,o),
(592,287,cs),
(592,157,o),
(507,150,o),
(395,150,cs),
(272,150,o),
(119,210,o),
(119,210,c),
(85,126,o),
(86,46,o),
(86,46,c)
);
}
);
width = 911;
},
{
anchors = (
{
name = btm;
pos = (478,-157);
},
{
name = top;
pos = (448,1713);
}
);
layerId = m002;
shapes = (
{
closed = 1;
nodes = (
(86,46,o),
(216,-20,o),
(401,-20,cs),
(691,-20,o),
(808,107,o),
(808,301,cs),
(808,482,o),
(734,560,o),
(489,614,cs),
(333,649,o),
(307,684,o),
(307,749,cs),
(307,880,o),
(387,891,o),
(499,891,cs),
(641,891,o),
(729,835,o),
(729,835,c),
(779,914,o),
(789,990,o),
(789,990,c),
(789,990,o),
(689,1050,o),
(504,1050,cs),
(240,1050,o),
(95,967,o),
(95,742,cs),
(95,592,o),
(182,480,o),
(429,431,cs),
(549,408,o),
(592,366,o),
(592,287,cs),
(592,157,o),
(507,150,o),
(395,150,cs),
(272,150,o),
(119,210,o),
(119,210,c),
(85,126,o),
(86,46,o),
(86,46,c)
);
}
);
width = 911;
},
{
anchors = (
{
name = btm;
pos = (478,-157);
},
{
name = top;
pos = (448,1713);
}
);
layerId = m003;
shapes = (
{
closed = 1;
nodes = (
(86,46,o),
(216,-20,o),
(401,-20,cs),
(691,-20,o),
(808,107,o),
(808,301,cs),
(808,482,o),
(734,560,o),
(489,614,cs),
(333,649,o),
(307,684,o),
(307,749,cs),
(307,880,o),
(387,891,o),
(499,891,cs),
(641,891,o),
(729,835,o),
(729,835,c),
(779,914,o),
(789,990,o),
(789,990,c),
(789,990,o),
(689,1050,o),
(504,1050,cs),
(240,1050,o),
(95,967,o),
(95,742,cs),
(95,592,o),
(182,480,o),
(429,431,cs),
(549,408,o),
(592,366,o),
(592,287,cs),
(592,157,o),
(507,150,o),
(395,150,cs),
(272,150,o),
(119,210,o),
(119,210,c),
(85,126,o),
(86,46,o),
(86,46,c)
);
}
);
width = 911;
}
);
unicode = 115;
}
{
glyphname = t;
layers = (
{
anchors = (
{
name = btm;
pos = (410,-157);
},
{
name = top;
pos = (308,1924);
}
);
layerId = m001;
shapes = (
{
closed = 1;
nodes = (
(182,85,o),
(251,-20,o),
(458,-20,cs),
(606,-20,o),
(694,48,o),
(694,48,c),
(694,48,o),
(694,117,o),
(639,187,c),
(639,187,o),
(549,148,o),
(489,148,cs),
(418,148,o),
(386,190,o),
(386,287,cs),
(386,867,l),
(646,867,l),
(646,867,o),
(674,910,o),
(674,971,cs),
(674,988,o),
(672,1009,o),
(669,1022,c),
(386,1022,l),
(386,1311,l),
(297,1311,l),
(182,1181,l),
(182,1022,l),
(51,1022,l),
(48,991,o),
(47,974,o),
(47,950,cs),
(47,903,o),
(51,867,o),
(51,867,c),
(182,867,l),
(182,286,ls)
);
}
);
width = 743;
},
{
anchors = (
{
name = btm;
pos = (410,-157);
},
{
name = top;
pos = (308,1924);
}
);
layerId = m002;
shapes = (
{
closed = 1;
nodes = (
(182,85,o),
(251,-20,o),
(458,-20,cs),
(606,-20,o),
(694,48,o),
(694,48,c),
(694,48,o),
(694,117,o),
(639,187,c),
(639,187,o),
(549,148,o),
(489,148,cs),
(418,148,o),
(386,190,o),
(386,287,cs),
(386,867,l),
(646,867,l),
(646,867,o),
(674,910,o),
(674,971,cs),
(674,988,o),
(672,1009,o),
(669,1022,c),
(386,1022,l),
(386,1311,l),
(297,1311,l),
(182,1181,l),
(182,1022,l),
(51,1022,l),
(48,991,o),
(47,974,o),
(47,950,cs),
(47,903,o),
(51,867,o),
(51,867,c),
(182,867,l),
(182,286,ls)
);
}
);
width = 743;
},
{
anchors = (
{
name = btm;
pos = (410,-157);
},
{
name = top;
pos = (308,1924);
}
);
layerId = m003;
shapes = (
{
closed = 1;
nodes = (
(182,85,o),
(251,-20,o),
(458,-20,cs),
(606,-20,o),
(694,48,o),
(694,48,c),
(694,48,o),
(694,117,o),
(639,187,c),
(639,187,o),
(549,148,o),
(489,148,cs),
(418,148,o),
(386,190,o),
(386,287,cs),
(386,867,l),
(646,867,l),
(646,867,o),
(674,910,o),
(674,971,cs),
(674,988,o),
(672,1009,o),
(669,1022,c),
(386,1022,l),
(386,1311,l),
(297,1311,l),
(182,1181,l),
(182,1022,l),
(51,1022,l),
(48,991,o),
(47,974,o),
(47,950,cs),
(47,903,o),
(51,867,o),
(51,867,c),
(182,867,l),
(182,286,ls)
);
}
);
width = 743;
}
);
unicode = 116;
}
{
glyphname = u;
layers = (
{
anchors = (
{
name = btm;
pos = (613,-157);
},
{
name = og;
pos = (1061,-157);
},
{
name = top;
pos = (563,1713);
}
);
layerId = m001;
shapes = (
{
closed = 1;
nodes = (
(112,120,o),
(228,-20,o),
(453,-20,cs),
(595,-20,o),
(697,63,o),
(717,79,c),
(755,79,l),
(834,0,l),
(1027,0,l),
(1027,63,l),
(938,165,l),
(938,1022,l),
(723,1022,l),
(723,199,l),
(723,199,o),
(636,144,o),
(509,144,cs),
(377,144,o),
(326,212,o),
(326,354,c),
(326,1022,l),
(112,1022,l),
(112,335,l)
);
}
);
width = 1096;
},
{
anchors = (
{
name = btm;
pos = (613,-157);
},
{
name = og;
pos = (1061,-157);
},
{
name = top;
pos = (563,1713);
}
);
layerId = m002;
shapes = (
{
closed = 1;
nodes = (
(112,120,o),
(228,-20,o),
(453,-20,cs),
(595,-20,o),
(697,63,o),
(717,79,c),
(755,79,l),
(834,0,l),
(1027,0,l),
(1027,63,l),
(938,165,l),
(938,1022,l),
(723,1022,l),
(723,199,l),
(723,199,o),
(636,144,o),
(509,144,cs),
(377,144,o),
(326,212,o),
(326,354,c),
(326,1022,l),
(112,1022,l),
(112,335,l)
);
}
);
width = 1096;
},
{
anchors = (
{
name = btm;
pos = (613,-157);
},
{
name = og;
pos = (1061,-157);
},
{
name = top;
pos = (563,1713);
}
);
layerId = m003;
shapes = (
{
closed = 1;
nodes = (
(112,120,o),
(228,-20,o),
(453,-20,cs),
(595,-20,o),
(697,63,o),
(717,79,c),
(755,79,l),
(834,0,l),
(1027,0,l),
(1027,63,l),
(938,165,l),
(938,1022,l),
(723,1022,l),
(723,199,l),
(723,199,o),
(636,144,o),
(509,144,cs),
(377,144,o),
(326,212,o),
(326,354,c),
(326,1022,l),
(112,1022,l),
(112,335,l)
);
}
);
width = 1096;
}
);
unicode = 117;
}
{
glyphname = v;
layers = (
{
anchors = (
{
name = btm;
pos = (497,-157);
},
{
name = top;
pos = (497,1713);
}
);
layerId = m001;
shapes = (
{
closed = 1;
nodes = (
(649,0,l),
(953,1022,l),
(741,1022,l),
(521,211,l),
(496,99,l),
(470,211,l),
(243,1022,l),
(28,1022,l),
(335,0,l)
);
}
);
userData = {
com.typemytype.robofont.guides = (
{
angle = 0;
isGlobal = 0;
magnetic = 5;
x = 0;
y = 231;
}
);
};
width = 981;
},
{
anchors = (
{
name = btm;
pos = (497,-157);
},
{
name = top;
pos = (497,1713);
}
);
layerId = m002;
shapes = (
{
closed = 1;
nodes = (
(649,0,l),
(953,1022,l),
(741,1022,l),
(521,211,l),
(496,99,l),
(470,211,l),
(243,1022,l),
(28,1022,l),
(335,0,l)
);
}
);
userData = {
com.typemytype.robofont.guides = (
{
angle = 0;
isGlobal = 0;
magnetic = 5;
x = 0;
y = 231;
}
);
};
width = 981;
},
{
anchors = (
{
name = btm;
pos = (497,-157);
},
{
name = top;
pos = (497,1713);
}
);
layerId = m003;
shapes = (
{
closed = 1;
nodes = (
(649,0,l),
(953,1022,l),
(741,1022,l),
(521,211,l),
(496,99,l),
(470,211,l),
(243,1022,l),
(28,1022,l),
(335,0,l)
);
}
);
userData = {
com.typemytype.robofont.guides = (
{
angle = 0;
isGlobal = 0;
magnetic = 5;
x = 0;
y = 231;
}
);
};
width = 981;
}
);
unicode = 118;
}
{
glyphname = w;
layers = (
{
anchors = (
{
name = btm;
pos = (779,-157);
},
{
name = top;
pos = (779,1713);
}
);
layerId = m001;
shapes = (
{
closed = 1;
nodes = (
(595,0,l),
(744,730,l),
(769,878,l),
(796,730,l),
(960,0,l),
(1265,0,l),
(1523,1022,l),
(1315,1022,l),
(1137,233,l),
(1115,105,l),
(1091,233,l),
(908,1022,l),
(637,1022,l),
(463,232,l),
(443,105,l),
(420,233,l),
(232,1022,l),
(17,1022,l),
(284,0,l)
);
}
);
userData = {
com.typemytype.robofont.guides = (
{
angle = 0;
isGlobal = 0;
magnetic = 5;
x = 0;
y = 253;
}
);
};
width = 1541;
},
{
anchors = (
{
name = btm;
pos = (779,-157);
},
{
name = top;
pos = (779,1713);
}
);
layerId = m002;
shapes = (
{
closed = 1;
nodes = (
(595,0,l),
(744,730,l),
(769,878,l),
(796,730,l),
(960,0,l),
(1265,0,l),
(1523,1022,l),
(1315,1022,l),
(1137,233,l),
(1115,105,l),
(1091,233,l),
(908,1022,l),
(637,1022,l),
(463,232,l),
(443,105,l),
(420,233,l),
(232,1022,l),
(17,1022,l),
(284,0,l)
);
}
);
userData = {
com.typemytype.robofont.guides = (
{
angle = 0;
isGlobal = 0;
magnetic = 5;
x = 0;
y = 253;
}
);
};
width = 1541;
},
{
anchors = (
{
name = btm;
pos = (779,-157);
},
{
name = top;
pos = (779,1713);
}
);
layerId = m003;
shapes = (
{
closed = 1;
nodes = (
(595,0,l),
(744,730,l),
(769,878,l),
(796,730,l),
(960,0,l),
(1265,0,l),
(1523,1022,l),
(1315,1022,l),
(1137,233,l),
(1115,105,l),
(1091,233,l),
(908,1022,l),
(637,1022,l),
(463,232,l),
(443,105,l),
(420,233,l),
(232,1022,l),
(17,1022,l),
(284,0,l)
);
}
);
userData = {
com.typemytype.robofont.guides = (
{
angle = 0;
isGlobal = 0;
magnetic = 5;
x = 0;
y = 253;
}
);
};
width = 1541;
}
);
unicode = 119;
}
{
glyphname = x;
layers = (
{
anchors = (
{
name = btm;
pos = (512,-157);
},
{
name = top;
pos = (512,1713);
}
);
layerId = m001;
shapes = (
{
closed = 1;
nodes = (
(265,0,l),
(467,334,l),
(484,403,l),
(521,334,l),
(730,0,l),
(959,0,l),
(624,507,l),
(965,1022,l),
(738,1022,l),
(670,919,o),
(608,805,o),
(539,702,c),
(521,630,l),
(482,702,l),
(284,1022,l),
(55,1022,l),
(165,867,o),
(273,680,o),
(383,524,c),
(40,0,l)
);
}
);
userData = {
com.typemytype.robofont.guides = (
{
angle = 0;
isGlobal = 0;
magnetic = 5;
x = 0;
y = 710;
},
{
angle = 0;
isGlobal = 0;
magnetic = 5;
x = 0;
y = 342;
}
);
};
width = 1000;
},
{
anchors = (
{
name = btm;
pos = (512,-157);
},
{
name = top;
pos = (512,1713);
}
);
layerId = m002;
shapes = (
{
closed = 1;
nodes = (
(265,0,l),
(467,334,l),
(484,403,l),
(521,334,l),
(730,0,l),
(959,0,l),
(624,507,l),
(965,1022,l),
(738,1022,l),
(670,919,o),
(608,805,o),
(539,702,c),
(521,630,l),
(482,702,l),
(284,1022,l),
(55,1022,l),
(165,867,o),
(273,680,o),
(383,524,c),
(40,0,l)
);
}
);
userData = {
com.typemytype.robofont.guides = (
{
angle = 0;
isGlobal = 0;
magnetic = 5;
x = 0;
y = 710;
},
{
angle = 0;
isGlobal = 0;
magnetic = 5;
x = 0;
y = 342;
}
);
};
width = 1000;
},
{
anchors = (
{
name = btm;
pos = (512,-157);
},
{
name = top;
pos = (512,1713);
}
);
layerId = m003;
shapes = (
{
closed = 1;
nodes = (
(265,0,l),
(467,334,l),
(484,403,l),
(521,334,l),
(730,0,l),
(959,0,l),
(624,507,l),
(965,1022,l),
(738,1022,l),
(670,919,o),
(608,805,o),
(539,702,c),
(521,630,l),
(482,702,l),
(284,1022,l),
(55,1022,l),
(165,867,o),
(273,680,o),
(383,524,c),
(40,0,l)
);
}
);
userData = {
com.typemytype.robofont.guides = (
{
angle = 0;
isGlobal = 0;
magnetic = 5;
x = 0;
y = 710;
},
{
angle = 0;
isGlobal = 0;
magnetic = 5;
x = 0;
y = 342;
}
);
};
width = 1000;
}
);
unicode = 120;
}
{
glyphname = y;
layers = (
{
anchors = (
{
name = btm;
pos = (494,-157);
},
{
name = top;
pos = (494,1713);
}
);
layerId = m001;
shapes = (
{
closed = 1;
nodes = (
(460,0,l),
(293,-466,l),
(510,-466,l),
(965,1022,l),
(733,1022,l),
(532,275,l),
(488,75,l),
(445,275,l),
(250,1022,l),
(25,1022,l),
(332,0,l)
);
}
);
width = 978;
},
{
anchors = (
{
name = btm;
pos = (494,-157);
},
{
name = top;
pos = (494,1713);
}
);
layerId = m002;
shapes = (
{
closed = 1;
nodes = (
(460,0,l),
(293,-466,l),
(510,-466,l),
(965,1022,l),
(733,1022,l),
(532,275,l),
(488,75,l),
(445,275,l),
(250,1022,l),
(25,1022,l),
(332,0,l)
);
}
);
width = 978;
},
{
anchors = (
{
name = btm;
pos = (494,-157);
},
{
name = top;
pos = (494,1713);
}
);
layerId = m003;
shapes = (
{
closed = 1;
nodes = (
(460,0,l),
(293,-466,l),
(510,-466,l),
(965,1022,l),
(733,1022,l),
(532,275,l),
(488,75,l),
(445,275,l),
(250,1022,l),
(25,1022,l),
(332,0,l)
);
}
);
width = 978;
}
);
unicode = 121;
}
{
glyphname = z;
layers = (
{
anchors = (
{
name = btm;
pos = (429,-157);
},
{
name = top;
pos = (452,1713);
}
);
layerId = m001;
shapes = (
{
closed = 1;
nodes = (
(809,0,l),
(830,49,o),
(834,88,o),
(834,116,cs),
(834,135,o),
(831,163,o),
(831,163,c),
(289,163,l),
(440,335,l),
(822,878,l),
(812,1023,l),
(124,1023,l),
(124,1023,o),
(113,1003,o),
(113,959,cs),
(113,921,o),
(121,894,o),
(130,859,c),
(597,860,l),
(452,714,l),
(66,138,l),
(76,0,l)
);
}
);
width = 884;
},
{
anchors = (
{
name = btm;
pos = (429,-157);
},
{
name = top;
pos = (452,1713);
}
);
layerId = m002;
shapes = (
{
closed = 1;
nodes = (
(809,0,l),
(830,49,o),
(834,88,o),
(834,116,cs),
(834,135,o),
(831,163,o),
(831,163,c),
(289,163,l),
(440,335,l),
(822,878,l),
(812,1023,l),
(124,1023,l),
(124,1023,o),
(113,1003,o),
(113,959,cs),
(113,921,o),
(121,894,o),
(130,859,c),
(597,860,l),
(452,714,l),
(66,138,l),
(76,0,l)
);
}
);
width = 884;
},
{
anchors = (
{
name = btm;
pos = (429,-157);
},
{
name = top;
pos = (452,1713);
}
);
layerId = m003;
shapes = (
{
closed = 1;
nodes = (
(809,0,l),
(830,49,o),
(834,88,o),
(834,116,cs),
(834,135,o),
(831,163,o),
(831,163,c),
(289,163,l),
(440,335,l),
(822,878,l),
(812,1023,l),
(124,1023,l),
(124,1023,o),
(113,1003,o),
(113,959,cs),
(113,921,o),
(121,894,o),
(130,859,c),
(597,860,l),
(452,714,l),
(66,138,l),
(76,0,l)
);
}
);
width = 884;
}
);
unicode = 122;
}
{
glyphname = braceleft;
layers = (
{
layerId = m001;
shapes = (
{
closed = 1;
nodes = (
(192,-120,o),
(341,-246,o),
(549,-270,c),
(549,-270,o),
(605,-226,o),
(606,-146,c),
(480,-124,o),
(397,-49,o),
(397,109,cs),
(397,159,o),
(404,208,o),
(411,256,cs),
(418,303,o),
(424,350,o),
(424,399,cs),
(424,558,o),
(357,619,o),
(285,657,c),
(277,684,l),
(317,699,o),
(423,731,o),
(423,943,cs),
(423,998,o),
(416,1044,o),
(409,1089,cs),
(402,1131,o),
(396,1172,o),
(396,1211,cs),
(396,1363,o),
(479,1435,o),
(607,1456,c),
(600,1541,o),
(550,1583,o),
(550,1583,c),
(341,1559,o),
(193,1435,o),
(193,1197,cs),
(193,1141,o),
(202,1087,o),
(212,1038,cs),
(221,989,o),
(230,938,o),
(230,890,cs),
(230,753,o),
(158,746,o),
(90,746,c),
(67,736,l),
(67,736,o),
(60,703,o),
(60,667,cs),
(60,648,o),
(63,624,o),
(69,596,c),
(148,596,o),
(231,590,o),
(231,439,cs),
(231,385,o),
(222,333,o),
(212,281,cs),
(202,230,o),
(192,179,o),
(192,127,cs)
);
}
);
width = 627;
},
{
layerId = m002;
shapes = (
{
closed = 1;
nodes = (
(192,-120,o),
(341,-246,o),
(549,-270,c),
(549,-270,o),
(605,-226,o),
(606,-146,c),
(480,-124,o),
(397,-49,o),
(397,109,cs),
(397,159,o),
(404,208,o),
(411,256,cs),
(418,303,o),
(424,350,o),
(424,399,cs),
(424,558,o),
(357,619,o),
(285,657,c),
(277,684,l),
(317,699,o),
(423,731,o),
(423,943,cs),
(423,998,o),
(416,1044,o),
(409,1089,cs),
(402,1131,o),
(396,1172,o),
(396,1211,cs),
(396,1363,o),
(479,1435,o),
(607,1456,c),
(600,1541,o),
(550,1583,o),
(550,1583,c),
(341,1559,o),
(193,1435,o),
(193,1197,cs),
(193,1141,o),
(202,1087,o),
(212,1038,cs),
(221,989,o),
(230,938,o),
(230,890,cs),
(230,753,o),
(158,746,o),
(90,746,c),
(67,736,l),
(67,736,o),
(60,703,o),
(60,667,cs),
(60,648,o),
(63,624,o),
(69,596,c),
(148,596,o),
(231,590,o),
(231,439,cs),
(231,385,o),
(222,333,o),
(212,281,cs),
(202,230,o),
(192,179,o),
(192,127,cs)
);
}
);
width = 627;
},
{
layerId = m003;
shapes = (
{
closed = 1;
nodes = (
(192,-120,o),
(341,-246,o),
(549,-270,c),
(549,-270,o),
(605,-226,o),
(606,-146,c),
(480,-124,o),
(397,-49,o),
(397,109,cs),
(397,159,o),
(404,208,o),
(411,256,cs),
(418,303,o),
(424,350,o),
(424,399,cs),
(424,558,o),
(357,619,o),
(285,657,c),
(277,684,l),
(317,699,o),
(423,731,o),
(423,943,cs),
(423,998,o),
(416,1044,o),
(409,1089,cs),
(402,1131,o),
(396,1172,o),
(396,1211,cs),
(396,1363,o),
(479,1435,o),
(607,1456,c),
(600,1541,o),
(550,1583,o),
(550,1583,c),
(341,1559,o),
(193,1435,o),
(193,1197,cs),
(193,1141,o),
(202,1087,o),
(212,1038,cs),
(221,989,o),
(230,938,o),
(230,890,cs),
(230,753,o),
(158,746,o),
(90,746,c),
(67,736,l),
(67,736,o),
(60,703,o),
(60,667,cs),
(60,648,o),
(63,624,o),
(69,596,c),
(148,596,o),
(231,590,o),
(231,439,cs),
(231,385,o),
(222,333,o),
(212,281,cs),
(202,230,o),
(192,179,o),
(192,127,cs)
);
}
);
width = 627;
}
);
unicode = 123;
}
{
glyphname = bar;
layers = (
{
layerId = m001;
shapes = (
{
closed = 1;
nodes = (
(366,-166,l),
(366,1517,l),
(152,1517,l),
(152,-166,l)
);
}
);
width = 518;
},
{
layerId = m002;
shapes = (
{
closed = 1;
nodes = (
(366,-166,l),
(366,1517,l),
(152,1517,l),
(152,-166,l)
);
}
);
width = 518;
},
{
layerId = m003;
shapes = (
{
closed = 1;
nodes = (
(366,-166,l),
(366,1517,l),
(152,1517,l),
(152,-166,l)
);
}
);
width = 518;
}
);
unicode = 124;
}
{
glyphname = asciitilde;
layers = (
{
layerId = m001;
shapes = (
{
closed = 1;
nodes = (
(230,452,o),
(293,602,o),
(397,602,cs),
(447,602,o),
(492,571,o),
(542,529,cs),
(595,485,o),
(672,418,o),
(781,418,cs),
(1007,418,o),
(1085,654,o),
(1085,654,c),
(1085,654,o),
(1049,711,o),
(947,752,c),
(947,752,o),
(894,602,o),
(789,602,cs),
(745,602,o),
(704,641,o),
(653,681,cs),
(596,726,o),
(521,796,o),
(410,796,cs),
(183,796,o),
(95,549,o),
(95,549,c),
(95,549,o),
(138,491,o),
(230,452,c)
);
}
);
width = 1196;
},
{
layerId = m002;
shapes = (
{
closed = 1;
nodes = (
(230,452,o),
(293,602,o),
(397,602,cs),
(447,602,o),
(492,571,o),
(542,529,cs),
(595,485,o),
(672,418,o),
(781,418,cs),
(1007,418,o),
(1085,654,o),
(1085,654,c),
(1085,654,o),
(1049,711,o),
(947,752,c),
(947,752,o),
(894,602,o),
(789,602,cs),
(745,602,o),
(704,641,o),
(653,681,cs),
(596,726,o),
(521,796,o),
(410,796,cs),
(183,796,o),
(95,549,o),
(95,549,c),
(95,549,o),
(138,491,o),
(230,452,c)
);
}
);
width = 1196;
},
{
layerId = m003;
shapes = (
{
closed = 1;
nodes = (
(230,452,o),
(293,602,o),
(397,602,cs),
(447,602,o),
(492,571,o),
(542,529,cs),
(595,485,o),
(672,418,o),
(781,418,cs),
(1007,418,o),
(1085,654,o),
(1085,654,c),
(1085,654,o),
(1049,711,o),
(947,752,c),
(947,752,o),
(894,602,o),
(789,602,cs),
(745,602,o),
(704,641,o),
(653,681,cs),
(596,726,o),
(521,796,o),
(410,796,cs),
(183,796,o),
(95,549,o),
(95,549,c),
(95,549,o),
(138,491,o),
(230,452,c)
);
}
);
width = 1196;
}
);
unicode = 126;
}
{
glyphname = cent;
layers = (
{
layerId = m001;
shapes = (
{
closed = 1;
nodes = (
(90,206,o),
(209,30,o),
(446,-10,c),
(446,-192,l),
(485,-206,o),
(518,-210,o),
(543,-210,cs),
(584,-210,o),
(630,-196,o),
(630,-196,c),
(630,-16,l),
(737,-4,o),
(847,27,o),
(847,27,c),
(849,117,o),
(812,191,o),
(812,191,c),
(812,191,o),
(677,148,o),
(561,148,cs),
(382,148,o),
(314,274,o),
(314,513,cs),
(314,733,o),
(382,902,o),
(561,902,cs),
(676,902,o),
(795,859,o),
(795,859,c),
(833,937,o),
(842,1013,o),
(842,1013,c),
(842,1013,o),
(743,1044,o),
(641,1057,c),
(641,1236,l),
(606,1252,o),
(575,1257,o),
(550,1257,cs),
(504,1257,o),
(457,1240,o),
(457,1240,c),
(457,1054,l),
(218,1013,o),
(90,822,o),
(90,513,cs)
);
}
);
width = 970;
},
{
layerId = m002;
shapes = (
{
closed = 1;
nodes = (
(90,206,o),
(209,30,o),
(446,-10,c),
(446,-192,l),
(485,-206,o),
(518,-210,o),
(543,-210,cs),
(584,-210,o),
(630,-196,o),
(630,-196,c),
(630,-16,l),
(737,-4,o),
(847,27,o),
(847,27,c),
(849,117,o),
(812,191,o),
(812,191,c),
(812,191,o),
(677,148,o),
(561,148,cs),
(382,148,o),
(314,274,o),
(314,513,cs),
(314,733,o),
(382,902,o),
(561,902,cs),
(676,902,o),
(795,859,o),
(795,859,c),
(833,937,o),
(842,1013,o),
(842,1013,c),
(842,1013,o),
(743,1044,o),
(641,1057,c),
(641,1236,l),
(606,1252,o),
(575,1257,o),
(550,1257,cs),
(504,1257,o),
(457,1240,o),
(457,1240,c),
(457,1054,l),
(218,1013,o),
(90,822,o),
(90,513,cs)
);
}
);
width = 970;
},
{
layerId = m003;
shapes = (
{
closed = 1;
nodes = (
(90,206,o),
(209,30,o),
(446,-10,c),
(446,-192,l),
(485,-206,o),
(518,-210,o),
(543,-210,cs),
(584,-210,o),
(630,-196,o),
(630,-196,c),
(630,-16,l),
(737,-4,o),
(847,27,o),
(847,27,c),
(849,117,o),
(812,191,o),
(812,191,c),
(812,191,o),
(677,148,o),
(561,148,cs),
(382,148,o),
(314,274,o),
(314,513,cs),
(314,733,o),
(382,902,o),
(561,902,cs),
(676,902,o),
(795,859,o),
(795,859,c),
(833,937,o),
(842,1013,o),
(842,1013,c),
(842,1013,o),
(743,1044,o),
(641,1057,c),
(641,1236,l),
(606,1252,o),
(575,1257,o),
(550,1257,cs),
(504,1257,o),
(457,1240,o),
(457,1240,c),
(457,1054,l),
(218,1013,o),
(90,822,o),
(90,513,cs)
);
}
);
width = 970;
}
);
unicode = 162;
}
{
glyphname = sterling;
layers = (
{
layerId = m001;
shapes = (
{
closed = 1;
nodes = (
(247,611,l),
(249,593,o),
(250,576,o),
(250,559,cs),
(250,326,o),
(104,72,o),
(104,72,c),
(117,44,o),
(171,-4,o),
(231,-20,c),
(295,19,o),
(367,47,o),
(434,47,cs),
(481,47,o),
(531,31,o),
(574,18,c),
(628,0,o),
(690,-20,o),
(769,-20,cs),
(986,-20,o),
(1074,198,o),
(1074,198,c),
(1074,198,o),
(1042,253,o),
(940,293,c),
(940,293,o),
(836,174,o),
(766,174,cs),
(711,174,o),
(668,191,o),
(625,207,c),
(626,207,l),
(581,224,o),
(569,220,o),
(508,220,cs),
(431,220,o),
(364,188,o),
(334,170,c),
(333,170,l),
(361,205,o),
(465,369,o),
(465,592,cs),
(465,611,l),
(750,611,l),
(750,611,o),
(762,653,o),
(762,694,cs),
(762,714,o),
(759,741,o),
(750,776,c),
(446,776,l),
(434,852,o),
(423,937,o),
(423,1042,cs),
(423,1171,o),
(498,1247,o),
(637,1247,cs),
(721,1247,o),
(776,1226,o),
(836,1182,c),
(864,1183,l),
(932,1236,o),
(947,1304,o),
(947,1304,c),
(947,1304,o),
(844,1410,o),
(648,1410,cs),
(344,1410,o),
(198,1233,o),
(198,1048,cs),
(198,937,o),
(209,851,o),
(222,776,c),
(70,776,l),
(70,776,o),
(56,735,o),
(56,693,cs),
(56,673,o),
(59,648,o),
(70,611,c)
);
}
);
userData = {
com.typemytype.robofont.guides = (
{
angle = 0;
isGlobal = 0;
magnetic = 5;
x = 0;
y = 784;
}
);
};
width = 1058;
},
{
layerId = m002;
shapes = (
{
closed = 1;
nodes = (
(247,611,l),
(249,593,o),
(250,576,o),
(250,559,cs),
(250,326,o),
(104,72,o),
(104,72,c),
(117,44,o),
(171,-4,o),
(231,-20,c),
(295,19,o),
(367,47,o),
(434,47,cs),
(481,47,o),
(531,31,o),
(574,18,c),
(628,0,o),
(690,-20,o),
(769,-20,cs),
(986,-20,o),
(1074,198,o),
(1074,198,c),
(1074,198,o),
(1042,253,o),
(940,293,c),
(940,293,o),
(836,174,o),
(766,174,cs),
(711,174,o),
(668,191,o),
(625,207,c),
(626,207,l),
(581,224,o),
(569,220,o),
(508,220,cs),
(431,220,o),
(364,188,o),
(334,170,c),
(333,170,l),
(361,205,o),
(465,369,o),
(465,592,cs),
(465,611,l),
(750,611,l),
(750,611,o),
(762,653,o),
(762,694,cs),
(762,714,o),
(759,741,o),
(750,776,c),
(446,776,l),
(434,852,o),
(423,937,o),
(423,1042,cs),
(423,1171,o),
(498,1247,o),
(637,1247,cs),
(721,1247,o),
(776,1226,o),
(836,1182,c),
(864,1183,l),
(932,1236,o),
(947,1304,o),
(947,1304,c),
(947,1304,o),
(844,1410,o),
(648,1410,cs),
(344,1410,o),
(198,1233,o),
(198,1048,cs),
(198,937,o),
(209,851,o),
(222,776,c),
(70,776,l),
(70,776,o),
(56,735,o),
(56,693,cs),
(56,673,o),
(59,648,o),
(70,611,c)
);
}
);
userData = {
com.typemytype.robofont.guides = (
{
angle = 0;
isGlobal = 0;
magnetic = 5;
x = 0;
y = 784;
}
);
};
width = 1058;
},
{
layerId = m003;
shapes = (
{
closed = 1;
nodes = (
(247,611,l),
(249,593,o),
(250,576,o),
(250,559,cs),
(250,326,o),
(104,72,o),
(104,72,c),
(117,44,o),
(171,-4,o),
(231,-20,c),
(295,19,o),
(367,47,o),
(434,47,cs),
(481,47,o),
(531,31,o),
(574,18,c),
(628,0,o),
(690,-20,o),
(769,-20,cs),
(986,-20,o),
(1074,198,o),
(1074,198,c),
(1074,198,o),
(1042,253,o),
(940,293,c),
(940,293,o),
(836,174,o),
(766,174,cs),
(711,174,o),
(668,191,o),
(625,207,c),
(626,207,l),
(581,224,o),
(569,220,o),
(508,220,cs),
(431,220,o),
(364,188,o),
(334,170,c),
(333,170,l),
(361,205,o),
(465,369,o),
(465,592,cs),
(465,611,l),
(750,611,l),
(750,611,o),
(762,653,o),
(762,694,cs),
(762,714,o),
(759,741,o),
(750,776,c),
(446,776,l),
(434,852,o),
(423,937,o),
(423,1042,cs),
(423,1171,o),
(498,1247,o),
(637,1247,cs),
(721,1247,o),
(776,1226,o),
(836,1182,c),
(864,1183,l),
(932,1236,o),
(947,1304,o),
(947,1304,c),
(947,1304,o),
(844,1410,o),
(648,1410,cs),
(344,1410,o),
(198,1233,o),
(198,1048,cs),
(198,937,o),
(209,851,o),
(222,776,c),
(70,776,l),
(70,776,o),
(56,735,o),
(56,693,cs),
(56,673,o),
(59,648,o),
(70,611,c)
);
}
);
userData = {
com.typemytype.robofont.guides = (
{
angle = 0;
isGlobal = 0;
magnetic = 5;
x = 0;
y = 784;
}
);
};
width = 1058;
}
);
unicode = 163;
}
{
glyphname = currency;
layers = (
{
layerId = m001;
shapes = (
{
closed = 1;
nodes = (
(129,142,o),
(219,95,o),
(219,95,c),
(386,265,l),
(460,227,o),
(553,209,o),
(661,209,cs),
(765,209,o),
(856,228,o),
(929,268,c),
(1093,102,l),
(1185,135,o),
(1224,216,o),
(1224,216,c),
(1056,382,l),
(1108,457,o),
(1136,558,o),
(1136,684,cs),
(1136,796,o),
(1114,884,o),
(1072,951,c),
(1223,1100,l),
(1198,1170,o),
(1097,1219,o),
(1097,1219,c),
(948,1068,l),
(872,1110,o),
(775,1129,o),
(661,1129,cs),
(550,1129,o),
(453,1108,o),
(375,1063,c),
(221,1220,l),
(127,1175,o),
(90,1105,o),
(90,1105,c),
(251,946,l),
(205,876,o),
(180,784,o),
(180,670,cs),
(180,546,o),
(207,449,o),
(257,377,c),
(94,216,l)
);
},
{
closed = 1;
nodes = (
(483,370,o),
(403,462,o),
(403,670,cs),
(403,859,o),
(483,973,o),
(661,973,cs),
(839,973,o),
(914,888,o),
(914,684,cs),
(914,493,o),
(839,370,o),
(661,370,cs)
);
}
);
width = 1314;
},
{
layerId = m002;
shapes = (
{
closed = 1;
nodes = (
(129,142,o),
(219,95,o),
(219,95,c),
(386,265,l),
(460,227,o),
(553,209,o),
(661,209,cs),
(765,209,o),
(856,228,o),
(929,268,c),
(1093,102,l),
(1185,135,o),
(1224,216,o),
(1224,216,c),
(1056,382,l),
(1108,457,o),
(1136,558,o),
(1136,684,cs),
(1136,796,o),
(1114,884,o),
(1072,951,c),
(1223,1100,l),
(1198,1170,o),
(1097,1219,o),
(1097,1219,c),
(948,1068,l),
(872,1110,o),
(775,1129,o),
(661,1129,cs),
(550,1129,o),
(453,1108,o),
(375,1063,c),
(221,1220,l),
(127,1175,o),
(90,1105,o),
(90,1105,c),
(251,946,l),
(205,876,o),
(180,784,o),
(180,670,cs),
(180,546,o),
(207,449,o),
(257,377,c),
(94,216,l)
);
},
{
closed = 1;
nodes = (
(483,370,o),
(403,462,o),
(403,670,cs),
(403,859,o),
(483,973,o),
(661,973,cs),
(839,973,o),
(914,888,o),
(914,684,cs),
(914,493,o),
(839,370,o),
(661,370,cs)
);
}
);
width = 1314;
},
{
layerId = m003;
shapes = (
{
closed = 1;
nodes = (
(129,142,o),
(219,95,o),
(219,95,c),
(386,265,l),
(460,227,o),
(553,209,o),
(661,209,cs),
(765,209,o),
(856,228,o),
(929,268,c),
(1093,102,l),
(1185,135,o),
(1224,216,o),
(1224,216,c),
(1056,382,l),
(1108,457,o),
(1136,558,o),
(1136,684,cs),
(1136,796,o),
(1114,884,o),
(1072,951,c),
(1223,1100,l),
(1198,1170,o),
(1097,1219,o),
(1097,1219,c),
(948,1068,l),
(872,1110,o),
(775,1129,o),
(661,1129,cs),
(550,1129,o),
(453,1108,o),
(375,1063,c),
(221,1220,l),
(127,1175,o),
(90,1105,o),
(90,1105,c),
(251,946,l),
(205,876,o),
(180,784,o),
(180,670,cs),
(180,546,o),
(207,449,o),
(257,377,c),
(94,216,l)
);
},
{
closed = 1;
nodes = (
(483,370,o),
(403,462,o),
(403,670,cs),
(403,859,o),
(483,973,o),
(661,973,cs),
(839,973,o),
(914,888,o),
(914,684,cs),
(914,493,o),
(839,370,o),
(661,370,cs)
);
}
);
width = 1314;
}
);
unicode = 164;
}
{
glyphname = yen;
layers = (
{
layerId = m001;
shapes = (
{
closed = 1;
nodes = (
(486,505,l),
(486,351,l),
(220,351,l),
(220,351,o),
(207,310,o),
(207,268,cs),
(207,247,o),
(210,230,o),
(220,194,c),
(486,194,l),
(486,0,l),
(692,0,l),
(692,194,l),
(956,194,l),
(956,194,o),
(968,228,o),
(968,269,cs),
(968,288,o),
(965,316,o),
(956,351,c),
(692,351,l),
(692,505,l),
(956,505,l),
(956,505,o),
(968,547,o),
(968,588,cs),
(968,608,o),
(965,626,o),
(956,661,c),
(675,661,l),
(1125,1350,l),
(883,1350,l),
(608,850,l),
(587,793,l),
(564,850,l),
(293,1350,l),
(50,1350,l),
(492,661,l),
(220,661,l),
(220,661,o),
(207,629,o),
(207,587,cs),
(207,567,o),
(210,541,o),
(220,505,c)
);
}
);
width = 1175;
},
{
layerId = m002;
shapes = (
{
closed = 1;
nodes = (
(486,505,l),
(486,351,l),
(220,351,l),
(220,351,o),
(207,310,o),
(207,268,cs),
(207,247,o),
(210,230,o),
(220,194,c),
(486,194,l),
(486,0,l),
(692,0,l),
(692,194,l),
(956,194,l),
(956,194,o),
(968,228,o),
(968,269,cs),
(968,288,o),
(965,316,o),
(956,351,c),
(692,351,l),
(692,505,l),
(956,505,l),
(956,505,o),
(968,547,o),
(968,588,cs),
(968,608,o),
(965,626,o),
(956,661,c),
(675,661,l),
(1125,1350,l),
(883,1350,l),
(608,850,l),
(587,793,l),
(564,850,l),
(293,1350,l),
(50,1350,l),
(492,661,l),
(220,661,l),
(220,661,o),
(207,629,o),
(207,587,cs),
(207,567,o),
(210,541,o),
(220,505,c)
);
}
);
width = 1175;
},
{
layerId = m003;
shapes = (
{
closed = 1;
nodes = (
(486,505,l),
(486,351,l),
(220,351,l),
(220,351,o),
(207,310,o),
(207,268,cs),
(207,247,o),
(210,230,o),
(220,194,c),
(486,194,l),
(486,0,l),
(692,0,l),
(692,194,l),
(956,194,l),
(956,194,o),
(968,228,o),
(968,269,cs),
(968,288,o),
(965,316,o),
(956,351,c),
(692,351,l),
(692,505,l),
(956,505,l),
(956,505,o),
(968,547,o),
(968,588,cs),
(968,608,o),
(965,626,o),
(956,661,c),
(675,661,l),
(1125,1350,l),
(883,1350,l),
(608,850,l),
(587,793,l),
(564,850,l),
(293,1350,l),
(50,1350,l),
(492,661,l),
(220,661,l),
(220,661,o),
(207,629,o),
(207,587,cs),
(207,567,o),
(210,541,o),
(220,505,c)
);
}
);
width = 1175;
}
);
unicode = 165;
}
{
glyphname = section;
layers = (
{
layerId = m001;
shapes = (
{
closed = 1;
nodes = (
(136,-66,o),
(141,-145,o),
(141,-145,c),
(141,-145,o),
(293,-199,o),
(438,-199,cs),
(708,-199,o),
(877,-92,o),
(877,135,cs),
(877,216,o),
(842,278,o),
(757,333,c),
(764,336,o),
(872,415,o),
(872,542,cs),
(872,684,o),
(839,735,o),
(569,891,cs),
(434,969,o),
(366,1007,o),
(366,1099,cs),
(366,1194,o),
(452,1218,o),
(558,1218,cs),
(701,1218,o),
(787,1164,o),
(787,1164,c),
(840,1242,o),
(848,1316,o),
(848,1316,c),
(848,1316,o),
(742,1374,o),
(563,1374,cs),
(305,1374,o),
(144,1270,o),
(144,1049,cs),
(144,957,o),
(196,889,o),
(262,850,c),
(262,850,o),
(140,771,o),
(140,643,cs),
(140,515,o),
(193,441,o),
(452,294,cs),
(574,224,o),
(655,173,o),
(655,93,cs),
(655,-24,o),
(561,-43,o),
(443,-43,cs),
(292,-43,o),
(177,20,o),
(177,20,c)
);
},
{
closed = 1;
nodes = (
(336,708,o),
(354,751,o),
(380,779,c),
(663,636,o),
(675,602,o),
(675,512,cs),
(675,473,o),
(662,433,o),
(638,406,c),
(347,559,o),
(336,595,o),
(336,663,cs)
);
}
);
width = 1024;
},
{
layerId = m002;
shapes = (
{
closed = 1;
nodes = (
(136,-66,o),
(141,-145,o),
(141,-145,c),
(141,-145,o),
(293,-199,o),
(438,-199,cs),
(708,-199,o),
(877,-92,o),
(877,135,cs),
(877,216,o),
(842,278,o),
(757,333,c),
(764,336,o),
(872,415,o),
(872,542,cs),
(872,684,o),
(839,735,o),
(569,891,cs),
(434,969,o),
(366,1007,o),
(366,1099,cs),
(366,1194,o),
(452,1218,o),
(558,1218,cs),
(701,1218,o),
(787,1164,o),
(787,1164,c),
(840,1242,o),
(848,1316,o),
(848,1316,c),
(848,1316,o),
(742,1374,o),
(563,1374,cs),
(305,1374,o),
(144,1270,o),
(144,1049,cs),
(144,957,o),
(196,889,o),
(262,850,c),
(262,850,o),
(140,771,o),
(140,643,cs),
(140,515,o),
(193,441,o),
(452,294,cs),
(574,224,o),
(655,173,o),
(655,93,cs),
(655,-24,o),
(561,-43,o),
(443,-43,cs),
(292,-43,o),
(177,20,o),
(177,20,c)
);
},
{
closed = 1;
nodes = (
(336,708,o),
(354,751,o),
(380,779,c),
(663,636,o),
(675,602,o),
(675,512,cs),
(675,473,o),
(662,433,o),
(638,406,c),
(347,559,o),
(336,595,o),
(336,663,cs)
);
}
);
width = 1024;
},
{
layerId = m003;
shapes = (
{
closed = 1;
nodes = (
(136,-66,o),
(141,-145,o),
(141,-145,c),
(141,-145,o),
(293,-199,o),
(438,-199,cs),
(708,-199,o),
(877,-92,o),
(877,135,cs),
(877,216,o),
(842,278,o),
(757,333,c),
(764,336,o),
(872,415,o),
(872,542,cs),
(872,684,o),
(839,735,o),
(569,891,cs),
(434,969,o),
(366,1007,o),
(366,1099,cs),
(366,1194,o),
(452,1218,o),
(558,1218,cs),
(701,1218,o),
(787,1164,o),
(787,1164,c),
(840,1242,o),
(848,1316,o),
(848,1316,c),
(848,1316,o),
(742,1374,o),
(563,1374,cs),
(305,1374,o),
(144,1270,o),
(144,1049,cs),
(144,957,o),
(196,889,o),
(262,850,c),
(262,850,o),
(140,771,o),
(140,643,cs),
(140,515,o),
(193,441,o),
(452,294,cs),
(574,224,o),
(655,173,o),
(655,93,cs),
(655,-24,o),
(561,-43,o),
(443,-43,cs),
(292,-43,o),
(177,20,o),
(177,20,c)
);
},
{
closed = 1;
nodes = (
(336,708,o),
(354,751,o),
(380,779,c),
(663,636,o),
(675,602,o),
(675,512,cs),
(675,473,o),
(662,433,o),
(638,406,c),
(347,559,o),
(336,595,o),
(336,663,cs)
);
}
);
width = 1024;
}
);
unicode = 167;
}
{
glyphname = dieresis;
layers = (
{
anchors = (
{
name = _top;
pos = (510,1713);
}
);
layerId = m001;
shapes = (
{
closed = 1;
nodes = (
(362,1225,o),
(425,1281,o),
(425,1350,cs),
(425,1421,o),
(362,1476,o),
(287,1476,cs),
(213,1476,o),
(152,1421,o),
(152,1350,cs),
(152,1281,o),
(213,1225,o),
(287,1225,cs)
);
},
{
closed = 1;
nodes = (
(793,1225,o),
(856,1281,o),
(856,1350,cs),
(856,1421,o),
(793,1476,o),
(718,1476,cs),
(644,1476,o),
(583,1421,o),
(583,1350,cs),
(583,1281,o),
(644,1225,o),
(718,1225,cs)
);
}
);
width = 1022;
},
{
anchors = (
{
name = _top;
pos = (510,1713);
}
);
layerId = m002;
shapes = (
{
closed = 1;
nodes = (
(362,1225,o),
(425,1281,o),
(425,1350,cs),
(425,1421,o),
(362,1476,o),
(287,1476,cs),
(213,1476,o),
(152,1421,o),
(152,1350,cs),
(152,1281,o),
(213,1225,o),
(287,1225,cs)
);
},
{
closed = 1;
nodes = (
(793,1225,o),
(856,1281,o),
(856,1350,cs),
(856,1421,o),
(793,1476,o),
(718,1476,cs),
(644,1476,o),
(583,1421,o),
(583,1350,cs),
(583,1281,o),
(644,1225,o),
(718,1225,cs)
);
}
);
width = 1022;
},
{
anchors = (
{
name = _top;
pos = (510,1713);
}
);
layerId = m003;
shapes = (
{
closed = 1;
nodes = (
(362,1225,o),
(425,1281,o),
(425,1350,cs),
(425,1421,o),
(362,1476,o),
(287,1476,cs),
(213,1476,o),
(152,1421,o),
(152,1350,cs),
(152,1281,o),
(213,1225,o),
(287,1225,cs)
);
},
{
closed = 1;
nodes = (
(793,1225,o),
(856,1281,o),
(856,1350,cs),
(856,1421,o),
(793,1476,o),
(718,1476,cs),
(644,1476,o),
(583,1421,o),
(583,1350,cs),
(583,1281,o),
(644,1225,o),
(718,1225,cs)
);
}
);
width = 1022;
}
);
unicode = 168;
}
{
glyphname = copyright;
layers = (
{
layerId = m001;
shapes = (
{
closed = 1;
nodes = (
(525,424,o),
(646,299,o),
(878,299,cs),
(969,299,o),
(1082,343,o),
(1082,343,c),
(1085,422,o),
(1050,471,o),
(1050,471,c),
(1050,471,o),
(959,441,o),
(878,441,cs),
(768,441,o),
(702,526,o),
(702,682,cs),
(702,840,o),
(768,943,o),
(878,943,cs),
(957,943,o),
(1041,911,o),
(1041,911,c),
(1071,978,o),
(1074,1046,o),
(1074,1046,c),
(1074,1046,o),
(968,1079,o),
(878,1079,cs),
(651,1079,o),
(525,941,o),
(525,682,cs)
);
},
{
closed = 1;
nodes = (
(138,297,o),
(454,-13,o),
(842,-13,cs),
(1231,-13,o),
(1547,297,o),
(1547,681,cs),
(1547,1064,o),
(1231,1374,o),
(842,1374,cs),
(454,1374,o),
(138,1064,o),
(138,681,cs)
);
},
{
closed = 1;
nodes = (
(278,999,o),
(530,1256,o),
(842,1256,cs),
(1155,1256,o),
(1407,999,o),
(1407,681,cs),
(1407,362,o),
(1155,105,o),
(842,105,cs),
(530,105,o),
(278,362,o),
(278,681,cs)
);
}
);
width = 1685;
},
{
layerId = m002;
shapes = (
{
closed = 1;
nodes = (
(525,424,o),
(646,299,o),
(878,299,cs),
(969,299,o),
(1082,343,o),
(1082,343,c),
(1085,422,o),
(1050,471,o),
(1050,471,c),
(1050,471,o),
(959,441,o),
(878,441,cs),
(768,441,o),
(702,526,o),
(702,682,cs),
(702,840,o),
(768,943,o),
(878,943,cs),
(957,943,o),
(1041,911,o),
(1041,911,c),
(1071,978,o),
(1074,1046,o),
(1074,1046,c),
(1074,1046,o),
(968,1079,o),
(878,1079,cs),
(651,1079,o),
(525,941,o),
(525,682,cs)
);
},
{
closed = 1;
nodes = (
(138,297,o),
(454,-13,o),
(842,-13,cs),
(1231,-13,o),
(1547,297,o),
(1547,681,cs),
(1547,1064,o),
(1231,1374,o),
(842,1374,cs),
(454,1374,o),
(138,1064,o),
(138,681,cs)
);
},
{
closed = 1;
nodes = (
(278,999,o),
(530,1256,o),
(842,1256,cs),
(1155,1256,o),
(1407,999,o),
(1407,681,cs),
(1407,362,o),
(1155,105,o),
(842,105,cs),
(530,105,o),
(278,362,o),
(278,681,cs)
);
}
);
width = 1685;
},
{
layerId = m003;
shapes = (
{
closed = 1;
nodes = (
(525,424,o),
(646,299,o),
(878,299,cs),
(969,299,o),
(1082,343,o),
(1082,343,c),
(1085,422,o),
(1050,471,o),
(1050,471,c),
(1050,471,o),
(959,441,o),
(878,441,cs),
(768,441,o),
(702,526,o),
(702,682,cs),
(702,840,o),
(768,943,o),
(878,943,cs),
(957,943,o),
(1041,911,o),
(1041,911,c),
(1071,978,o),
(1074,1046,o),
(1074,1046,c),
(1074,1046,o),
(968,1079,o),
(878,1079,cs),
(651,1079,o),
(525,941,o),
(525,682,cs)
);
},
{
closed = 1;
nodes = (
(138,297,o),
(454,-13,o),
(842,-13,cs),
(1231,-13,o),
(1547,297,o),
(1547,681,cs),
(1547,1064,o),
(1231,1374,o),
(842,1374,cs),
(454,1374,o),
(138,1064,o),
(138,681,cs)
);
},
{
closed = 1;
nodes = (
(278,999,o),
(530,1256,o),
(842,1256,cs),
(1155,1256,o),
(1407,999,o),
(1407,681,cs),
(1407,362,o),
(1155,105,o),
(842,105,cs),
(530,105,o),
(278,362,o),
(278,681,cs)
);
}
);
width = 1685;
}
);
unicode = 169;
}
{
glyphname = ordfeminine;
layers = (
{
layerId = m001;
shapes = (
{
closed = 1;
nodes = (
(430,561,o),
(539,610,o),
(548,618,c),
(562,618,l),
(614,573,l),
(773,573,l),
(773,620,l),
(706,685,l),
(706,1170,l),
(706,1317,o),
(607,1398,o),
(397,1398,cs),
(268,1398,o),
(130,1342,o),
(130,1342,c),
(130,1342,o),
(136,1269,o),
(178,1203,c),
(178,1203,o),
(289,1256,o),
(390,1256,cs),
(470,1256,o),
(536,1219,o),
(536,1131,c),
(536,1062,l),
(337,1054,l),
(195,1042,o),
(91,956,o),
(91,816,cs),
(91,695,o),
(180,561,o),
(319,561,cs)
);
},
{
closed = 1;
nodes = (
(303,686,o),
(264,755,o),
(264,822,cs),
(264,872,o),
(305,937,o),
(372,941,c),
(536,951,l),
(536,721,l),
(536,721,o),
(424,686,o),
(363,686,cs)
);
}
);
width = 839;
},
{
layerId = m002;
shapes = (
{
closed = 1;
nodes = (
(430,561,o),
(539,610,o),
(548,618,c),
(562,618,l),
(614,573,l),
(773,573,l),
(773,620,l),
(706,685,l),
(706,1170,l),
(706,1317,o),
(607,1398,o),
(397,1398,cs),
(268,1398,o),
(130,1342,o),
(130,1342,c),
(130,1342,o),
(136,1269,o),
(178,1203,c),
(178,1203,o),
(289,1256,o),
(390,1256,cs),
(470,1256,o),
(536,1219,o),
(536,1131,c),
(536,1062,l),
(337,1054,l),
(195,1042,o),
(91,956,o),
(91,816,cs),
(91,695,o),
(180,561,o),
(319,561,cs)
);
},
{
closed = 1;
nodes = (
(303,686,o),
(264,755,o),
(264,822,cs),
(264,872,o),
(305,937,o),
(372,941,c),
(536,951,l),
(536,721,l),
(536,721,o),
(424,686,o),
(363,686,cs)
);
}
);
width = 839;
},
{
layerId = m003;
shapes = (
{
closed = 1;
nodes = (
(430,561,o),
(539,610,o),
(548,618,c),
(562,618,l),
(614,573,l),
(773,573,l),
(773,620,l),
(706,685,l),
(706,1170,l),
(706,1317,o),
(607,1398,o),
(397,1398,cs),
(268,1398,o),
(130,1342,o),
(130,1342,c),
(130,1342,o),
(136,1269,o),
(178,1203,c),
(178,1203,o),
(289,1256,o),
(390,1256,cs),
(470,1256,o),
(536,1219,o),
(536,1131,c),
(536,1062,l),
(337,1054,l),
(195,1042,o),
(91,956,o),
(91,816,cs),
(91,695,o),
(180,561,o),
(319,561,cs)
);
},
{
closed = 1;
nodes = (
(303,686,o),
(264,755,o),
(264,822,cs),
(264,872,o),
(305,937,o),
(372,941,c),
(536,951,l),
(536,721,l),
(536,721,o),
(424,686,o),
(363,686,cs)
);
}
);
width = 839;
}
);
unicode = 170;
}
{
glyphname = logicalnot;
layers = (
{
layerId = m001;
shapes = (
{
closed = 1;
nodes = (
(1107,510,l),
(1107,177,l),
(1303,177,l),
(1303,685,l),
(193,685,l),
(193,510,l)
);
}
);
width = 1535;
},
{
layerId = m002;
shapes = (
{
closed = 1;
nodes = (
(1107,510,l),
(1107,177,l),
(1303,177,l),
(1303,685,l),
(193,685,l),
(193,510,l)
);
}
);
width = 1535;
},
{
layerId = m003;
shapes = (
{
closed = 1;
nodes = (
(1107,510,l),
(1107,177,l),
(1303,177,l),
(1303,685,l),
(193,685,l),
(193,510,l)
);
}
);
width = 1535;
}
);
unicode = 172;
}
{
glyphname = macron;
layers = (
{
anchors = (
{
name = _top;
pos = (512,1713);
}
);
layerId = m001;
shapes = (
{
closed = 1;
nodes = (
(825,1301,l),
(835,1332,o),
(840,1363,o),
(840,1389,cs),
(840,1407,o),
(837,1433,o),
(831,1459,c),
(186,1459,l),
(176,1431,o),
(172,1404,o),
(172,1380,cs),
(172,1360,o),
(176,1334,o),
(185,1301,c)
);
}
);
width = 1024;
},
{
anchors = (
{
name = _top;
pos = (512,1713);
}
);
layerId = m002;
shapes = (
{
closed = 1;
nodes = (
(825,1301,l),
(835,1332,o),
(840,1363,o),
(840,1389,cs),
(840,1407,o),
(837,1433,o),
(831,1459,c),
(186,1459,l),
(176,1431,o),
(172,1404,o),
(172,1380,cs),
(172,1360,o),
(176,1334,o),
(185,1301,c)
);
}
);
width = 1024;
},
{
anchors = (
{
name = _top;
pos = (512,1713);
}
);
layerId = m003;
shapes = (
{
closed = 1;
nodes = (
(825,1301,l),
(835,1332,o),
(840,1363,o),
(840,1389,cs),
(840,1407,o),
(837,1433,o),
(831,1459,c),
(186,1459,l),
(176,1431,o),
(172,1404,o),
(172,1380,cs),
(172,1360,o),
(176,1334,o),
(185,1301,c)
);
}
);
width = 1024;
}
);
unicode = 175;
}
{
glyphname = degree;
layers = (
{
layerId = m001;
shapes = (
{
closed = 1;
nodes = (
(298,1158,o),
(232,1221,o),
(232,1340,cs),
(232,1458,o),
(298,1524,o),
(383,1524,cs),
(473,1524,o),
(541,1458,o),
(541,1340,cs),
(541,1220,o),
(473,1158,o),
(383,1158,cs)
);
},
{
closed = 1;
nodes = (
(573,1019,o),
(709,1125,o),
(709,1340,cs),
(709,1552,o),
(573,1662,o),
(383,1662,cs),
(204,1662,o),
(62,1552,o),
(62,1340,cs),
(62,1127,o),
(204,1019,o),
(383,1019,cs)
);
}
);
width = 771;
},
{
layerId = m002;
shapes = (
{
closed = 1;
nodes = (
(298,1158,o),
(232,1221,o),
(232,1340,cs),
(232,1458,o),
(298,1524,o),
(383,1524,cs),
(473,1524,o),
(541,1458,o),
(541,1340,cs),
(541,1220,o),
(473,1158,o),
(383,1158,cs)
);
},
{
closed = 1;
nodes = (
(573,1019,o),
(709,1125,o),
(709,1340,cs),
(709,1552,o),
(573,1662,o),
(383,1662,cs),
(204,1662,o),
(62,1552,o),
(62,1340,cs),
(62,1127,o),
(204,1019,o),
(383,1019,cs)
);
}
);
width = 771;
},
{
layerId = m003;
shapes = (
{
closed = 1;
nodes = (
(298,1158,o),
(232,1221,o),
(232,1340,cs),
(232,1458,o),
(298,1524,o),
(383,1524,cs),
(473,1524,o),
(541,1458,o),
(541,1340,cs),
(541,1220,o),
(473,1158,o),
(383,1158,cs)
);
},
{
closed = 1;
nodes = (
(573,1019,o),
(709,1125,o),
(709,1340,cs),
(709,1552,o),
(573,1662,o),
(383,1662,cs),
(204,1662,o),
(62,1552,o),
(62,1340,cs),
(62,1127,o),
(204,1019,o),
(383,1019,cs)
);
}
);
width = 771;
}
);
unicode = 176;
}
{
glyphname = plusminus;
layers = (
{
layerId = m001;
shapes = (
{
closed = 1;
nodes = (
(661,674,l),
(661,328,l),
(857,328,l),
(857,674,l),
(1313,674,l),
(1313,848,l),
(857,848,l),
(857,1328,l),
(661,1328,l),
(661,848,l),
(203,848,l),
(203,674,l)
);
},
{
closed = 1;
nodes = (
(1313,0,l),
(1313,175,l),
(203,175,l),
(203,0,l)
);
}
);
width = 1535;
},
{
layerId = m002;
shapes = (
{
closed = 1;
nodes = (
(661,674,l),
(661,328,l),
(857,328,l),
(857,674,l),
(1313,674,l),
(1313,848,l),
(857,848,l),
(857,1328,l),
(661,1328,l),
(661,848,l),
(203,848,l),
(203,674,l)
);
},
{
closed = 1;
nodes = (
(1313,0,l),
(1313,175,l),
(203,175,l),
(203,0,l)
);
}
);
width = 1535;
},
{
layerId = m003;
shapes = (
{
closed = 1;
nodes = (
(661,674,l),
(661,328,l),
(857,328,l),
(857,674,l),
(1313,674,l),
(1313,848,l),
(857,848,l),
(857,1328,l),
(661,1328,l),
(661,848,l),
(203,848,l),
(203,674,l)
);
},
{
closed = 1;
nodes = (
(1313,0,l),
(1313,175,l),
(203,175,l),
(203,0,l)
);
}
);
width = 1535;
}
);
unicode = 177;
}
{
glyphname = two.superior;
layers = (
{
layerId = m001;
shapes = (
{
closed = 1;
nodes = (
(848,896,l),
(864,924,o),
(867,967,o),
(867,998,cs),
(867,1017,o),
(865,1047,o),
(865,1047,c),
(865,1047,o),
(690,1024,o),
(547,1020,c),
(570,1042,l),
(745,1216,o),
(842,1313,o),
(842,1432,cs),
(842,1580,o),
(751,1654,o),
(592,1654,cs),
(443,1654,o),
(329,1570,o),
(329,1570,c),
(329,1570,o),
(335,1513,o),
(396,1456,c),
(396,1456,o),
(484,1529,o),
(595,1529,cs),
(643,1529,o),
(671,1492,o),
(671,1421,cs),
(671,1347,o),
(610,1279,o),
(444,1109,c),
(336,998,l),
(336,896,l)
);
}
);
width = 1195;
},
{
layerId = m002;
shapes = (
{
closed = 1;
nodes = (
(848,896,l),
(864,924,o),
(867,967,o),
(867,998,cs),
(867,1017,o),
(865,1047,o),
(865,1047,c),
(865,1047,o),
(690,1024,o),
(547,1020,c),
(570,1042,l),
(745,1216,o),
(842,1313,o),
(842,1432,cs),
(842,1580,o),
(751,1654,o),
(592,1654,cs),
(443,1654,o),
(329,1570,o),
(329,1570,c),
(329,1570,o),
(335,1513,o),
(396,1456,c),
(396,1456,o),
(484,1529,o),
(595,1529,cs),
(643,1529,o),
(671,1492,o),
(671,1421,cs),
(671,1347,o),
(610,1279,o),
(444,1109,c),
(336,998,l),
(336,896,l)
);
}
);
width = 1195;
},
{
layerId = m003;
shapes = (
{
closed = 1;
nodes = (
(848,896,l),
(864,924,o),
(867,967,o),
(867,998,cs),
(867,1017,o),
(865,1047,o),
(865,1047,c),
(865,1047,o),
(690,1024,o),
(547,1020,c),
(570,1042,l),
(745,1216,o),
(842,1313,o),
(842,1432,cs),
(842,1580,o),
(751,1654,o),
(592,1654,cs),
(443,1654,o),
(329,1570,o),
(329,1570,c),
(329,1570,o),
(335,1513,o),
(396,1456,c),
(396,1456,o),
(484,1529,o),
(595,1529,cs),
(643,1529,o),
(671,1492,o),
(671,1421,cs),
(671,1347,o),
(610,1279,o),
(444,1109,c),
(336,998,l),
(336,896,l)
);
}
);
width = 1195;
}
);
unicode = 178;
}
{
glyphname = three.superior;
layers = (
{
layerId = m001;
shapes = (
{
closed = 1;
nodes = (
(318,927,o),
(432,878,o),
(556,878,cs),
(736,878,o),
(860,957,o),
(860,1114,cs),
(860,1201,o),
(798,1264,o),
(711,1285,c),
(789,1312,o),
(837,1365,o),
(837,1454,cs),
(837,1589,o),
(734,1654,o),
(567,1654,cs),
(449,1654,o),
(342,1604,o),
(342,1604,c),
(342,1604,o),
(345,1547,o),
(395,1491,c),
(395,1491,o),
(474,1533,o),
(559,1533,cs),
(624,1533,o),
(666,1504,o),
(666,1454,cs),
(666,1376,o),
(617,1342,o),
(568,1342,c),
(485,1342,l),
(485,1342,o),
(480,1308,o),
(480,1288,cs),
(480,1275,o),
(483,1245,o),
(489,1222,c),
(568,1222,l),
(641,1222,o),
(685,1168,o),
(685,1121,cs),
(685,1042,o),
(624,996,o),
(545,996,cs),
(455,996,o),
(364,1045,o),
(364,1045,c),
(325,979,o),
(318,927,o),
(318,927,c)
);
}
);
width = 1195;
},
{
layerId = m002;
shapes = (
{
closed = 1;
nodes = (
(318,927,o),
(432,878,o),
(556,878,cs),
(736,878,o),
(860,957,o),
(860,1114,cs),
(860,1201,o),
(798,1264,o),
(711,1285,c),
(789,1312,o),
(837,1365,o),
(837,1454,cs),
(837,1589,o),
(734,1654,o),
(567,1654,cs),
(449,1654,o),
(342,1604,o),
(342,1604,c),
(342,1604,o),
(345,1547,o),
(395,1491,c),
(395,1491,o),
(474,1533,o),
(559,1533,cs),
(624,1533,o),
(666,1504,o),
(666,1454,cs),
(666,1376,o),
(617,1342,o),
(568,1342,c),
(485,1342,l),
(485,1342,o),
(480,1308,o),
(480,1288,cs),
(480,1275,o),
(483,1245,o),
(489,1222,c),
(568,1222,l),
(641,1222,o),
(685,1168,o),
(685,1121,cs),
(685,1042,o),
(624,996,o),
(545,996,cs),
(455,996,o),
(364,1045,o),
(364,1045,c),
(325,979,o),
(318,927,o),
(318,927,c)
);
}
);
width = 1195;
},
{
layerId = m003;
shapes = (
{
closed = 1;
nodes = (
(318,927,o),
(432,878,o),
(556,878,cs),
(736,878,o),
(860,957,o),
(860,1114,cs),
(860,1201,o),
(798,1264,o),
(711,1285,c),
(789,1312,o),
(837,1365,o),
(837,1454,cs),
(837,1589,o),
(734,1654,o),
(567,1654,cs),
(449,1654,o),
(342,1604,o),
(342,1604,c),
(342,1604,o),
(345,1547,o),
(395,1491,c),
(395,1491,o),
(474,1533,o),
(559,1533,cs),
(624,1533,o),
(666,1504,o),
(666,1454,cs),
(666,1376,o),
(617,1342,o),
(568,1342,c),
(485,1342,l),
(485,1342,o),
(480,1308,o),
(480,1288,cs),
(480,1275,o),
(483,1245,o),
(489,1222,c),
(568,1222,l),
(641,1222,o),
(685,1168,o),
(685,1121,cs),
(685,1042,o),
(624,996,o),
(545,996,cs),
(455,996,o),
(364,1045,o),
(364,1045,c),
(325,979,o),
(318,927,o),
(318,927,c)
);
}
);
width = 1195;
}
);
unicode = 179;
}
{
glyphname = acute;
layers = (
{
anchors = (
{
name = _top;
pos = (419,1713);
}
);
layerId = m001;
shapes = (
{
closed = 1;
nodes = (
(671,1468,l),
(652,1508,o),
(543,1591,o),
(494,1605,c),
(249,1259,l),
(262,1227,o),
(313,1185,o),
(354,1169,c)
);
}
);
width = 567;
},
{
anchors = (
{
name = _top;
pos = (419,1713);
}
);
layerId = m002;
shapes = (
{
closed = 1;
nodes = (
(671,1468,l),
(652,1508,o),
(543,1591,o),
(494,1605,c),
(249,1259,l),
(262,1227,o),
(313,1185,o),
(354,1169,c)
);
}
);
width = 567;
},
{
anchors = (
{
name = _top;
pos = (419,1713);
}
);
layerId = m003;
shapes = (
{
closed = 1;
nodes = (
(671,1468,l),
(652,1508,o),
(543,1591,o),
(494,1605,c),
(249,1259,l),
(262,1227,o),
(313,1185,o),
(354,1169,c)
);
}
);
width = 567;
}
);
unicode = 180;
}
{
glyphname = mu;
layers = (
{
layerId = m001;
shapes = (
{
closed = 1;
nodes = (
(382,33,o),
(470,-20,o),
(584,-20,cs),
(726,-20,o),
(784,69,o),
(797,127,c),
(813,69,l),
(852,0,l),
(1055,0,l),
(1055,63,l),
(996,165,l),
(996,1022,l),
(781,1022,l),
(781,315,l),
(781,315,o),
(750,144,o),
(600,144,cs),
(433,144,o),
(387,265,o),
(387,407,c),
(387,1022,l),
(173,1022,l),
(173,335,l),
(172,-425,l),
(349,-425,l),
(387,-384,l),
(358,102,l)
);
}
);
width = 1195;
},
{
layerId = m002;
shapes = (
{
closed = 1;
nodes = (
(382,33,o),
(470,-20,o),
(584,-20,cs),
(726,-20,o),
(784,69,o),
(797,127,c),
(813,69,l),
(852,0,l),
(1055,0,l),
(1055,63,l),
(996,165,l),
(996,1022,l),
(781,1022,l),
(781,315,l),
(781,315,o),
(750,144,o),
(600,144,cs),
(433,144,o),
(387,265,o),
(387,407,c),
(387,1022,l),
(173,1022,l),
(173,335,l),
(172,-425,l),
(349,-425,l),
(387,-384,l),
(358,102,l)
);
}
);
width = 1195;
},
{
layerId = m003;
shapes = (
{
closed = 1;
nodes = (
(382,33,o),
(470,-20,o),
(584,-20,cs),
(726,-20,o),
(784,69,o),
(797,127,c),
(813,69,l),
(852,0,l),
(1055,0,l),
(1055,63,l),
(996,165,l),
(996,1022,l),
(781,1022,l),
(781,315,l),
(781,315,o),
(750,144,o),
(600,144,cs),
(433,144,o),
(387,265,o),
(387,407,c),
(387,1022,l),
(173,1022,l),
(173,335,l),
(172,-425,l),
(349,-425,l),
(387,-384,l),
(358,102,l)
);
}
);
width = 1195;
}
);
unicode = 181;
}
{
glyphname = paragraph;
layers = (
{
layerId = m001;
shapes = (
{
closed = 1;
nodes = (
(805,-156,l),
(805,1185,l),
(977,1185,l),
(977,-156,l),
(1192,-156,l),
(1192,1358,l),
(587,1358,l),
(322,1358,o),
(140,1187,o),
(140,933,cs),
(140,713,o),
(307,528,o),
(599,514,c),
(599,-156,l)
);
}
);
width = 1366;
},
{
layerId = m002;
shapes = (
{
closed = 1;
nodes = (
(805,-156,l),
(805,1185,l),
(977,1185,l),
(977,-156,l),
(1192,-156,l),
(1192,1358,l),
(587,1358,l),
(322,1358,o),
(140,1187,o),
(140,933,cs),
(140,713,o),
(307,528,o),
(599,514,c),
(599,-156,l)
);
}
);
width = 1366;
},
{
layerId = m003;
shapes = (
{
closed = 1;
nodes = (
(805,-156,l),
(805,1185,l),
(977,1185,l),
(977,-156,l),
(1192,-156,l),
(1192,1358,l),
(587,1358,l),
(322,1358,o),
(140,1187,o),
(140,933,cs),
(140,713,o),
(307,528,o),
(599,514,c),
(599,-156,l)
);
}
);
width = 1366;
}
);
unicode = 182;
}
{
glyphname = periodcentered;
layers = (
{
layerId = m001;
shapes = (
{
closed = 1;
nodes = (
(308,414,o),
(374,477,o),
(374,553,cs),
(374,629,o),
(308,690,o),
(226,690,cs),
(144,690,o),
(78,629,o),
(78,553,cs),
(78,477,o),
(144,414,o),
(226,414,cs)
);
}
);
width = 452;
},
{
layerId = m002;
shapes = (
{
closed = 1;
nodes = (
(308,414,o),
(374,477,o),
(374,553,cs),
(374,629,o),
(308,690,o),
(226,690,cs),
(144,690,o),
(78,629,o),
(78,553,cs),
(78,477,o),
(144,414,o),
(226,414,cs)
);
}
);
width = 452;
},
{
layerId = m003;
shapes = (
{
closed = 1;
nodes = (
(308,414,o),
(374,477,o),
(374,553,cs),
(374,629,o),
(308,690,o),
(226,690,cs),
(144,690,o),
(78,629,o),
(78,553,cs),
(78,477,o),
(144,414,o),
(226,414,cs)
);
}
);
width = 452;
}
);
unicode = 183;
}
{
glyphname = cedilla;
layers = (
{
anchors = (
{
name = _btm;
pos = (255,-157);
}
);
layerId = m001;
shapes = (
{
closed = 1;
nodes = (
(144,16,o),
(156,-61,o),
(156,-116,cs),
(156,-177,o),
(122,-231,o),
(47,-231,cs),
(36,-231,o),
(12,-225,o),
(-19,-218,c),
(-31,-260,o),
(-35,-295,o),
(-35,-324,cs),
(-35,-379,o),
(-21,-423,o),
(-21,-423,c),
(-21,-423,o),
(13,-434,o),
(62,-434,cs),
(242,-434,o),
(343,-310,o),
(343,-166,cs),
(343,-78,o),
(308,32,o),
(308,32,c),
(167,32,l),
(144,16,l)
);
}
);
width = 512;
},
{
anchors = (
{
name = _btm;
pos = (255,-157);
}
);
layerId = m002;
shapes = (
{
closed = 1;
nodes = (
(144,16,o),
(156,-61,o),
(156,-116,cs),
(156,-177,o),
(122,-231,o),
(47,-231,cs),
(36,-231,o),
(12,-225,o),
(-19,-218,c),
(-31,-260,o),
(-35,-295,o),
(-35,-324,cs),
(-35,-379,o),
(-21,-423,o),
(-21,-423,c),
(-21,-423,o),
(13,-434,o),
(62,-434,cs),
(242,-434,o),
(343,-310,o),
(343,-166,cs),
(343,-78,o),
(308,32,o),
(308,32,c),
(167,32,l),
(144,16,l)
);
}
);
width = 512;
},
{
anchors = (
{
name = _btm;
pos = (255,-157);
}
);
layerId = m003;
shapes = (
{
closed = 1;
nodes = (
(144,16,o),
(156,-61,o),
(156,-116,cs),
(156,-177,o),
(122,-231,o),
(47,-231,cs),
(36,-231,o),
(12,-225,o),
(-19,-218,c),
(-31,-260,o),
(-35,-295,o),
(-35,-324,cs),
(-35,-379,o),
(-21,-423,o),
(-21,-423,c),
(-21,-423,o),
(13,-434,o),
(62,-434,cs),
(242,-434,o),
(343,-310,o),
(343,-166,cs),
(343,-78,o),
(308,32,o),
(308,32,c),
(167,32,l),
(144,16,l)
);
}
);
width = 512;
}
);
unicode = 184;
}
{
glyphname = one.superior;
layers = (
{
layerId = m001;
shapes = (
{
closed = 1;
nodes = (
(525,896,l),
(525,1636,l),
(401,1636,l),
(401,1636,o),
(312,1590,o),
(200,1547,c),
(200,1547,o),
(197,1469,o),
(257,1436,c),
(274,1435,l),
(304,1442,o),
(337,1455,o),
(360,1464,c),
(360,896,l)
);
}
);
width = 856;
},
{
layerId = m002;
shapes = (
{
closed = 1;
nodes = (
(525,896,l),
(525,1636,l),
(401,1636,l),
(401,1636,o),
(312,1590,o),
(200,1547,c),
(200,1547,o),
(197,1469,o),
(257,1436,c),
(274,1435,l),
(304,1442,o),
(337,1455,o),
(360,1464,c),
(360,896,l)
);
}
);
width = 856;
},
{
layerId = m003;
shapes = (
{
closed = 1;
nodes = (
(525,896,l),
(525,1636,l),
(401,1636,l),
(401,1636,o),
(312,1590,o),
(200,1547,c),
(200,1547,o),
(197,1469,o),
(257,1436,c),
(274,1435,l),
(304,1442,o),
(337,1455,o),
(360,1464,c),
(360,896,l)
);
}
);
width = 856;
}
);
unicode = 185;
}
{
glyphname = ordmasculine;
layers = (
{
layerId = m001;
shapes = (
{
closed = 1;
nodes = (
(658,557,o),
(782,705,o),
(782,999,cs),
(782,1290,o),
(660,1399,o),
(458,1399,cs),
(261,1399,o),
(129,1280,o),
(129,987,cs),
(129,694,o),
(251,557,o),
(458,557,cs)
);
},
{
closed = 1;
nodes = (
(353,683,o),
(305,802,o),
(305,987,cs),
(305,1156,o),
(353,1278,o),
(458,1278,cs),
(562,1278,o),
(605,1182,o),
(605,999,cs),
(605,827,o),
(562,683,o),
(458,683,cs)
);
}
);
width = 911;
},
{
layerId = m002;
shapes = (
{
closed = 1;
nodes = (
(658,557,o),
(782,705,o),
(782,999,cs),
(782,1290,o),
(660,1399,o),
(458,1399,cs),
(261,1399,o),
(129,1280,o),
(129,987,cs),
(129,694,o),
(251,557,o),
(458,557,cs)
);
},
{
closed = 1;
nodes = (
(353,683,o),
(305,802,o),
(305,987,cs),
(305,1156,o),
(353,1278,o),
(458,1278,cs),
(562,1278,o),
(605,1182,o),
(605,999,cs),
(605,827,o),
(562,683,o),
(458,683,cs)
);
}
);
width = 911;
},
{
layerId = m003;
shapes = (
{
closed = 1;
nodes = (
(658,557,o),
(782,705,o),
(782,999,cs),
(782,1290,o),
(660,1399,o),
(458,1399,cs),
(261,1399,o),
(129,1280,o),
(129,987,cs),
(129,694,o),
(251,557,o),
(458,557,cs)
);
},
{
closed = 1;
nodes = (
(353,683,o),
(305,802,o),
(305,987,cs),
(305,1156,o),
(353,1278,o),
(458,1278,cs),
(562,1278,o),
(605,1182,o),
(605,999,cs),
(605,827,o),
(562,683,o),
(458,683,cs)
);
}
);
width = 911;
}
);
unicode = 186;
}
{
glyphname = onequarter;
layers = (
{
layerId = m001;
shapes = (
{
closed = 1;
nodes = (
(870,267,o),
(866,203,o),
(927,165,c),
(1229,165,l),
(1229,0,l),
(1394,0,l),
(1394,165,l),
(1490,165,l),
(1514,211,o),
(1507,281,o),
(1507,281,c),
(1394,281,l),
(1394,472,l),
(1394,472,o),
(1281,448,o),
(1229,405,c),
(1229,281,l),
(1053,281,l),
(1170,489,o),
(1305,695,o),
(1305,695,c),
(1303,710,l),
(1278,739,o),
(1160,773,o),
(1160,773,c),
(870,267,l)
);
},
{
pos = (203,0);
ref = fraction;
},
{
pos = (-99,-119);
ref = one.superior;
}
);
width = 1612;
},
{
layerId = m002;
shapes = (
{
closed = 1;
nodes = (
(870,267,o),
(866,203,o),
(927,165,c),
(1229,165,l),
(1229,0,l),
(1394,0,l),
(1394,165,l),
(1490,165,l),
(1514,211,o),
(1507,281,o),
(1507,281,c),
(1394,281,l),
(1394,472,l),
(1394,472,o),
(1281,448,o),
(1229,405,c),
(1229,281,l),
(1053,281,l),
(1170,489,o),
(1305,695,o),
(1305,695,c),
(1303,710,l),
(1278,739,o),
(1160,773,o),
(1160,773,c),
(870,267,l)
);
},
{
pos = (203,0);
ref = fraction;
},
{
pos = (-99,-119);
ref = one.superior;
}
);
width = 1612;
},
{
layerId = m003;
shapes = (
{
closed = 1;
nodes = (
(870,267,o),
(866,203,o),
(927,165,c),
(1229,165,l),
(1229,0,l),
(1394,0,l),
(1394,165,l),
(1490,165,l),
(1514,211,o),
(1507,281,o),
(1507,281,c),
(1394,281,l),
(1394,472,l),
(1394,472,o),
(1281,448,o),
(1229,405,c),
(1229,281,l),
(1053,281,l),
(1170,489,o),
(1305,695,o),
(1305,695,c),
(1303,710,l),
(1278,739,o),
(1160,773,o),
(1160,773,c),
(870,267,l)
);
},
{
pos = (203,0);
ref = fraction;
},
{
pos = (-99,-119);
ref = one.superior;
}
);
width = 1612;
}
);
unicode = 188;
}
{
glyphname = threequarters;
layers = (
{
layerId = m001;
shapes = (
{
closed = 1;
nodes = (
(946,267,o),
(942,203,o),
(1003,165,c),
(1305,165,l),
(1305,0,l),
(1470,0,l),
(1470,165,l),
(1566,165,l),
(1590,211,o),
(1583,281,o),
(1583,281,c),
(1470,281,l),
(1470,462,l),
(1470,462,o),
(1357,438,o),
(1305,395,c),
(1305,281,l),
(1129,281,l),
(1246,489,o),
(1381,695,o),
(1381,695,c),
(1379,710,l),
(1354,739,o),
(1236,773,o),
(1236,773,c),
(946,267,l)
);
},
{
pos = (279,0);
ref = fraction;
},
{
pos = (-251,-126);
ref = three.superior;
}
);
width = 1688;
},
{
layerId = m002;
shapes = (
{
closed = 1;
nodes = (
(946,267,o),
(942,203,o),
(1003,165,c),
(1305,165,l),
(1305,0,l),
(1470,0,l),
(1470,165,l),
(1566,165,l),
(1590,211,o),
(1583,281,o),
(1583,281,c),
(1470,281,l),
(1470,462,l),
(1470,462,o),
(1357,438,o),
(1305,395,c),
(1305,281,l),
(1129,281,l),
(1246,489,o),
(1381,695,o),
(1381,695,c),
(1379,710,l),
(1354,739,o),
(1236,773,o),
(1236,773,c),
(946,267,l)
);
},
{
pos = (279,0);
ref = fraction;
},
{
pos = (-251,-126);
ref = three.superior;
}
);
width = 1688;
},
{
layerId = m003;
shapes = (
{
closed = 1;
nodes = (
(946,267,o),
(942,203,o),
(1003,165,c),
(1305,165,l),
(1305,0,l),
(1470,0,l),
(1470,165,l),
(1566,165,l),
(1590,211,o),
(1583,281,o),
(1583,281,c),
(1470,281,l),
(1470,462,l),
(1470,462,o),
(1357,438,o),
(1305,395,c),
(1305,281,l),
(1129,281,l),
(1246,489,o),
(1381,695,o),
(1381,695,c),
(1379,710,l),
(1354,739,o),
(1236,773,o),
(1236,773,c),
(946,267,l)
);
},
{
pos = (279,0);
ref = fraction;
},
{
pos = (-251,-126);
ref = three.superior;
}
);
width = 1688;
}
);
unicode = 190;
}
{
glyphname = AE;
layers = (
{
anchors = (
{
name = top;
pos = (804,1713);
}
);
layerId = m001;
shapes = (
{
closed = 1;
nodes = (
(197,0,l),
(323,458,l),
(632,458,l),
(632,0,l),
(1336,0,l),
(1349,49,o),
(1352,99,o),
(1352,126,cs),
(1352,157,o),
(1349,186,o),
(1349,186,c),
(1349,186,o),
(1064,172,o),
(859,171,c),
(859,559,l),
(970,559,o),
(1268,558,o),
(1268,558,c),
(1288,632,o),
(1292,657,o),
(1292,666,cs),
(1292,698,o),
(1289,736,o),
(1289,736,c),
(1289,736,o),
(994,727,o),
(859,726,c),
(859,1185,l),
(1065,1185,o),
(1308,1176,o),
(1308,1176,c),
(1338,1236,o),
(1344,1285,o),
(1344,1308,cs),
(1344,1335,o),
(1341,1358,o),
(1341,1358,c),
(373,1358,l),
(-27,0,l)
);
},
{
closed = 1;
nodes = (
(526,1193,l),
(632,1193,l),
(632,632,l),
(374,632,l)
);
}
);
width = 1423;
},
{
anchors = (
{
name = top;
pos = (804,1713);
}
);
layerId = m002;
shapes = (
{
closed = 1;
nodes = (
(197,0,l),
(323,458,l),
(632,458,l),
(632,0,l),
(1336,0,l),
(1349,49,o),
(1352,99,o),
(1352,126,cs),
(1352,157,o),
(1349,186,o),
(1349,186,c),
(1349,186,o),
(1064,172,o),
(859,171,c),
(859,559,l),
(970,559,o),
(1268,558,o),
(1268,558,c),
(1288,632,o),
(1292,657,o),
(1292,666,cs),
(1292,698,o),
(1289,736,o),
(1289,736,c),
(1289,736,o),
(994,727,o),
(859,726,c),
(859,1185,l),
(1065,1185,o),
(1308,1176,o),
(1308,1176,c),
(1338,1236,o),
(1344,1285,o),
(1344,1308,cs),
(1344,1335,o),
(1341,1358,o),
(1341,1358,c),
(373,1358,l),
(-27,0,l)
);
},
{
closed = 1;
nodes = (
(526,1193,l),
(632,1193,l),
(632,632,l),
(374,632,l)
);
}
);
width = 1423;
},
{
anchors = (
{
name = top;
pos = (804,1713);
}
);
layerId = m003;
shapes = (
{
closed = 1;
nodes = (
(197,0,l),
(323,458,l),
(632,458,l),
(632,0,l),
(1336,0,l),
(1349,49,o),
(1352,99,o),
(1352,126,cs),
(1352,157,o),
(1349,186,o),
(1349,186,c),
(1349,186,o),
(1064,172,o),
(859,171,c),
(859,559,l),
(970,559,o),
(1268,558,o),
(1268,558,c),
(1288,632,o),
(1292,657,o),
(1292,666,cs),
(1292,698,o),
(1289,736,o),
(1289,736,c),
(1289,736,o),
(994,727,o),
(859,726,c),
(859,1185,l),
(1065,1185,o),
(1308,1176,o),
(1308,1176,c),
(1338,1236,o),
(1344,1285,o),
(1344,1308,cs),
(1344,1335,o),
(1341,1358,o),
(1341,1358,c),
(373,1358,l),
(-27,0,l)
);
},
{
closed = 1;
nodes = (
(526,1193,l),
(632,1193,l),
(632,632,l),
(374,632,l)
);
}
);
width = 1423;
}
);
unicode = 198;
}
{
glyphname = Ccedilla;
layers = (
{
layerId = m001;
shapes = (
{
closed = 1;
nodes = (
(51,261,o),
(217,28,o),
(537,-17,c),
(542,-40,o),
(545,-86,o),
(545,-116,cs),
(545,-177,o),
(511,-231,o),
(436,-231,cs),
(425,-231,o),
(401,-225,o),
(370,-218,c),
(358,-260,o),
(354,-295,o),
(354,-324,cs),
(354,-379,o),
(368,-423,o),
(368,-423,c),
(368,-423,o),
(402,-434,o),
(451,-434,cs),
(631,-434,o),
(732,-310,o),
(732,-166,cs),
(732,-119,o),
(722,-64,o),
(712,-24,c),
(852,-15,o),
(980,28,o),
(980,28,c),
(984,138,o),
(945,212,o),
(945,212,c),
(945,212,o),
(812,159,o),
(663,159,cs),
(426,159,o),
(276,333,o),
(276,667,cs),
(276,1002,o),
(426,1200,o),
(663,1200,cs),
(810,1200,o),
(935,1148,o),
(935,1148,c),
(981,1242,o),
(987,1329,o),
(987,1329,c),
(987,1329,o),
(819,1384,o),
(663,1384,cs),
(268,1384,o),
(51,1123,o),
(51,667,cs)
);
}
);
userData = {
com.typemytype.robofont.mark = (
0.656,
1,
0.6,
1
);
};
width = 1069;
},
{
layerId = m002;
shapes = (
{
closed = 1;
nodes = (
(51,261,o),
(217,28,o),
(537,-17,c),
(542,-40,o),
(545,-86,o),
(545,-116,cs),
(545,-177,o),
(511,-231,o),
(436,-231,cs),
(425,-231,o),
(401,-225,o),
(370,-218,c),
(358,-260,o),
(354,-295,o),
(354,-324,cs),
(354,-379,o),
(368,-423,o),
(368,-423,c),
(368,-423,o),
(402,-434,o),
(451,-434,cs),
(631,-434,o),
(732,-310,o),
(732,-166,cs),
(732,-119,o),
(722,-64,o),
(712,-24,c),
(852,-15,o),
(980,28,o),
(980,28,c),
(984,138,o),
(945,212,o),
(945,212,c),
(945,212,o),
(812,159,o),
(663,159,cs),
(426,159,o),
(276,333,o),
(276,667,cs),
(276,1002,o),
(426,1200,o),
(663,1200,cs),
(810,1200,o),
(935,1148,o),
(935,1148,c),
(981,1242,o),
(987,1329,o),
(987,1329,c),
(987,1329,o),
(819,1384,o),
(663,1384,cs),
(268,1384,o),
(51,1123,o),
(51,667,cs)
);
}
);
userData = {
com.typemytype.robofont.mark = (
0.656,
1,
0.6,
1
);
};
width = 1069;
},
{
layerId = m003;
shapes = (
{
closed = 1;
nodes = (
(51,261,o),
(217,28,o),
(537,-17,c),
(542,-40,o),
(545,-86,o),
(545,-116,cs),
(545,-177,o),
(511,-231,o),
(436,-231,cs),
(425,-231,o),
(401,-225,o),
(370,-218,c),
(358,-260,o),
(354,-295,o),
(354,-324,cs),
(354,-379,o),
(368,-423,o),
(368,-423,c),
(368,-423,o),
(402,-434,o),
(451,-434,cs),
(631,-434,o),
(732,-310,o),
(732,-166,cs),
(732,-119,o),
(722,-64,o),
(712,-24,c),
(852,-15,o),
(980,28,o),
(980,28,c),
(984,138,o),
(945,212,o),
(945,212,c),
(945,212,o),
(812,159,o),
(663,159,cs),
(426,159,o),
(276,333,o),
(276,667,cs),
(276,1002,o),
(426,1200,o),
(663,1200,cs),
(810,1200,o),
(935,1148,o),
(935,1148,c),
(981,1242,o),
(987,1329,o),
(987,1329,c),
(987,1329,o),
(819,1384,o),
(663,1384,cs),
(268,1384,o),
(51,1123,o),
(51,667,cs)
);
}
);
userData = {
com.typemytype.robofont.mark = (
0.656,
1,
0.6,
1
);
};
width = 1069;
}
);
unicode = 199;
}
{
glyphname = multiply;
layers = (
{
layerId = m001;
shapes = (
{
closed = 1;
nodes = (
(317,92,l),
(682,483,l),
(1037,92,l),
(1162,216,l),
(800,592,l),
(1172,978,l),
(1037,1113,l),
(672,721,l),
(307,1113,l),
(182,988,l),
(553,612,l),
(182,226,l)
);
}
);
width = 1368;
},
{
layerId = m002;
shapes = (
{
closed = 1;
nodes = (
(317,92,l),
(682,483,l),
(1037,92,l),
(1162,216,l),
(800,592,l),
(1172,978,l),
(1037,1113,l),
(672,721,l),
(307,1113,l),
(182,988,l),
(553,612,l),
(182,226,l)
);
}
);
width = 1368;
},
{
layerId = m003;
shapes = (
{
closed = 1;
nodes = (
(317,92,l),
(682,483,l),
(1037,92,l),
(1162,216,l),
(800,592,l),
(1172,978,l),
(1037,1113,l),
(672,721,l),
(307,1113,l),
(182,988,l),
(553,612,l),
(182,226,l)
);
}
);
width = 1368;
}
);
unicode = 215;
}
{
glyphname = Oslash;
layers = (
{
layerId = m001;
shapes = (
{
closed = 1;
nodes = (
(1041,-26,o),
(1207,259,o),
(1207,698,cs),
(1207,981,o),
(1144,1186,o),
(988,1294,c),
(1066,1458,l),
(1027,1512,o),
(958,1520,o),
(958,1520,c),
(877,1350,l),
(812,1372,o),
(736,1384,o),
(649,1384,cs),
(259,1384,o),
(83,1117,o),
(83,679,cs),
(83,406,o),
(147,200,o),
(292,83,c),
(196,-117,l),
(250,-170,o),
(307,-180,o),
(307,-180,c),
(401,18,l),
(471,-10,o),
(553,-26,o),
(649,-26,cs)
);
},
{
closed = 1;
nodes = (
(580,149,o),
(523,163,o),
(477,191,c),
(892,1111,l),
(957,1028,o),
(981,891,o),
(981,698,cs),
(981,372,o),
(902,149,o),
(649,149,cs)
);
},
{
closed = 1;
nodes = (
(308,1016,o),
(395,1211,o),
(649,1211,cs),
(712,1211,o),
(764,1200,o),
(807,1180,c),
(393,271,l),
(332,362,o),
(308,500,o),
(308,679,cs)
);
}
);
userData = {
com.typemytype.robofont.mark = (
0.656,
1,
0.6,
1
);
};
width = 1290;
},
{
layerId = m002;
shapes = (
{
closed = 1;
nodes = (
(1041,-26,o),
(1207,259,o),
(1207,698,cs),
(1207,981,o),
(1144,1186,o),
(988,1294,c),
(1066,1458,l),
(1027,1512,o),
(958,1520,o),
(958,1520,c),
(877,1350,l),
(812,1372,o),
(736,1384,o),
(649,1384,cs),
(259,1384,o),
(83,1117,o),
(83,679,cs),
(83,406,o),
(147,200,o),
(292,83,c),
(196,-117,l),
(250,-170,o),
(307,-180,o),
(307,-180,c),
(401,18,l),
(471,-10,o),
(553,-26,o),
(649,-26,cs)
);
},
{
closed = 1;
nodes = (
(580,149,o),
(523,163,o),
(477,191,c),
(892,1111,l),
(957,1028,o),
(981,891,o),
(981,698,cs),
(981,372,o),
(902,149,o),
(649,149,cs)
);
},
{
closed = 1;
nodes = (
(308,1016,o),
(395,1211,o),
(649,1211,cs),
(712,1211,o),
(764,1200,o),
(807,1180,c),
(393,271,l),
(332,362,o),
(308,500,o),
(308,679,cs)
);
}
);
userData = {
com.typemytype.robofont.mark = (
0.656,
1,
0.6,
1
);
};
width = 1290;
},
{
layerId = m003;
shapes = (
{
closed = 1;
nodes = (
(1041,-26,o),
(1207,259,o),
(1207,698,cs),
(1207,981,o),
(1144,1186,o),
(988,1294,c),
(1066,1458,l),
(1027,1512,o),
(958,1520,o),
(958,1520,c),
(877,1350,l),
(812,1372,o),
(736,1384,o),
(649,1384,cs),
(259,1384,o),
(83,1117,o),
(83,679,cs),
(83,406,o),
(147,200,o),
(292,83,c),
(196,-117,l),
(250,-170,o),
(307,-180,o),
(307,-180,c),
(401,18,l),
(471,-10,o),
(553,-26,o),
(649,-26,cs)
);
},
{
closed = 1;
nodes = (
(580,149,o),
(523,163,o),
(477,191,c),
(892,1111,l),
(957,1028,o),
(981,891,o),
(981,698,cs),
(981,372,o),
(902,149,o),
(649,149,cs)
);
},
{
closed = 1;
nodes = (
(308,1016,o),
(395,1211,o),
(649,1211,cs),
(712,1211,o),
(764,1200,o),
(807,1180,c),
(393,271,l),
(332,362,o),
(308,500,o),
(308,679,cs)
);
}
);
userData = {
com.typemytype.robofont.mark = (
0.656,
1,
0.6,
1
);
};
width = 1290;
}
);
unicode = 216;
}
{
glyphname = Thorn;
layers = (
{
layerId = m001;
shapes = (
{
closed = 1;
nodes = (
(380,0,l),
(380,280,l),
(380,280,o),
(469,265,o),
(582,265,cs),
(899,265,o),
(1068,466,o),
(1068,697,cs),
(1068,952,o),
(926,1114,o),
(658,1114,c),
(382,1114,l),
(382,1358,l),
(153,1358,l),
(153,0,l)
);
},
{
closed = 1;
nodes = (
(380,945,l),
(614,945,l),
(761,945,o),
(831,843,o),
(831,693,cs),
(831,505,o),
(698,436,o),
(517,436,cs),
(452,436,o),
(404,440,o),
(380,443,c)
);
}
);
width = 1116;
},
{
layerId = m002;
shapes = (
{
closed = 1;
nodes = (
(380,0,l),
(380,280,l),
(380,280,o),
(469,265,o),
(582,265,cs),
(899,265,o),
(1068,466,o),
(1068,697,cs),
(1068,952,o),
(926,1114,o),
(658,1114,c),
(382,1114,l),
(382,1358,l),
(153,1358,l),
(153,0,l)
);
},
{
closed = 1;
nodes = (
(380,945,l),
(614,945,l),
(761,945,o),
(831,843,o),
(831,693,cs),
(831,505,o),
(698,436,o),
(517,436,cs),
(452,436,o),
(404,440,o),
(380,443,c)
);
}
);
width = 1116;
},
{
layerId = m003;
shapes = (
{
closed = 1;
nodes = (
(380,0,l),
(380,280,l),
(380,280,o),
(469,265,o),
(582,265,cs),
(899,265,o),
(1068,466,o),
(1068,697,cs),
(1068,952,o),
(926,1114,o),
(658,1114,c),
(382,1114,l),
(382,1358,l),
(153,1358,l),
(153,0,l)
);
},
{
closed = 1;
nodes = (
(380,945,l),
(614,945,l),
(761,945,o),
(831,843,o),
(831,693,cs),
(831,505,o),
(698,436,o),
(517,436,cs),
(452,436,o),
(404,440,o),
(380,443,c)
);
}
);
width = 1116;
}
);
unicode = 222;
}
{
glyphname = germandbls;
layers = (
{
layerId = m001;
shapes = (
{
closed = 1;
nodes = (
(354,0,l),
(354,950,l),
(354,1084,o),
(444,1221,o),
(569,1221,cs),
(662,1221,o),
(712,1168,o),
(712,1095,cs),
(712,997,o),
(656,943,o),
(611,900,cs),
(559,849,o),
(507,810,o),
(507,708,cs),
(507,569,o),
(573,523,o),
(739,452,cs),
(825,415,o),
(868,350,o),
(868,277,cs),
(868,177,o),
(790,160,o),
(719,160,cs),
(629,160,o),
(519,208,o),
(519,208,c),
(472,126,o),
(473,37,o),
(473,37,c),
(473,37,o),
(573,-20,o),
(725,-20,cs),
(933,-20,o),
(1093,99,o),
(1093,282,cs),
(1093,453,o),
(1047,542,o),
(838,633,cs),
(746,673,o),
(719,674,o),
(719,729,cs),
(719,781,o),
(762,824,o),
(800,860,cs),
(858,917,o),
(928,976,o),
(928,1117,cs),
(928,1328,o),
(713,1384,o),
(580,1384,cs),
(289,1384,o),
(149,1153,o),
(149,926,c),
(149,0,l)
);
}
);
width = 1141;
},
{
layerId = m002;
shapes = (
{
closed = 1;
nodes = (
(354,0,l),
(354,950,l),
(354,1084,o),
(444,1221,o),
(569,1221,cs),
(662,1221,o),
(712,1168,o),
(712,1095,cs),
(712,997,o),
(656,943,o),
(611,900,cs),
(559,849,o),
(507,810,o),
(507,708,cs),
(507,569,o),
(573,523,o),
(739,452,cs),
(825,415,o),
(868,350,o),
(868,277,cs),
(868,177,o),
(790,160,o),
(719,160,cs),
(629,160,o),
(519,208,o),
(519,208,c),
(472,126,o),
(473,37,o),
(473,37,c),
(473,37,o),
(573,-20,o),
(725,-20,cs),
(933,-20,o),
(1093,99,o),
(1093,282,cs),
(1093,453,o),
(1047,542,o),
(838,633,cs),
(746,673,o),
(719,674,o),
(719,729,cs),
(719,781,o),
(762,824,o),
(800,860,cs),
(858,917,o),
(928,976,o),
(928,1117,cs),
(928,1328,o),
(713,1384,o),
(580,1384,cs),
(289,1384,o),
(149,1153,o),
(149,926,c),
(149,0,l)
);
}
);
width = 1141;
},
{
layerId = m003;
shapes = (
{
closed = 1;
nodes = (
(354,0,l),
(354,950,l),
(354,1084,o),
(444,1221,o),
(569,1221,cs),
(662,1221,o),
(712,1168,o),
(712,1095,cs),
(712,997,o),
(656,943,o),
(611,900,cs),
(559,849,o),
(507,810,o),
(507,708,cs),
(507,569,o),
(573,523,o),
(739,452,cs),
(825,415,o),
(868,350,o),
(868,277,cs),
(868,177,o),
(790,160,o),
(719,160,cs),
(629,160,o),
(519,208,o),
(519,208,c),
(472,126,o),
(473,37,o),
(473,37,c),
(473,37,o),
(573,-20,o),
(725,-20,cs),
(933,-20,o),
(1093,99,o),
(1093,282,cs),
(1093,453,o),
(1047,542,o),
(838,633,cs),
(746,673,o),
(719,674,o),
(719,729,cs),
(719,781,o),
(762,824,o),
(800,860,cs),
(858,917,o),
(928,976,o),
(928,1117,cs),
(928,1328,o),
(713,1384,o),
(580,1384,cs),
(289,1384,o),
(149,1153,o),
(149,926,c),
(149,0,l)
);
}
);
width = 1141;
}
);
unicode = 223;
}
{
glyphname = ae;
layers = (
{
anchors = (
{
name = btm;
pos = (793,-157);
},
{
name = top;
pos = (820,1713);
}
);
layerId = m001;
shapes = (
{
closed = 1;
nodes = (
(67,107,o),
(212,-20,o),
(412,-20,cs),
(641,-20,o),
(742,107,o),
(757,127,c),
(778,127,l),
(859,31,o),
(970,-20,o),
(1135,-20,cs),
(1313,-20,o),
(1454,46,o),
(1454,46,c),
(1454,46,o),
(1449,112,o),
(1406,209,c),
(1406,209,o),
(1279,148,o),
(1135,148,cs),
(960,148,o),
(861,265,o),
(859,489,c),
(1490,509,l),
(1490,509,o),
(1499,578,o),
(1499,663,cs),
(1499,900,o),
(1352,1050,o),
(1105,1050,cs),
(996,1050,o),
(879,997,o),
(810,922,c),
(762,999,o),
(683,1050,o),
(466,1050,cs),
(307,1050,o),
(150,976,o),
(150,976,c),
(150,976,o),
(153,903,o),
(212,827,c),
(212,827,o),
(328,889,o),
(466,889,cs),
(619,889,o),
(660,838,o),
(660,701,c),
(660,616,l),
(570,613,o),
(496,609,o),
(407,607,c),
(235,593,o),
(67,513,o),
(67,317,cs)
);
},
{
closed = 1;
nodes = (
(285,411,o),
(323,457,o),
(428,462,c),
(660,472,l),
(662,385,o),
(682,301,o),
(707,239,c),
(676,210,o),
(592,144,o),
(483,144,cs),
(373,144,o),
(285,201,o),
(285,326,cs)
);
},
{
closed = 1;
nodes = (
(893,796,o),
(985,889,o),
(1128,889,cs),
(1234,889,o),
(1310,810,o),
(1310,647,c),
(1156,641,o),
(1020,634,o),
(868,628,c)
);
}
);
width = 1577;
},
{
anchors = (
{
name = btm;
pos = (793,-157);
},
{
name = top;
pos = (820,1713);
}
);
layerId = m002;
shapes = (
{
closed = 1;
nodes = (
(67,107,o),
(212,-20,o),
(412,-20,cs),
(641,-20,o),
(742,107,o),
(757,127,c),
(778,127,l),
(859,31,o),
(970,-20,o),
(1135,-20,cs),
(1313,-20,o),
(1454,46,o),
(1454,46,c),
(1454,46,o),
(1449,112,o),
(1406,209,c),
(1406,209,o),
(1279,148,o),
(1135,148,cs),
(960,148,o),
(861,265,o),
(859,489,c),
(1490,509,l),
(1490,509,o),
(1499,578,o),
(1499,663,cs),
(1499,900,o),
(1352,1050,o),
(1105,1050,cs),
(996,1050,o),
(879,997,o),
(810,922,c),
(762,999,o),
(683,1050,o),
(466,1050,cs),
(307,1050,o),
(150,976,o),
(150,976,c),
(150,976,o),
(153,903,o),
(212,827,c),
(212,827,o),
(328,889,o),
(466,889,cs),
(619,889,o),
(660,838,o),
(660,701,c),
(660,616,l),
(570,613,o),
(496,609,o),
(407,607,c),
(235,593,o),
(67,513,o),
(67,317,cs)
);
},
{
closed = 1;
nodes = (
(285,411,o),
(323,457,o),
(428,462,c),
(660,472,l),
(662,385,o),
(682,301,o),
(707,239,c),
(676,210,o),
(592,144,o),
(483,144,cs),
(373,144,o),
(285,201,o),
(285,326,cs)
);
},
{
closed = 1;
nodes = (
(893,796,o),
(985,889,o),
(1128,889,cs),
(1234,889,o),
(1310,810,o),
(1310,647,c),
(1156,641,o),
(1020,634,o),
(868,628,c)
);
}
);
width = 1577;
},
{
anchors = (
{
name = btm;
pos = (793,-157);
},
{
name = top;
pos = (820,1713);
}
);
layerId = m003;
shapes = (
{
closed = 1;
nodes = (
(67,107,o),
(212,-20,o),
(412,-20,cs),
(641,-20,o),
(742,107,o),
(757,127,c),
(778,127,l),
(859,31,o),
(970,-20,o),
(1135,-20,cs),
(1313,-20,o),
(1454,46,o),
(1454,46,c),
(1454,46,o),
(1449,112,o),
(1406,209,c),
(1406,209,o),
(1279,148,o),
(1135,148,cs),
(960,148,o),
(861,265,o),
(859,489,c),
(1490,509,l),
(1490,509,o),
(1499,578,o),
(1499,663,cs),
(1499,900,o),
(1352,1050,o),
(1105,1050,cs),
(996,1050,o),
(879,997,o),
(810,922,c),
(762,999,o),
(683,1050,o),
(466,1050,cs),
(307,1050,o),
(150,976,o),
(150,976,c),
(150,976,o),
(153,903,o),
(212,827,c),
(212,827,o),
(328,889,o),
(466,889,cs),
(619,889,o),
(660,838,o),
(660,701,c),
(660,616,l),
(570,613,o),
(496,609,o),
(407,607,c),
(235,593,o),
(67,513,o),
(67,317,cs)
);
},
{
closed = 1;
nodes = (
(285,411,o),
(323,457,o),
(428,462,c),
(660,472,l),
(662,385,o),
(682,301,o),
(707,239,c),
(676,210,o),
(592,144,o),
(483,144,cs),
(373,144,o),
(285,201,o),
(285,326,cs)
);
},
{
closed = 1;
nodes = (
(893,796,o),
(985,889,o),
(1128,889,cs),
(1234,889,o),
(1310,810,o),
(1310,647,c),
(1156,641,o),
(1020,634,o),
(868,628,c)
);
}
);
width = 1577;
}
);
unicode = 230;
}
{
glyphname = ccedilla;
layers = (
{
layerId = m001;
shapes = (
{
closed = 1;
nodes = (
(79,212,o),
(208,36,o),
(440,-8,c),
(445,-33,o),
(450,-87,o),
(450,-116,cs),
(450,-177,o),
(416,-231,o),
(341,-231,cs),
(330,-231,o),
(306,-225,o),
(275,-218,c),
(263,-260,o),
(259,-295,o),
(259,-324,cs),
(259,-379,o),
(273,-423,o),
(273,-423,c),
(273,-423,o),
(307,-434,o),
(356,-434,cs),
(536,-434,o),
(637,-310,o),
(637,-166,cs),
(637,-120,o),
(626,-58,o),
(616,-17,c),
(714,-8,o),
(808,27,o),
(808,27,c),
(810,117,o),
(773,191,o),
(773,191,c),
(773,191,o),
(676,148,o),
(570,148,cs),
(391,148,o),
(296,275,o),
(296,514,cs),
(296,734,o),
(381,869,o),
(560,869,cs),
(664,869,o),
(754,826,o),
(754,826,c),
(792,904,o),
(801,1000,o),
(801,1000,c),
(801,1000,o),
(673,1050,o),
(560,1050,cs),
(254,1050,o),
(79,864,o),
(79,513,cs)
);
}
);
userData = {
com.typemytype.robofont.mark = (
0.656,
1,
0.6,
1
);
};
width = 858;
},
{
layerId = m002;
shapes = (
{
closed = 1;
nodes = (
(79,212,o),
(208,36,o),
(440,-8,c),
(445,-33,o),
(450,-87,o),
(450,-116,cs),
(450,-177,o),
(416,-231,o),
(341,-231,cs),
(330,-231,o),
(306,-225,o),
(275,-218,c),
(263,-260,o),
(259,-295,o),
(259,-324,cs),
(259,-379,o),
(273,-423,o),
(273,-423,c),
(273,-423,o),
(307,-434,o),
(356,-434,cs),
(536,-434,o),
(637,-310,o),
(637,-166,cs),
(637,-120,o),
(626,-58,o),
(616,-17,c),
(714,-8,o),
(808,27,o),
(808,27,c),
(810,117,o),
(773,191,o),
(773,191,c),
(773,191,o),
(676,148,o),
(570,148,cs),
(391,148,o),
(296,275,o),
(296,514,cs),
(296,734,o),
(381,869,o),
(560,869,cs),
(664,869,o),
(754,826,o),
(754,826,c),
(792,904,o),
(801,1000,o),
(801,1000,c),
(801,1000,o),
(673,1050,o),
(560,1050,cs),
(254,1050,o),
(79,864,o),
(79,513,cs)
);
}
);
userData = {
com.typemytype.robofont.mark = (
0.656,
1,
0.6,
1
);
};
width = 858;
},
{
layerId = m003;
shapes = (
{
closed = 1;
nodes = (
(79,212,o),
(208,36,o),
(440,-8,c),
(445,-33,o),
(450,-87,o),
(450,-116,cs),
(450,-177,o),
(416,-231,o),
(341,-231,cs),
(330,-231,o),
(306,-225,o),
(275,-218,c),
(263,-260,o),
(259,-295,o),
(259,-324,cs),
(259,-379,o),
(273,-423,o),
(273,-423,c),
(273,-423,o),
(307,-434,o),
(356,-434,cs),
(536,-434,o),
(637,-310,o),
(637,-166,cs),
(637,-120,o),
(626,-58,o),
(616,-17,c),
(714,-8,o),
(808,27,o),
(808,27,c),
(810,117,o),
(773,191,o),
(773,191,c),
(773,191,o),
(676,148,o),
(570,148,cs),
(391,148,o),
(296,275,o),
(296,514,cs),
(296,734,o),
(381,869,o),
(560,869,cs),
(664,869,o),
(754,826,o),
(754,826,c),
(792,904,o),
(801,1000,o),
(801,1000,c),
(801,1000,o),
(673,1050,o),
(560,1050,cs),
(254,1050,o),
(79,864,o),
(79,513,cs)
);
}
);
userData = {
com.typemytype.robofont.mark = (
0.656,
1,
0.6,
1
);
};
width = 858;
}
);
unicode = 231;
}
